<?xml version="1.0" encoding="utf-8"?>
<!-- Generator: Adobe Illustrator 22.0.1, SVG Export Plug-In . SVG Version: 6.00 Build 0)  -->
<svg version="1.1" id="Слой_1" xmlns="http://www.w3.org/2000/svg" xmlns:xlink="http://www.w3.org/1999/xlink" x="0px" y="0px"
	 viewBox="0 0 512 512" style="enable-background:new 0 0 512 512;" xml:space="preserve">
<circle id="Oval" cx="42.7" cy="145.1" r="8.5"/>
<circle id="Oval_1_" cx="76.8" cy="145.1" r="8.5"/>
<circle id="Oval_2_" cx="110.9" cy="145.1" r="8.5"/>
<path id="Shape" d="M52.7,374.2h20c5.5,0,10-4.5,10-10c0-5.5-4.5-10-10-10h-20c-5.5,0-10,4.5-10,10
	C42.7,369.7,47.2,374.2,52.7,374.2z"/>
<path id="Shape_1_" d="M263,354.2H112.8c-5.5,0-10,4.5-10,10c0,5.5,4.5,10,10,10H263c5.5,0,10-4.5,10-10
	C273.1,358.6,268.6,354.2,263,354.2z"/>
<path id="Shape_2_" d="M72.7,449.3h-20c-5.5,0-10,4.5-10,10c0,5.5,4.5,10,10,10h20c5.5,0,10-4.5,10-10
	C82.7,453.8,78.3,449.3,72.7,449.3z"/>
<path id="Shape_3_" d="M263,449.3H112.8c-5.5,0-10,4.5-10,10c0,5.5,4.5,10,10,10H263c5.5,0,10-4.5,10-10
	C273.1,453.8,268.6,449.3,263,449.3z"/>
<path id="Shape_4_" d="M263,400.2h-20c-5.5,0-10,4.5-10,10s4.5,10,10,10h20c5.5,0,10-4.5,10-10S268.6,400.2,263,400.2z"/>
<path id="Shape_5_" d="M52.7,420.3h150.3c5.5,0,10-4.5,10-10s-4.5-10-10-10H52.7c-5.5,0-10,4.5-10,10S47.2,420.3,52.7,420.3z"/>
<path id="Shape_6_" d="M315.7,153.6c4.7,0,8.5-3.8,8.5-8.5c0-33,26.8-59.7,59.7-59.7c4.7,0,8.5-3.8,8.5-8.5c0-4.7-3.8-8.5-8.5-8.5
	c-42.4,0-76.8,34.4-76.8,76.8c0,2.3,0.9,4.4,2.5,6C311.3,152.7,313.5,153.6,315.7,153.6z"/>
<path id="Shape_7_" d="M494.9,249v-104c0-44.8-27-85.1-68.3-102.4C426.7,19.1,407.6,0,384,0c-23.6,0-42.7,19.1-42.7,42.7
	c-27,11.3-48.4,32.8-59.7,59.7H42.7C19.1,102.4,0,121.5,0,145.1v324.3C0,492.9,19.1,512,42.7,512h392.5c23.6,0,42.6-19.1,42.7-42.7
	V307.2h17.1c9.4,0,17.1-7.6,17.1-17.1v-17.1C512,262.3,505.1,252.6,494.9,249z M384,17.1c12,0,22.3,8.3,24.9,20
	c-16.4-3.9-33.5-3.9-49.9,0C361.7,25.4,372,17.1,384,17.1z M384,51.2c51.8,0.1,93.8,42.1,93.9,93.9v102.4H290.1V145.1
	C290.2,93.3,332.2,51.3,384,51.2z M42.7,119.5h233.5c-2,8.4-3.1,17-3.1,25.6v25.6h-256v-25.6C17.1,130.9,28.5,119.5,42.7,119.5
	L42.7,119.5z M460.8,469.3c0,14.1-11.5,25.6-25.6,25.6H42.7c-14.1,0-25.6-11.5-25.6-25.6V187.7h256V249c-10.2,3.6-17,13.2-17.1,24
	v17.1c0,9.4,7.6,17.1,17.1,17.1h60.5c4.1,24.6,25.5,42.7,50.4,42.7c25,0,46.3-18,50.4-42.7h26.4V469.3z M351.1,307.2h65.8
	c-3.8,15.1-17.4,25.6-32.9,25.6C368.5,332.8,354.9,322.3,351.1,307.2L351.1,307.2z M273.1,290.1v-17.1c0-4.7,3.8-8.5,8.5-8.5h204.8
	c4.7,0,8.5,3.8,8.5,8.5v17.1H273.1z"/>
<path id="Shape_8_" d="M315.7,213.3c4.7,0,8.5-3.8,8.5-8.5v-25.6c0-4.7-3.8-8.5-8.5-8.5c-4.7,0-8.5,3.8-8.5,8.5v25.6
	C307.2,209.5,311,213.3,315.7,213.3z"/>
</svg>
