<?xml version="1.0" encoding="utf-8"?>
<!-- Generator: Adobe Illustrator 22.0.1, SVG Export Plug-In . SVG Version: 6.00 Build 0)  -->
<svg version="1.1" id="Слой_1" xmlns="http://www.w3.org/2000/svg" xmlns:xlink="http://www.w3.org/1999/xlink" x="0px" y="0px"
	 viewBox="0 0 464 464" style="enable-background:new 0 0 464 464;" xml:space="preserve">
<style type="text/css">
	.st0{fill:#734A91;}
	.st1{fill:#54316E;}
	.st2{fill:#FFFFFF;}
	.st3{fill:#9D74C1;}
	.st4{fill:#B798D8;}
	.st5{fill:#F4EDF4;}
	.st6{fill:#F7F7F7;}
	.st7{fill:#E2DCE2;}
	.st8{fill:#D0BDD6;}
	.st9{fill:#C3ADC9;}
</style>
<circle class="st0" cx="231.7" cy="231.7" r="232.3"/>
<path class="st1" d="M463.3,242.2c-7,128.7-111.4,226.2-242.1,221.8c-2.9-0.1-6,0-8.9-0.2L97.1,329.6L296.7,97.5L463.3,242.2z"/>
<path class="st2" d="M235.2,60.4V79l27.8-9.3L235.2,60.4z"/>
<path class="st3" d="M176,116.1h111.4v213.5H176V116.1z"/>
<path class="st4" d="M287.4,190.4h78.9v139.2h-78.9V190.4z"/>
<g>
	<path class="st5" d="M301.3,218.2h18.6v18.6h-18.6V218.2z"/>
	<path class="st5" d="M333.8,218.2h18.6v18.6h-18.6V218.2z"/>
	<path class="st5" d="M190,143.9h18.6v18.6H190V143.9z"/>
	<path class="st5" d="M222.4,143.9H241v18.6h-18.6V143.9z"/>
	<path class="st5" d="M254.9,143.9h18.6v18.6h-18.6V143.9z"/>
	<path class="st5" d="M190,181.1h18.6v18.6H190V181.1z"/>
	<path class="st5" d="M222.4,181.1H241v18.6h-18.6V181.1z"/>
	<path class="st5" d="M254.9,181.1h18.6v18.6h-18.6V181.1z"/>
	<path class="st5" d="M190,218.2h18.6v18.6H190V218.2z"/>
	<path class="st5" d="M222.4,218.2H241v18.6h-18.6V218.2z"/>
	<path class="st5" d="M254.9,218.2h18.6v18.6h-18.6V218.2z"/>
	<path class="st5" d="M301.3,250.7h18.6v18.6h-18.6V250.7z"/>
	<path class="st5" d="M333.8,250.7h18.6v18.6h-18.6V250.7z"/>
</g>
<path class="st4" d="M97.1,190.4H176v139.2H97.1V190.4z"/>
<path class="st5" d="M143.5,218.2h18.6v18.6h-18.6V218.2z"/>
<path class="st5" d="M111.1,218.2h18.6v18.6h-18.6V218.2z"/>
<path class="st5" d="M143.5,250.7h18.6v18.6h-18.6V250.7z"/>
<path class="st5" d="M111.1,250.7h18.6v18.6h-18.6V250.7z"/>
<path class="st6" d="M203.9,264.6h27.8v65h-27.8V264.6z"/>
<path class="st7" d="M231.7,264.6h27.8v65h-27.8V264.6z"/>
<path class="st8" d="M176,116.1h111.4v9.3H176V116.1z"/>
<path class="st2" d="M227.1,60.4h9.3v37.1h-9.3V60.4z"/>
<path class="st9" d="M296.7,116.1V97.5h-130v18.6H296.7z"/>
</svg>
