<?xml version="1.0" encoding="utf-8"?>
<!-- Generator: Adobe Illustrator 22.0.1, SVG Export Plug-In . SVG Version: 6.00 Build 0)  -->
<svg version="1.1" id="Capa_1" xmlns="http://www.w3.org/2000/svg" xmlns:xlink="http://www.w3.org/1999/xlink" x="0px" y="0px"
	 viewBox="0 0 50 60" style="enable-background:new 0 0 50 60;" xml:space="preserve">
<g>
	<path d="M49,58h-3v-4h-5V43.8c0-2.7-1.3-5.2-3.6-6.7L26.8,30l10.6-7.1c2.2-1.5,3.6-4,3.6-6.7V6h5V2h3c0.6,0,1-0.4,1-1s-0.4-1-1-1
		h-3h-1H5H4H1C0.4,0,0,0.4,0,1s0.4,1,1,1h3v4h5v10.2c0,2.7,1.3,5.2,3.6,6.7L23.2,30l-10.6,7.1c-2.2,1.5-3.6,4-3.6,6.7V54H4v4H1
		c-0.6,0-1,0.4-1,1s0.4,1,1,1h3h1h40h1h3c0.6,0,1-0.4,1-1S49.6,58,49,58z M6,4V2h38v2h-3H9H6z M13.7,21.3c-1.7-1.1-2.7-3-2.7-5V6h28
		v10.2c0,2-1,3.9-2.7,5L25,28.8L13.7,21.3z M11,43.8c0-2,1-3.9,2.7-5L25,31.2l11.3,7.5c1.7,1.1,2.7,3,2.7,5V54H11V43.8z M6,56h3h32
		h3v2H6V56z"/>
	<path d="M15.9,17.9c-0.6-0.4-0.9-1-0.9-1.7V14c0-0.6-0.4-1-1-1s-1,0.4-1,1v2.2c0,1.4,0.7,2.6,1.8,3.4l4.6,3.1
		c0.2,0.1,0.4,0.2,0.6,0.2c0.3,0,0.6-0.2,0.8-0.4c0.3-0.5,0.2-1.1-0.3-1.4L15.9,17.9z"/>
	<path d="M35.2,41.3l-4.6-3.1c-0.5-0.3-1.1-0.2-1.4,0.3c-0.3,0.5-0.2,1.1,0.3,1.4l4.6,3.1c0.6,0.4,0.9,1,0.9,1.7v2.2
		c0,0.6,0.4,1,1,1s1-0.4,1-1v-2.2C37,43.3,36.3,42,35.2,41.3z"/>
</g>
</svg>
