<?xml version="1.0" encoding="utf-8"?>
<!-- Generator: Adobe Illustrator 22.0.1, SVG Export Plug-In . SVG Version: 6.00 Build 0)  -->
<svg version="1.1" id="Layer_1" xmlns="http://www.w3.org/2000/svg" xmlns:xlink="http://www.w3.org/1999/xlink" x="0px" y="0px"
	 viewBox="0 0 512 512" style="enable-background:new 0 0 512 512;" xml:space="preserve">
<style type="text/css">
	.st0{fill:#734A91;}
	.st1{clip-path:url(#SVGID_2_);fill:#54316E;}
	.st2{clip-path:url(#SVGID_2_);}
	.st3{clip-path:url(#SVGID_4_);fill:#54316E;}
	.st4{fill:#C4ACE2;}
	.st5{fill:#B798D8;}
	.st6{fill:#DED3EF;}
</style>
<g>
	<circle class="st0" cx="256.5" cy="256.1" r="255.4"/>
</g>
<g>
	<g>
		<defs>
			<ellipse id="SVGID_1_" cx="257.1" cy="256.1" rx="254.9" ry="255.4"/>
		</defs>
		<clipPath id="SVGID_2_">
			<use xlink:href="#SVGID_1_"  style="overflow:visible;"/>
		</clipPath>
		<path class="st1" d="M123.1,225.7c-0.1,0.2-0.2,0.3-0.4,0.5c-1.1,3.1-2.4,6.1-3.9,8.9c-0.8,2.1-1.7,4.1-2.5,6.2
			c0.1,0.8,0.1,1.6,0.1,2.3c2.6-5.5,4.9-11,7.2-16.6c0.2-0.4,0.3-0.8,0.5-1.2C123.8,225.8,123.5,225.8,123.1,225.7z"/>
		<path class="st1" d="M142.6-5.9c5-4.9,13.8,0.6,12.4,7.9c-0.6,3.5-1.3,7-2,10.5c6-0.8,12-1.5,18.1-2.2c-0.9-2.8,0.7-6.5,4.6-6.8
			c11.4-0.8,22.8-2,34.3-2.8c4.5-0.3,9-0.6,13.5-0.8c21.2-3.5,42.6-6.5,63.9-2.7c0.2,0,0.5,0.1,0.7,0.2c4.7-0.3,9.3-0.5,14-0.9
			c3.2-0.2,5,2.8,4.9,5.6c10.8-0.7,21.7-1.2,32.5-1.6c2-0.1,3.4,0.9,4.1,2.3c2.5-0.4,5-0.7,7.5-1.1c5.4-0.8,8.2,6.1,4.8,8.7
			c4.4-0.2,9.5,0,12,3.1c1.5,1.8,1.7,4.1,0.8,5.8c2.4,0,4.8,0.1,7.1,0.2c1,0.1,1.9,0.3,2.5,0.8c6-0.1,12-0.2,18-0.4
			c12.9-0.4,25.7-0.7,38.6-0.5c10.6,0.1,20.5-2.1,30.4,1.3L437.1-3.5c-3.4,3.4-1.8,2.6-2.9,3.3c-1.4,0.8-2.9,1.1-4.5,0.8
			c-0.7,0.4-1.5,0.8-2.3,1.1c-0.8,0.3-1.7,0.4-2.5,0.5c0,0-0.1,0-0.1,0c-2.3,1.5-4.7,2.3-7.2,2.4c-1.1,0-2-0.3-2.9-0.7
			c-0.1,0.3-0.1,0.4-0.3,0.7c-2.6,5.6-10.9,3.5-12.4-1.6c-0.8-2.7-1.1-5.3-1.1-8.2c0-3.5,2-5.6,4.6-6.3c0.1-0.3,0.4-0.5,0.5-0.8
			c0.8-4.5,0.5-8.9-1.9-12.5c-2.7-4-8-6.8-13.5-8.6c-0.8,0.4-1.8,0.8-2.7,0.8c-20.9,1.8-41.1,8.3-62.3,5.2c-2.2-0.3-3.5-1.8-4.2-3.7
			c-31.7,1.4-63.4,5-95.2,6c-16.2,0.4-33.2,0.7-50-1c-5.3,0.1-10.6,0.3-16,0.4c-2.6,0-5.2,0-7.7,0c0.2,3.4-1.8,6.9-5.5,7.9
			c-1.6,0.4-3.2,0.8-4.8,1c-0.1,0.2-0.2,0.4-0.3,0.6c0.2,3,0.3,5.9,0.4,8.9C142.5-6.8,142.5-6.3,142.6-5.9z"/>
		<path class="st1" d="M437.9,34.6c6.6-0.1,13.1-0.2,19.7-0.2c7.4,0,14.9,0,22.3,0.5c0.7,0,1.5,0.1,2.3,0.1l-10.6-9
			c0,2.6-2.1,5.4-5,5.5c-11.4,0.7-22.9,1.1-34.3,1.4C434.2,33.3,436.2,33.8,437.9,34.6z"/>
		<path class="st1" d="M451.1,78.9c1.4-0.9,2.8-2,4.1-3.1c-1.5,0.3-2.8,0.8-3.6,1c-1.7,0.4-3.3,0.9-4.9,1.5c0,0.4-0.1,0.7-0.1,1.1
			C448,79.2,449.6,79,451.1,78.9z"/>
		<path class="st1" d="M639.4,189.7c-0.4,0.2-0.7,0.3-1.2,0.4c-0.8,0.2-1.7,0.4-2.5,0.5c-0.8,0.9-1.9,1.5-3.5,1.6
			c-4.8,0.4-9.7,0.8-14.5,1.2c-5.4,0.6-10.7,1-16.1,1.3c-11.1,0.9-22.3,1.8-33.4,2.7c0.3,2.3-0.8,4.7-3.5,5.1
			c-5.3,0.8-10.7,1.4-16,1.9c0,0.9-0.2,1.7-0.7,2.5c-1.1,1.7-2.4,3-3.9,4c0,0,0.1,0,0.1,0c3.2,0.2,5.7,3,4.8,6.3
			c-1.2,4.4-6.5,5.5-10.3,6.1c-2.9,0.5-5.8,0.9-8.7,1.2c4.2,2.2,2.4,9-2.5,9.3c-1.2,0.1-2.3,0.2-3.5,0.2c-0.5,1.5-1.7,2.8-3.5,3.1
			c6.4,0.6,12.8,1.2,19.3,1.9c5.7,0.6,6.7,7.8,1.3,9.8c-5.4,2-10.4,1.4-16,1.9c-0.3,0-0.6,0.1-1,0.1c0.4,1.4,0.2,2.9-0.7,4.2
			c0,0,0,0,0.1,0c3.8,0,5.3,3.1,4.7,5.9c2,0.1,4,0.3,6.1,0.4c6.4,0.4,6.5,10.2,0,10c-12.2-0.3-24.4-1.4-36.7-1.6
			c-11.2-0.2-22.3,0.4-33.3-1.8c-2.9-0.6-3.9-3-3.5-5.3c-2.2-2.5-1.7-6.8,2.3-8.1c2-0.7,4-1.1,6-1.5c-0.4-0.8-0.7-1.8-0.7-2.7
			c-0.4,0-0.7,0-1.1-0.1c-3.4,0.1-6.8,0.3-10.1,0.6c-7.6,0.6-16.9,2.2-24.1-1c-4-1.8-2.7-8.2,1.2-9.1c3.1-0.7,6.3-1.4,9.4-2.1
			c-0.4-0.1-0.8-0.3-1.1-0.4c-3.1,0.1-6.1,0.2-9.2,0.4c-6.5,0.3-6.3-9.4,0-10c1-0.1,2.1-0.2,3.1-0.3c0.6-1.1,1.6-2,3.1-2.6
			c5.3-2,10.8-3.2,16.3-4.2c-0.5-0.3-0.9-0.6-1.3-1c-9.2,0.4-18.4,0.8-27.7,1c-5.2,0.1-6.7-7.9-2.2-9.6c-0.8-0.3-1.5-0.7-2.3-1.1
			c-3.2-1.8-3-5.1-1.1-7.3c-13.3,1.1-26.5,2.2-39.8,3.2c-6.4,0.5-6.3-9.5,0-10c3.3-0.3,6.7-0.6,10-0.9c0,0,0,0,0,0
			c-7.1,0-14.2-0.3-21.3-1.1c-5.1-0.6-7.4-8.9-1.3-9.8c5.9-0.9,11.8-1.7,17.6-2.5c-1.2-0.9-2.2-2-3.1-3.2c-3.3-0.1-6.6-0.3-9.9-0.4
			c-3.7-0.2-5.9-4-4.5-7.2c-1.5,0-2.9,0-4.4,0c-2.2,0-3.6-1.2-4.3-2.7c-34.3,3.1-68.7,0.9-103.1,0.7c-0.3,0.2-0.7,0.3-1.1,0.4
			c0,1.1-0.4,2.3-1.3,3.4c-2.7,3-7.7,2.7-11.3,2.9c-6.3,0.3-12.5,0.4-18.8,0.2c-14.3-0.3-28.3-1.9-42.4-3.7c-6.7-0.8-13.3-1.5-20-2
			c-0.2,0.5-0.5,1-0.9,1.4c-5.9,6.6-13.9,8.6-22.4,9.3c-9.8,2.6-20,2.1-30,2.1c-5.6,0-6.8-8.5-1.3-9.8c5.9-1.4,11.9-1.6,17.9-1.8
			c-0.2-0.4-0.3-0.8-0.4-1.2c-9.8,0.5-19.6,1-29.5,1c-2,0-3.3-0.9-4.1-2.2c0.2,13.3-1.1,26.8-0.2,39.9c0.5,8.3,1.6,16.5,2.8,24.6
			c0.8,4.5,1.6,9,2,13.5c2.4,15.9,4.5,31.8,3.8,48c-0.2,4.1-2.8,6.5-5.7,7.2c0,4.7,0.1,9.5,0,14.2c-0.1,5.3,0.3,11.9-0.5,17.7
			c4.5-0.4,9-1.2,13.3-2.6c8.3-2.6,11.8,10.6,3.5,13.2c-5.7,1.8-11.5,2.7-17.4,3.2c0.1,2.5-0.9,4.9-3.1,6.6c0,0-0.1,0-0.1,0.1
			l185.8,158.7c194.5-25.9,347.6-158.3,374.3-325.1C646.4,189.3,642.9,189.5,639.4,189.7z"/>
		<g class="st2">
			<defs>
				<ellipse id="SVGID_3_" cx="347" cy="247.3" rx="254.9" ry="255.4"/>
			</defs>
			<clipPath id="SVGID_4_">
				<use xlink:href="#SVGID_3_"  style="overflow:visible;"/>
			</clipPath>
			<path class="st3" d="M213,216.9c-0.1,0.2-0.2,0.3-0.4,0.5c-1.1,3.1-2.4,6.1-3.9,8.9c-0.8,2.1-1.7,4.1-2.5,6.2
				c0.1,0.8,0.1,1.6,0.1,2.3c2.6-5.5,4.9-11,7.2-16.6c0.2-0.4,0.3-0.8,0.5-1.2C213.7,217,213.3,216.9,213,216.9z"/>
			<path class="st3" d="M426.4,169.8c-0.2,0.2-0.4,0.4-0.7,0.6c-1.2,1-2.8,1.3-4.4,0.9c-0.4-0.1-0.7-0.2-1.1-0.4
				c-0.1,0.1-0.3,0.2-0.4,0.2c-7.1,3.6-17.6,1.5-25.2,1.1c-10-0.5-20.1-0.5-30.1-0.5c-2.2,0-3.6-1.2-4.3-2.7
				c-34.3,3.1-68.7,0.9-103.1,0.7c-0.3,0.2-0.7,0.3-1.1,0.4c0,1.1-0.4,2.3-1.3,3.4c-2.7,3-7.7,2.7-11.3,2.9
				c-2.7,0.1-5.4,0.2-8.1,0.2c-0.7,3.5-1.4,7-2.1,10.4c0.7,3.1,1.4,6.1,2,9.2c0.8,4.2,1.6,8.4,2.4,12.6c1.9,4.9,3.5,9.7,3.8,15.1
				c0.3,5.9-8.1,6.4-9.8,1.3c-1.1-3.2-1.9-6.4-2.7-9.6c-0.9,0.5-2.1,0.6-3.5,0.1c-0.1,0-0.2-0.1-0.2-0.1c-0.6,1.7-1.2,3.3-1.9,5
				c-3.2,8-6.7,16-10.5,23.8c-3.5,7.1-7.6,13.8-9.8,21.5c-1.2,4.2-5.9,4.4-8.3,2c1.7,11.9-0.2,24.4,0.6,36.3
				c0.4,5.4,1,10.7,1.8,16.1c0.5,2.9,1,5.9,1.3,8.8c1.5,10.4,2.9,20.7,2.5,31.3c-0.1,2.7-1.8,4.2-3.7,4.7c0,3.1,0.1,6.2,0,9.3
				c-0.1,3.5,0.2,7.7-0.4,11.6c2.9-0.3,5.9-0.8,8.7-1.7c5.4-1.7,7.7,6.9,2.3,8.6c-3.7,1.2-7.5,1.8-11.4,2.1c0.1,1.6-0.6,3.2-2,4.3
				c0,0,0,0-0.1,0l121.3,103.6c129.4-17.2,230.8-106.7,245.2-218.5L426.4,169.8z"/>
		</g>
	</g>
</g>
<polygon class="st4" points="90,355.5 90.7,355.5 424.2,355.5 426.1,355.5 426.8,355.5 304.9,262.6 211.9,262.6 "/>
<polygon class="st5" points="90,355.5 90,169.6 211.9,262.6 "/>
<polygon class="st5" points="426.8,355.5 426.8,169.6 304.9,262.6 "/>
<path class="st6" d="M426.8,169.3H90.1c0,0.1-0.1,0.3-0.1,0.4l0,0l115.3,96.1l38.2,31.8c8.7,7.3,21.3,7.3,30,0l38.2-31.8l114.1-95.1
	l1.1-1.2C426.9,169.5,426.8,169.4,426.8,169.3z"/>
</svg>
