<?xml version="1.0" encoding="utf-8"?>
<!-- Generator: Adobe Illustrator 22.0.1, SVG Export Plug-In . SVG Version: 6.00 Build 0)  -->
<svg version="1.1" id="Layer_1" xmlns="http://www.w3.org/2000/svg" xmlns:xlink="http://www.w3.org/1999/xlink" x="0px" y="0px"
	 viewBox="0 0 53.5 210" style="enable-background:new 0 0 53.5 210;" xml:space="preserve">
<g id="XMLID_103_">
	<path id="XMLID_104_" d="M36.5,0h-20c-8.3,0-15,6.7-15,15v20c0,8.3,6.7,15,15,15h20c8.3,0,15-6.7,15-15V15C51.5,6.7,44.8,0,36.5,0z
		"/>
	<path id="XMLID_105_" d="M36.5,80h-20c-8.3,0-15,6.7-15,15v20c0,8.3,6.7,15,15,15h20c8.3,0,15-6.7,15-15V95
		C51.5,86.7,44.8,80,36.5,80z"/>
	<path id="XMLID_106_" d="M36.5,160h-20c-8.3,0-15,6.7-15,15v20c0,8.3,6.7,15,15,15h20c8.3,0,15-6.7,15-15v-20
		C51.5,166.7,44.8,160,36.5,160z"/>
</g>
</svg>
