<?xml version="1.0" encoding="utf-8"?>
<!-- Generator: Adobe Illustrator 22.0.1, SVG Export Plug-In . SVG Version: 6.00 Build 0)  -->
<svg version="1.1" id="Layer_1" xmlns="http://www.w3.org/2000/svg" xmlns:xlink="http://www.w3.org/1999/xlink" x="0px" y="0px"
	 viewBox="0 0 489.6 489.6" style="enable-background:new 0 0 489.6 489.6;" xml:space="preserve">
<path d="M244.8,489.6c135,0,244.8-109.8,244.8-244.8S379.8,0,244.8,0S0,109.8,0,244.8S109.8,489.6,244.8,489.6z M244.8,19.8
	c124.1,0,225,100.9,225,225s-100.9,225-225,225s-225-100.9-225-225S120.7,19.8,244.8,19.8z"/>
<path d="M185.6,371.1c3,3,7,4.5,10.9,4.5s7.9-1.6,10.9-4.5l115.4-115.4c3-3,4.5-6.8,4.5-10.9s-1.6-7.9-4.5-10.9L207.3,118.5
	c-6.1-6.1-15.7-6.1-21.7,0s-6.1,15.7,0,21.7l104.5,104.5L185.6,349.3C179.7,355.4,179.7,365.2,185.6,371.1z"/>
</svg>
