<?xml version="1.0" encoding="utf-8"?>
<!-- Generator: Adobe Illustrator 22.0.1, SVG Export Plug-In . SVG Version: 6.00 Build 0)  -->
<svg version="1.1" id="Capa_1" xmlns="http://www.w3.org/2000/svg" xmlns:xlink="http://www.w3.org/1999/xlink" x="0px" y="0px"
	 viewBox="0 0 512 512" style="enable-background:new 0 0 512 512;" xml:space="preserve">
<style type="text/css">
	.st0{fill:#734A91;}
	.st1{fill:#54316E;}
	.st2{fill:#C4ACE2;}
	.st3{fill:#B798D8;}
	.st4{fill:#FFFFFF;}
	.st5{fill:#F4F2F4;}
</style>
<circle class="st0" cx="256" cy="256" r="256"/>
<path class="st1" d="M507.6,303.2L293,88.5c-21.4-24.6-62.1-22.1-79.4,7.7L80.8,324.5c-12.4,21.3-6.7,46.2,9.2,60.9l123,122.9
	c14,2.4,28.3,3.6,43,3.6C381.2,512,485.5,422,507.6,303.2z"/>
<path class="st2" d="M213.5,96.2L80.8,324.5c-19,32.8,4.6,73.8,42.5,73.8h265.6c37.9,0,61.5-41.1,42.5-73.8L298.5,96.2
	C279.5,63.7,232.5,63.7,213.5,96.2z"/>
<path class="st3" d="M388.8,398.4H256V71.8c16.5,0,33,8.2,42.5,24.4l132.8,228.3C450.3,357.3,426.7,398.4,388.8,398.4z"/>
<path class="st4" d="M386.4,374H125.6c-9.7,0-18.4-5-23.3-13.5c-4.9-8.4-4.8-18.5,0.1-26.9l130.4-224.3C237.6,101,246.3,96,256,96
	c9.7,0,18.4,5,23.2,13.4l130.4,224.3c4.9,8.4,4.9,18.5,0.1,26.9C404.9,369,396.2,374,386.4,374z M256,107.8
	c-5.4,0-10.3,2.8-13.1,7.5L112.5,339.6c-2.8,4.7-2.8,10.4,0,15.1c2.7,4.7,7.6,7.6,13.1,7.6h260.9c5.5,0,10.4-2.8,13.1-7.6
	c2.7-4.7,2.7-10.4,0-15.1L269.1,115.3C266.3,110.6,261.4,107.8,256,107.8z"/>
<path class="st5" d="M409.7,333.6L279.2,109.4C274.4,101,265.7,96,256,96v11.8c5.4,0,10.3,2.8,13.1,7.5l130.4,224.3
	c2.8,4.7,2.8,10.4,0,15.1c-2.7,4.7-7.6,7.6-13.1,7.6H256V374h130.4c9.7,0,18.4-5,23.3-13.5C414.6,352.1,414.6,342,409.7,333.6z"/>
<path class="st4" d="M241.1,273.5V173.3h29.8v100.2L241.1,273.5L241.1,273.5z M241.1,333v-33.6h29.8V333H241.1z"/>
<path class="st5" d="M256,299.4V333h14.9v-33.6H256z M256,173.3v100.2h14.9V173.3H256z"/>
</svg>
