<?xml version="1.0" encoding="utf-8"?>
<!-- Generator: Adobe Illustrator 23.0.0, SVG Export Plug-In . SVG Version: 6.00 Build 0)  -->
<svg version="1.1" id="Capa_1" xmlns="http://www.w3.org/2000/svg" xmlns:xlink="http://www.w3.org/1999/xlink" x="0px" y="0px"
	 viewBox="0 0 512 512" style="enable-background:new 0 0 512 512;" xml:space="preserve">
<path d="M443.5,159.6H72.5c-17.4,0-31.5-14.1-31.5-31.5v0c0-17.4,14.1-31.5,31.5-31.5h370.9c17.4,0,31.5,14.1,31.5,31.5v0
	C475,145.5,460.9,159.6,443.5,159.6z"/>
<path d="M321.5,287.5H72.5C55.1,287.5,41,273.4,41,256v0c0-17.4,14.1-31.5,31.5-31.5h248.9c17.4,0,31.5,14.1,31.5,31.5v0
	C353,273.4,338.9,287.5,321.5,287.5z"/>
<path d="M228.8,415.5H72.5c-17.4,0-31.5-14.1-31.5-31.5v0c0-17.4,14.1-31.5,31.5-31.5h156.2c17.4,0,31.5,14.1,31.5,31.5v0
	C260.3,401.4,246.2,415.5,228.8,415.5z"/>
</svg>
