<?xml version="1.0" encoding="utf-8"?>
<!-- Generator: Adobe Illustrator 22.0.1, SVG Export Plug-In . SVG Version: 6.00 Build 0)  -->
<svg version="1.1" id="Layer_1" xmlns="http://www.w3.org/2000/svg" xmlns:xlink="http://www.w3.org/1999/xlink" x="0px" y="0px"
	 viewBox="0 0 512 512" style="enable-background:new 0 0 512 512;" xml:space="preserve">
<style type="text/css">
	.st0{fill:#734A91;}
	.st1{fill:#54316E;}
	.st2{fill:#C473F4;}
	.st3{fill:#F7F7F7;}
	.st4{fill:#9160C6;}
	.st5{fill:#A593AA;}
	.st6{fill:#EBD1F2;}
	.st7{fill:#FFFFFF;}
	.st8{fill:#9E80AF;}
	.st9{fill:#826B91;}
</style>
<circle class="st0" cx="256" cy="256" r="256"/>
<path class="st1" d="M511.2,278.4C499.8,409.3,390,512,256.2,512c-3.1,0-6.3,0-9.4-0.2L125.6,390.7l219.7-278.1L511.2,278.4z"/>
<path class="st2" d="M137.1,107.1c68.9,0,125.3,0,194.7,0c10.5,0,19.1,8.6,19.1,19.1v114.1v27v95.9v8.2c0,12.9-10.4,23.2-23.2,23.2
	H137.1c-10.6,0-19.1-8.6-19.1-19.1V126.2C117.9,115.6,126.5,107.1,137.1,107.1z"/>
<rect x="130.2" y="118.2" class="st3" width="208.2" height="265.1"/>
<g>
	<circle class="st4" cx="369.7" cy="332.5" r="65.6"/>
	<path class="st4" d="M147.2,140h26.9v31h-26.9V140z M147.2,306.4h26.9v31h-26.9V306.4z M147.2,250.9h26.9v31h-26.9V250.9z
		 M147.2,195.3h26.9v31h-26.9V195.3z"/>
</g>
<path class="st5" d="M186.8,151.3h91.8v8.1h-91.8V151.3L186.8,151.3z M186.8,317.8h91.8v8.1h-91.8V317.8L186.8,317.8z M186.8,262.3
	h91.8v8.1h-91.8V262.3L186.8,262.3z M186.8,206.7h91.8v8.1h-91.8V206.7L186.8,206.7z"/>
<circle class="st6" cx="369.7" cy="332.5" r="55.4"/>
<path class="st7" d="M322.9,334.3l17.6-2l19.1,17c0,0,9.2-38.6,52.4-47.6c-21.1,11.4-34.1,34-42.9,65.1c-2.1,7.9-7.9,5.8-9.7,3.5
	c-3-3.8-22.7-26.4-36.6-36.1L322.9,334.3L322.9,334.3z"/>
<path class="st8" d="M215.9,90.8h3c-0.8-1.3-1.3-3-1.3-4.6v-9.9c0-5.4,4.9-9.9,11-9.9H240c6.1,0,11,4.5,11,9.9v9.9
	c0,1.6-0.5,3.1-1.3,4.6h3c20.3,0,36.8,15,36.8,33.1l0,0H179l0,0c0-18.3,16.6-33.1,36.8-33.1L215.9,90.8L215.9,90.8z"/>
<path class="st9" d="M234.4,66.4h5.8c6.1,0,11,4.5,11,9.9v9.9c0,1.6-0.5,3.1-1.3,4.6h3c20.3,0,36.8,15,36.8,33.1l0,0h-55.2
	L234.4,66.4L234.4,66.4z"/>
</svg>
