<?xml version="1.0" encoding="utf-8"?>
<!-- Generator: Adobe Illustrator 22.0.1, SVG Export Plug-In . SVG Version: 6.00 Build 0)  -->
<svg version="1.1" id="Capa_1" xmlns="http://www.w3.org/2000/svg" xmlns:xlink="http://www.w3.org/1999/xlink" x="0px" y="0px"
	 viewBox="0 0 512 512" style="enable-background:new 0 0 512 512;" xml:space="preserve">
<style type="text/css">
	.st0{fill:#734A91;}
	.st1{fill:#54316E;}
	.st2{fill:#B798D8;}
	.st3{fill:#9D74C1;}
	.st4{fill:#E2DCE2;}
	.st5{fill:#D3C7D3;}
	.st6{fill:#F7F7F7;}
</style>
<g>
	<g>
		<g>
			<g>
				<g>
					<g>
						<g>
							<circle class="st0" cx="256" cy="256" r="256"/>
						</g>
					</g>
				</g>
			</g>
		</g>
	</g>
</g>
<path class="st1" d="M512,256c0-9.8-0.5-19.5-1.6-29l-79.5-79.5L82.5,366l144.3,144.3c9.6,1.1,19.3,1.6,29.2,1.6
	C397.4,512,512,397.4,512,256z"/>
<g>
	<path class="st2" d="M402.6,377.7H109.4c-20.4,0-36.9-16.5-36.9-36.9V171.2c0-20.4,16.5-36.9,36.9-36.9h293.2
		c20.4,0,36.9,16.5,36.9,36.9v169.5C439.5,361.1,423,377.7,402.6,377.7z"/>
</g>
<g>
	<path class="st3" d="M402.6,134.3H255.8v243.3h146.8c20.4,0,36.9-16.5,36.9-36.9V171.2C439.5,150.9,423,134.3,402.6,134.3
		L402.6,134.3z"/>
</g>
<g>
	<path class="st4" d="M72.5,189.7h367v55.7h-367L72.5,189.7z"/>
</g>
<g>
	<path class="st5" d="M255.8,189.7h183.7v55.7H255.8V189.7z"/>
</g>
<g>
	<circle class="st6" cx="339.6" cy="325" r="26.9"/>
</g>
<g>
	<circle class="st1" cx="376.9" cy="325" r="26.9"/>
</g>
</svg>
