<?xml version="1.0" encoding="utf-8"?>
<!-- Generator: Adobe Illustrator 22.0.1, SVG Export Plug-In . SVG Version: 6.00 Build 0)  -->
<svg version="1.1" id="Capa_1" xmlns="http://www.w3.org/2000/svg" xmlns:xlink="http://www.w3.org/1999/xlink" x="0px" y="0px"
	 viewBox="0 0 50 60" style="enable-background:new 0 0 50 60;" xml:space="preserve">
<path d="M48.3,37.2c-0.7,0-1.3,0.7-1.3,1.5v13.6c0,2.5-1.7,4.6-3.8,4.6H7.4c-2.1,0-3.8-2.1-3.8-4.6V12.5c0-2.5,1.7-4.6,3.8-4.6h11.3
	c0.7,0,1.3-0.7,1.3-1.5c0-0.8-0.6-1.5-1.3-1.5H7.4C3.9,4.8,1,8.3,1,12.5v39.8c0,4.2,2.9,7.6,6.4,7.6h35.8c3.5,0,6.4-3.4,6.4-7.6
	V38.7C49.6,37.8,49,37.2,48.3,37.2z"/>
<path d="M45.3,1.6c-2.9-2.3-7.1-1.8-9.4,1.1L12.7,32.3c-0.2,0.2-0.3,0.4-0.3,0.7l-1.9,12.9c-0.1,0.5,0.1,1.1,0.6,1.4
	c0.4,0.3,1,0.4,1.5,0.2l12.1-5c0.2-0.1,0.4-0.3,0.6-0.5l23.2-29.6c2.3-2.9,1.8-7.1-1.1-9.4L45.3,1.6z"/>
<path fill="#FFFFFF" d="M14.8,33.7L35.3,7.4l8.5,6.6L23.2,40.3L14.8,33.7z M14.3,36l7.1,5.6l-8.5,3.5L14.3,36z M46.7,10.6l-1.5,1.9
	l-8.7-6.8l1.5-1.9c1.4-1.8,4-2.1,5.8-0.7L46,4.8C47.8,6.2,48.1,8.8,46.7,10.6z"/>
</svg>
