<?xml version="1.0" encoding="utf-8"?>
<!-- Generator: Adobe Illustrator 22.0.1, SVG Export Plug-In . SVG Version: 6.00 Build 0)  -->
<svg version="1.1" id="Capa_1" xmlns="http://www.w3.org/2000/svg" xmlns:xlink="http://www.w3.org/1999/xlink" x="0px" y="0px"
	 viewBox="0 0 512 512" style="enable-background:new 0 0 512 512;" xml:space="preserve">
<style type="text/css">
	.st0{fill:#734A91;}
	.st1{fill:#583F6A;}
	.st2{fill:#F4EDF4;}
	.st3{fill:#C3ADC9;}
	.st4{fill:#3D353F;}
	.st5{fill:#2C252D;}
	.st6{fill:#333940;}
	.st7{fill:#FFFFFF;}
</style>
<g>
	<g>
		<g>
			<g>
				<g>
					<g>
						<g>
							<g>
								<circle class="st0" cx="256" cy="256" r="256"/>
							</g>
						</g>
					</g>
				</g>
			</g>
		</g>
	</g>
</g>
<path class="st1" d="M386.2,182.3l-3.1,10.6l-77.7-77.7L71.7,356.9l153.2,153.2c10.2,1.2,20.6,1.9,31.1,1.9
	c125.1,0,229.2-89.7,251.6-208.3L386.2,182.3z"/>
<g>
	<path class="st2" d="M386.2,182.3h-87.4v116.3h-227v58.3h382.9v-99.4L386.2,182.3z"/>
</g>
<g>
	<path class="st3" d="M454.6,257.5l-68.5-75.1h-87.4v116.3h-42.6v58.3h198.5V257.5z"/>
</g>
<g>
	<circle class="st4" cx="153.3" cy="358.3" r="38.8"/>
</g>
<g>
	<circle class="st5" cx="372.1" cy="358.3" r="38.8"/>
</g>
<g>
	<path class="st6" d="M71.7,115.2h233.7v190.2H71.7L71.7,115.2z"/>
</g>
<path class="st4" d="M71.7,115.2h119.4v190.2H71.7V115.2z"/>
<path class="st5" d="M191.1,115.2h114.3v190.2H191.1V115.2z"/>
<g>
	<path class="st7" d="M374.1,205.7h-47.5v75.6h91.2v-26.1L374.1,205.7z"/>
</g>
</svg>
