<svg height="339pt" viewBox="0 0 339.89391 339" width="339pt" xmlns="http://www.w3.org/2000/svg">
    <path d="m123.875 273.050781-1.382812 24 160.453124-160.457031-79.199218-79.199219-160.457032 160.457031 24.050782-1.417968 119.4375-119.429688c3.140625-3.03125 8.128906-2.988281 11.214844.097656 3.085937 3.085938 3.128906 8.074219.097656 11.214844l-119.472656 119.46875-2.117188 36.058594 36.054688-2.121094 119.472656-119.472656c2.007812-2.078125 4.980468-2.914062 7.777344-2.179688 2.796874.730469 4.984374 2.914063 5.714843 5.710938.734375 2.796875-.101562 5.773438-2.179687 7.78125zm0 0"/>
    <path d="m232.03125 29.109375 5.65625-5.65625 79.203125 79.199219-5.660156 5.660156zm0 0"/>
    <path d="m215.058594 46.085938 5.65625-5.65625 79.199218 79.203124-5.65625 5.65625zm0 0"/>
    <path d="m328.195312 34.769531-22.625-22.621093c-15.632812-15.601563-40.941406-15.601563-56.574218 0l79.199218 79.199218c15.597657-15.632812 15.597657-40.945312 0-56.578125zm0 0"/>
    <path d="m68.449219 280.347656c-2.28125.132813-4.507813-.714844-6.125-2.332031-1.617188-1.613281-2.464844-3.84375-2.328125-6.125l2.300781-39.097656-33.167969 1.945312-20.359375 85.511719-6.328125 6.328125c-2.078125 2.007813-2.914062 4.984375-2.179687 7.78125.730469 2.796875 2.914062 4.980469 5.710937 5.710937 2.796875.734376 5.773438-.101562 7.78125-2.179687l6.328125-6.328125 85.519531-20.359375 1.945313-33.167969zm0 0"/>
</svg>
