<?xml version="1.0" encoding="utf-8"?>
<!-- Generator: Adobe Illustrator 22.0.1, SVG Export Plug-In . SVG Version: 6.00 Build 0)  -->
<svg version="1.1" id="Layer_1" xmlns="http://www.w3.org/2000/svg" xmlns:xlink="http://www.w3.org/1999/xlink" x="0px" y="0px"
	 viewBox="0 0 512 512" style="enable-background:new 0 0 512 512;" xml:space="preserve">
<style type="text/css">
	.st0{fill:#734A91;}
	.st1{fill:#54316E;}
	.st2{fill:#C582F4;}
	.st3{fill:#B162E8;}
	.st4{fill:#EBD1F2;}
	.st5{fill:#DBB3E8;}
	.st6{fill:#D09AF7;}
	.st7{fill:#C473F4;}
</style>
<circle class="st0" cx="256" cy="256" r="256"/>
<path class="st1" d="M278.6,511C404.4,500,504,398.1,511.5,271.4L337.7,97.6l-45.8,13.2L267.2,86l-12.4,16.2L236,126.1l-37.7,26.6
	l32.9,32.9l-23.6,38.1l32.5,32.5l-0.7,0.3l62.2,61.2l-5.7,5.7l-85-85l-6.8,12.5l-26.2-26.2l-23.4,32.8l-59.7,50.3l35.7,35.7l-7,12.4
	L278.6,511z"/>
<path class="st2" d="M228.4,286.3c-1.4-9.4-4.9-18.1-10.1-25.6l7.5-7.5l-15.1-15.1l-7.2,7.2c-7.5-5.4-16.3-9.2-25.8-10.9v-10h-21.3
	v10c-9.5,1.6-18.3,5.4-25.8,10.9l-7.2-7.2l-15.1,15.1l7.5,7.5c-5.1,7.5-8.6,16.2-10.1,25.6H94.6v21.3h11.5c1.8,9,5.5,17.3,10.7,24.5
	l-8.5,8.5l15.1,15.1l8.7-8.7c7.2,4.9,15.4,8.3,24.3,9.9v12.5h21.3v-12.5c8.9-1.5,17.1-5,24.3-9.9l8.7,8.7l15.1-15.1l-8.5-8.5
	c5.2-7.2,8.9-15.5,10.7-24.5h11.5v-21.3H228.4z M167,326.8c-17.1,0-31-13.9-31-31s13.9-31,31-31s31,13.9,31,31
	S184.2,326.8,167,326.8z"/>
<path class="st3" d="M239.4,307.7v-21.3h-11.1c-1.4-9.4-4.9-18.1-10.1-25.6l7.5-7.5l-15.1-15.1l-7.2,7.2
	c-7.5-5.4-16.3-9.2-25.8-10.9v-10h-11.3v40.2c0.2,0,0.4,0,0.7,0c17.1,0,31,13.9,31,31s-13.9,31-31,31c-0.2,0-0.4,0-0.7,0v42.7h11.3
	v-12.5c8.9-1.5,17.1-5,24.3-9.9l8.7,8.7l15.1-15.1l-8.5-8.5c5.2-7.2,8.9-15.5,10.7-24.5L239.4,307.7z"/>
<path class="st4" d="M360.3,341.5c-1.2-7.6-4-14.6-8.2-20.7l6-6L346,302.6l-5.9,5.9c-6.1-4.4-13.2-7.5-20.9-8.8v-8.1h-17.3v8.1
	c-7.7,1.3-14.8,4.4-20.9,8.8l-5.9-5.9l-12.2,12.2l6,6c-4.1,6.1-7,13.1-8.2,20.7h-8.9v17.3h9.3c1.4,7.3,4.4,14,8.6,19.8l-6.9,6.9
	l12.2,12.2l7-7c5.8,4,12.5,6.7,19.7,8v10.1h17.3v-10.1c7.2-1.2,13.9-4,19.7-8l7,7l12.2-12.2l-6.9-6.9c4.2-5.8,7.2-12.5,8.6-19.8h9.3
	v-17.3H360.3z M310.7,375.9c-14.8,0-26.7-12-26.7-26.7c0-14.8,12-26.7,26.7-26.7s26.7,12,26.7,26.7
	C337.4,363.9,325.4,375.9,310.7,375.9z"/>
<path class="st5" d="M360.3,341.5c-1.2-7.6-4-14.6-8.2-20.7l6-6L346,302.6l-5.9,5.9c-6.1-4.4-13.2-7.5-20.9-8.8v-8.1h-8.7v30.9
	c0,0,0.1,0,0.1,0c14.8,0,26.7,12,26.7,26.7c0,14.8-12,26.7-26.7,26.7c0,0-0.1,0-0.1,0v32.9h8.7v-10.1c7.2-1.2,13.9-4,19.7-8l7,7
	l12.2-12.2l-6.9-6.9c4.2-5.8,7.2-12.5,8.6-19.8h9.3v-17.3H360.3z"/>
<path class="st6" d="M365.8,195.6c3.1-11.7,3.4-23.7,1.2-35l12.5-4.9l-10-25.3l-12.2,4.8c-6-10.2-14.4-19.1-24.6-25.8l5.1-11.7
	l-25-10.8l-5.1,11.7c-12-2.9-24.2-2.9-35.7-0.3L267.2,86l-25.3,10l4.9,12.5c-9.8,6.2-18.3,14.6-24.8,24.8l-12.9-5.6l-10.8,25
	l13.5,5.8c-2.5,11.5-2.4,23.1,0.1,34.1l-14.3,5.6l10,25.3l14.6-5.8c5.9,9.4,13.8,17.6,23.5,23.9l-6.4,14.7l25,10.8l6.4-14.7
	c11.2,2.7,22.6,2.9,33.5,0.8l5.8,14.6l25.3-10l-5.6-14.3c9.7-5.8,18.3-13.6,24.9-23.3l13.5,5.8l10.8-25L365.8,195.6z M268,224.2
	c-26.9-11.7-39.3-43-27.6-69.9s43-39.3,69.9-27.6c26.9,11.7,39.3,43,27.6,69.9C326.2,223.5,294.9,235.9,268,224.2z"/>
<path class="st7" d="M366.9,160.6l12.5-4.9l-10-25.3l-12.2,4.8c-6-10.2-14.4-19.1-24.6-25.8l5.1-11.7l-25-10.8l-5.1,11.7
	c-6.1-1.5-12.3-2.2-18.3-2.2v26.1c7,0,14.1,1.4,20.9,4.4c26.9,11.7,39.3,43,27.6,69.9c-8.7,20-28.1,31.9-48.5,32v26.1
	c5,0,9.9-0.5,14.7-1.4l5.8,14.6l25.3-10l-5.6-14.3c9.7-5.8,18.3-13.6,24.9-23.3l13.5,5.8l10.8-25l-12.9-5.6
	C368.9,183.9,369.1,172,366.9,160.6z"/>
</svg>
