<?xml version="1.0" encoding="utf-8"?>
<!-- Generator: Adobe Illustrator 22.0.1, SVG Export Plug-In . SVG Version: 6.00 Build 0)  -->
<svg version="1.1" id="Capa_1" xmlns="http://www.w3.org/2000/svg" xmlns:xlink="http://www.w3.org/1999/xlink" x="0px" y="0px"
	 viewBox="0 0 50 60" style="enable-background:new 0 0 50 60;" xml:space="preserve">
<style type="text/css">
	.st0{stroke:#020202;stroke-miterlimit:10;}
</style>
<path d="M42.7,17c-0.7,0-1.2,0.7-1.2,1.5v39.3H2.8V8.6h30.1c0.7,0,1.2-0.7,1.2-1.5s-0.6-1.5-1.2-1.5H1.5c-0.7,0-1.2,0.7-1.2,1.5
	v51.4c0,0.9,0.6,1.5,1.2,1.5h41.1c0.7,0,1.2-0.7,1.2-1.5V18.6C43.9,17.7,43.4,17,42.7,17z"/>
<path class="st0" d="M49.7,0.4c-0.4-0.6-1.1-0.6-1.6,0L18.8,37.9l-7.3-9.3c-0.4-0.6-1.1-0.6-1.6,0c-0.4,0.6-0.4,1.4,0,2l8,10.3
	c0.2,0.3,0.5,0.4,0.8,0.4s0.6-0.1,0.8-0.4L49.7,2.4C50.1,1.9,50.1,1,49.7,0.4z"/>
</svg>
