<?xml version="1.0" encoding="utf-8"?>
<!-- Generator: Adobe Illustrator 22.0.1, SVG Export Plug-In . SVG Version: 6.00 Build 0)  -->
<svg version="1.1" id="Layer_1" xmlns="http://www.w3.org/2000/svg" xmlns:xlink="http://www.w3.org/1999/xlink" x="0px" y="0px"
	 viewBox="0 0 512 512" style="enable-background:new 0 0 512 512;" xml:space="preserve">
<style type="text/css">
	.st0{fill:#734A91;}
	.st1{clip-path:url(#SVGID_2_);fill:#54316E;}
	.st2{fill:#9878C1;}
	.st3{fill:#F4EDF4;}
	.st4{fill:#4C434F;}
	.st5{fill:#C4ACE2;}
	.st6{fill:#B798D8;}
</style>
<g>
	<circle class="st0" cx="256.5" cy="256.1" r="255.4"/>
</g>
<g>
	<g>
		<defs>
			<circle id="SVGID_1_" cx="257.9" cy="257.5" r="254"/>
		</defs>
		<clipPath id="SVGID_2_">
			<use xlink:href="#SVGID_1_"  style="overflow:visible;"/>
		</clipPath>
		<path class="st1" d="M327.6,157c-1.5,5.1-4.1,9.9-7.6,13.5c-5.5,5.7-13.4,8.7-19.9,13c-1.1,0.7-2.2,1.4-3.1,2.2
			c-4.3,4.5-9,8.6-14.3,11.9c-0.3,0.2-0.5,0.3-0.8,0.4c-3.7,3.4-7.1,7-10.3,10.8c0.4,1.1,0.3,2.2-0.5,3.4c-3,4.1-6,8.2-9.3,12
			c-3,3.5-6.6,8.4-11.7,7.5c-1.3-0.2-2.3-1.2-2.8-2.4c-1.7,2.1-3.8,3.7-6.2,3.6c-4-0.1-6.4-3.3-8.1-6.6c-2.8-0.1-4.9-2.8-4.2-5.7
			c0.2-0.7,0.4-1.4,0.7-2.2c0,0,0-0.1-0.1-0.1c-1.1,0.4-2.2,0.6-3.4,0.8c-4,0.7-6.7-2.9-5-6.6c0.3-0.6,0.6-1.3,1.1-1.9
			c-0.3-0.1-0.5-0.1-0.8-0.1c-1.2,0-2.1-0.4-2.8-1c-0.5,0.4-1.1,0.6-1.6,1c-5,4.7-10.9,9.4-17.5,10.6c-3.3,0.5-6.4-2-5.6-5.6
			c1.2-4.7,3.6-8.9,6.6-12.7c-0.9-0.4-1.6-1.2-2.1-2c-1.9-0.3-3.6-1.8-4-4.3c-0.4-3-0.3-5.9,0.2-9c-0.2-0.4-0.4-0.6-0.4-1.1
			c-0.1-0.4-0.3-0.9-0.4-1.3c-2.2,0.1-4.6-1.5-4.8-4.4c-0.1-1.3,0-2.5,0.1-3.8c-2.1,1.2-5,0.3-6.3-2c-1.1,1.2-2.7,1.4-4.1,1.1
			l-17.3,54.3c0.1,0,0.3-0.1,0.4-0.1c2.5-3.6,8.1-2.1,8.3,2.4c0.3,4.9-0.5,9.8-1.7,14.6c-0.1,0.4-0.1,0.6-0.2,1
			c0.4-0.8,0.8-1.7,1.3-2.6c2.1-4.9,4.1-10,6.6-14.6c2.8-5.2,10-0.6,7.7,4.5c-2.5,5.9-5.2,11.7-8,17.5c-1.7,4-3.6,7.8-5.7,11.5
			c-0.3,0.5-0.5,1.1-0.8,1.5c3.1-5.4,6.3-10.8,9.8-15.9c2.7-4,10.1-1.5,8.2,3.5c-1.9,5-4.2,9.9-6.6,14.6c2.2,1,3.5,3.4,2.1,6.2
			c-0.3,0.4-0.5,1-0.8,1.4c1.3,0.4,2.4,1.3,3.1,2.4c1,0.2,1.8,0.6,2.5,1.3c0.4-0.4,0.9-0.9,1.3-1.3c3.6-3.4,10,1.1,7.1,5.5
			c-1.1,1.5-2.2,3.1-3.2,4.6c-0.1,0.4-0.2,0.7-0.4,1.1c-0.5,1.3-1.3,2.5-2,3.7c0.1,1.1-0.3,2.2-1.2,3.1c-1.2,1.3-2.4,2.4-3.7,3.6
			c-5.7,6.6-13.1,12-20.5,17c-4,3.4-7.9,7-11.8,10.6c-4.3,4-8.4,8.4-13,12.1c-4.6,5.1-9.2,10.3-15.5,12.9c-0.7,0.3-1.4,0.3-2.1,0.2
			l-15.7,39.3l132.4,122.7c24.9,5.9,12.3,0.7,39.3,0.7c121.2,0,214.7-80.5,259.1-170.5L327.6,157z"/>
	</g>
</g>
<g>
	<g>
		<path class="st2" d="M311.4,139.6L265.6,97c-5.4-5-13.8-5-19.2,0l-45.8,42.6H311.4z"/>
	</g>
	<polygon class="st3" points="374.6,139.6 137.4,139.6 137.4,250.8 214.8,309.7 297.2,309.7 374.6,250.8 	"/>
	<path class="st4" d="M271.5,186h-30.9c-2.9,0-5.2-2.3-5.2-5.2c0-2.9,2.3-5.2,5.2-5.2h30.9c2.9,0,5.2,2.3,5.2,5.2
		C276.6,183.7,274.3,186,271.5,186z"/>
	<path class="st4" d="M317.9,268.5h-30.9c-2.9,0-5.2-2.3-5.2-5.2c0-2.9,2.3-5.2,5.2-5.2h30.9c2.9,0,5.2,2.3,5.2,5.2
		C323,266.2,320.7,268.5,317.9,268.5z"/>
	<path class="st4" d="M219.9,227.2h-25.8c-2.9,0-5.2-2.3-5.2-5.2s2.3-5.2,5.2-5.2h25.8c2.9,0,5.2,2.3,5.2,5.2
		S222.8,227.2,219.9,227.2z"/>
	<path class="st4" d="M297.2,227.2h-36.1c-2.9,0-5.2-2.3-5.2-5.2s2.3-5.2,5.2-5.2h36.1c2.9,0,5.2,2.3,5.2,5.2
		S300.1,227.2,297.2,227.2z"/>
	<path class="st4" d="M240.5,227.2c-1.3,0-2.7-0.6-3.7-1.5c-0.9-1-1.5-2.3-1.5-3.7c0-1.4,0.6-2.7,1.5-3.7c1.9-1.9,5.4-1.9,7.3,0
		c0.9,1,1.5,2.3,1.5,3.7c0,1.3-0.6,2.7-1.5,3.7C243.2,226.7,241.9,227.2,240.5,227.2z"/>
	<path class="st4" d="M266.3,268.5h-51.6c-2.9,0-5.2-2.3-5.2-5.2c0-2.9,2.3-5.2,5.2-5.2h51.6c2.9,0,5.2,2.3,5.2,5.2
		C271.5,266.2,269.2,268.5,266.3,268.5z"/>
	<path class="st4" d="M194.1,268.5c-1.3,0-2.7-0.6-3.7-1.5c-1-1-1.5-2.3-1.5-3.7c0-1.3,0.5-2.7,1.5-3.7c1.9-1.9,5.4-1.9,7.3,0
		c0.9,1,1.5,2.3,1.5,3.7c0,1.3-0.6,2.7-1.5,3.7C196.8,267.9,195.5,268.5,194.1,268.5z"/>
	<path class="st4" d="M317.9,227.2c-1.3,0-2.7-0.6-3.7-1.5c-1-1-1.5-2.3-1.5-3.7c0-1.4,0.6-2.7,1.5-3.7c1.9-1.9,5.4-1.9,7.3,0
		c0.9,1,1.5,2.3,1.5,3.7c0,1.3-0.6,2.7-1.5,3.7C320.5,226.7,319.2,227.2,317.9,227.2z"/>
	<polygon class="st2" points="138,251.2 137.4,250.8 137.4,198.4 106.5,227.2 106.5,227.2 	"/>
	<polygon class="st2" points="374.6,198.4 374.6,250.8 373.5,251.6 373.5,251.6 405.5,227.2 405.5,227.2 	"/>
	<polygon class="st5" points="106.5,392.2 107.2,392.2 403.1,392.2 404.8,392.2 405.5,392.2 297.2,309.7 214.8,309.7 	"/>
	<polygon class="st6" points="106.5,392.2 106.5,227.2 214.8,309.7 	"/>
	<polygon class="st6" points="405.5,392.2 405.5,227.2 297.2,309.7 	"/>
</g>
</svg>
