<?xml version="1.0" encoding="utf-8"?>
<!-- Generator: Adobe Illustrator 22.0.1, SVG Export Plug-In . SVG Version: 6.00 Build 0)  -->
<svg version="1.1" id="Слой_1" xmlns="http://www.w3.org/2000/svg" xmlns:xlink="http://www.w3.org/1999/xlink" x="0px" y="0px"
	 viewBox="0 0 512 512" style="enable-background:new 0 0 512 512;" xml:space="preserve">
<style type="text/css">
	.st0{fill:#734A91;}
	.st1{fill:#54316E;}
	.st2{fill:#F4EDF4;}
	.st3{fill:#C3ADC9;}
	.st4{fill:#9D74C1;}
	.st5{fill:#FFFFFF;}
</style>
<circle class="st0" cx="257.4" cy="257.3" r="256"/>
<path class="st1" d="M512.6,279.7c-11.4,130.9-121.2,233.6-255,233.6c-3.1,0-6.3,0-9.4-0.2L127,392l219.7-278.1L512.6,279.7z"/>
<path id="Shape" class="st2" d="M386.1,274.8v99.3c0,11-8.9,19.9-19.9,19.9H137.9c-11,0-19.9-8.9-19.9-19.9V195.4h158.9L386.1,274.8
	z"/>
<path id="Shape_1_" class="st3" d="M280.3,165.6c-2.3,6.4-3.4,13.1-3.4,19.9v19.9H118v-19.9c0-11,8.9-19.9,19.9-19.9H280.3z"/>
<circle id="Oval" class="st2" cx="137.9" cy="185.4" r="5"/>
<circle id="Oval_1_" class="st2" cx="157.7" cy="185.4" r="5"/>
<circle id="Oval_2_" class="st2" cx="177.6" cy="185.4" r="5"/>
<g>
	<path id="Shape_2_" class="st0" d="M152.8,334.4h-9.9c-2.7,0-5-2.2-5-5s2.2-5,5-5h9.9c2.7,0,5,2.2,5,5S155.5,334.4,152.8,334.4z"/>
	<path id="Shape_3_" class="st0" d="M247.1,334.4h-74.5c-2.7,0-5-2.2-5-5s2.2-5,5-5h74.5c2.7,0,5,2.2,5,5S249.8,334.4,247.1,334.4z"
		/>
	<path id="Shape_4_" class="st0" d="M152.8,374.1h-9.9c-2.7,0-5-2.2-5-5c0-2.7,2.2-5,5-5h9.9c2.7,0,5,2.2,5,5
		C157.7,371.9,155.5,374.1,152.8,374.1z"/>
	<path id="Shape_5_" class="st0" d="M247.1,374.1h-74.5c-2.7,0-5-2.2-5-5c0-2.7,2.2-5,5-5h74.5c2.7,0,5,2.2,5,5
		C252.1,371.9,249.8,374.1,247.1,374.1z"/>
	<path id="Shape_6_" class="st0" d="M247.1,349.3h-9.9"/>
	<path id="Shape_7_" class="st0" d="M247.1,354.3h-9.9c-2.7,0-5-2.2-5-5c0-2.7,2.2-5,5-5h9.9c2.7,0,5,2.2,5,5
		C252.1,352.1,249.8,354.3,247.1,354.3z"/>
	<path id="Shape_8_" class="st0" d="M217.3,354.3h-74.5c-2.7,0-5-2.2-5-5c0-2.7,2.2-5,5-5h74.5c2.7,0,5,2.2,5,5
		C222.3,352.1,220.1,354.3,217.3,354.3z"/>
</g>
<path id="Shape_9_" class="st4" d="M396.1,185.4l0,64.6H276.9l0-64.6c0-6.8,1.1-13.5,3.4-19.9c6-17.1,19.5-30.5,36.6-36.4
	c12.7-4.4,26.5-4.4,39.1,0c8.5,2.9,16.2,7.7,22.6,14.1C389.8,154.5,396.1,169.6,396.1,185.4L396.1,185.4z"/>
<path id="Shape_10_" class="st5" d="M296.8,190.4c-2.7,0-5-2.2-5-5c0-24.7,20-44.7,44.7-44.7c2.7,0,5,2.2,5,5c0,2.7-2.2,5-5,5
	c-19.2,0-34.7,15.6-34.8,34.8C301.7,188.2,299.5,190.4,296.8,190.4z"/>
<path id="Shape_11_" class="st3" d="M406,259.9v9.9c0,2.7-2.2,5-5,5H271.9c-2.7,0-5-2.2-5-5v-9.9c0-5.5,4.5-9.9,9.9-9.9h119.2
	C401.5,250,406,254.5,406,259.9z"/>
<path id="Shape_12_" class="st5" d="M296.8,225.2c-2.7,0-5-2.2-5-5v-14.9c0-2.7,2.2-5,5-5c2.7,0,5,2.2,5,5v14.9
	C301.7,222.9,299.5,225.2,296.8,225.2z"/>
<path id="Shape_13_" class="st0" d="M361.3,274.8c0,13.7-11.1,24.8-24.8,24.8s-24.8-11.1-24.8-24.8H361.3z"/>
<path id="Shape_14_" class="st3" d="M356.3,125.9c0,1.1-0.1,2.2-0.3,3.3c-12.7-4.4-26.5-4.4-39.1,0c-0.2-1.1-0.3-2.2-0.3-3.3
	c0-11,8.9-19.9,19.9-19.9C347.5,106,356.3,114.9,356.3,125.9L356.3,125.9z"/>
</svg>
