<?xml version="1.0" encoding="iso-8859-1"?>
<!-- Generator: Adobe Illustrator 19.0.0, SVG Export Plug-In . SVG Version: 6.00 Build 0)  -->
<svg version="1.1" id="Capa_1" xmlns="http://www.w3.org/2000/svg" xmlns:xlink="http://www.w3.org/1999/xlink" x="0px" y="0px"
	 viewBox="0 0 472 472" style="enable-background:new 0 0 472 472;" xml:space="preserve">
<g>
	<g>
		<path d="M440,252c-2.122,0-4.156,0.844-5.656,2.344L312,376.688L45.656,110.344c-1.5-1.5-3.534-2.344-5.656-2.344H0v16h36.688
			l269.656,269.656c3.124,3.123,8.188,3.123,11.312,0L443.312,268H472v-16H440z"/>
	</g>
</g>
<g>
	<g>
		<path d="M421.656,238.344l-88-88c-3.124-3.123-8.188-3.123-11.312,0l-104,104c-3.123,3.124-3.123,8.188,0,11.312l88,88
			c3.124,3.123,8.188,3.123,11.312,0l40-40l24-24l40-40C424.779,246.532,424.779,241.468,421.656,238.344z M312,336.688L235.312,260
			L264,231.312L340.688,308L312,336.688z M352,296.688L275.312,220L288,207.312L364.688,284L352,296.688z M376,272.688L299.312,196
			L328,167.312L404.688,244L376,272.688z"/>
	</g>
</g>
<g>
	<g>
		<path d="M312,396c-17.673,0-32,14.327-32,32c0,17.673,14.327,32,32,32c17.673,0,32-14.327,32-32C344,410.327,329.673,396,312,396z
			 M312,444c-8.837,0-16-7.163-16-16s7.163-16,16-16s16,7.163,16,16S320.837,444,312,444z"/>
	</g>
</g>
<g>
	<g>
		<path d="M309.656,126.344l-88-88c-3.124-3.123-8.188-3.123-11.312,0l-104,104c-2.403,2.944-1.672,7.77,0,11.312l88,88
			c3.124,3.123,8.188,3.123,11.312,0l40-40l24-24l40-40C312.779,134.532,312.779,129.468,309.656,126.344z M200,224.688L123.312,148
			L152,119.312L228.688,196L200,224.688z M240,184.688L163.312,108L176,95.312L252.688,172L240,184.688z M264,160.688L187.312,84
			L216,55.312L292.688,132L264,160.688z"/>
	</g>
</g>
<g>
	<g>
		
			<rect x="320.832" y="332.038" transform="matrix(0.7071 -0.7071 0.7071 0.7071 -123.2779 382.4575)" width="158.393" height="16"/>
	</g>
</g>
<g>
	<g>
		<rect x="200" y="420" width="64" height="16"/>
	</g>
</g>
<g>
	<g>
		<rect x="168" y="420" width="16" height="16"/>
	</g>
</g>
<g>
	<g>
		<rect x="136" y="420" width="16" height="16"/>
	</g>
</g>
<g>
	<g>
		<rect x="32" y="228" width="64" height="16"/>
	</g>
</g>
<g>
	<g>
		<rect y="228" width="16" height="16"/>
	</g>
</g>
<g>
	<g>
		<rect x="160" y="12" width="56" height="16"/>
	</g>
</g>
<g>
	<g>
		<rect x="128" y="12" width="16" height="16"/>
	</g>
</g>
<g>
	<g>
		<rect x="48" y="348" width="104" height="16"/>
	</g>
</g>
<g>
</g>
<g>
</g>
<g>
</g>
<g>
</g>
<g>
</g>
<g>
</g>
<g>
</g>
<g>
</g>
<g>
</g>
<g>
</g>
<g>
</g>
<g>
</g>
<g>
</g>
<g>
</g>
<g>
</g>
</svg>
