<?xml version="1.0" encoding="utf-8"?>
<!-- Generator: Adobe Illustrator 22.0.1, SVG Export Plug-In . SVG Version: 6.00 Build 0)  -->
<svg version="1.1" id="Layer_1" xmlns="http://www.w3.org/2000/svg" xmlns:xlink="http://www.w3.org/1999/xlink" x="0px" y="0px"
	 viewBox="0 0 508 508" style="enable-background:new 0 0 508 508;" xml:space="preserve">
<style type="text/css">
	.st0{fill:#734A91;}
	.st1{clip-path:url(#SVGID_2_);fill:#54316E;}
	.st2{fill:#EFEAF9;}
	.st3{fill:#FFFFFF;}
	.st4{fill:#B798D8;}
	.st5{fill:#DED3EF;}
</style>
<circle class="st0" cx="254" cy="254" r="254"/>
<g>
	<defs>
		<circle id="SVGID_1_" cx="254" cy="254" r="254"/>
	</defs>
	<clipPath id="SVGID_2_">
		<use xlink:href="#SVGID_1_"  style="overflow:visible;"/>
	</clipPath>
	<path class="st1" d="M358.8,119.9c-1.7,5.7-4.6,11-8.5,15c-6.1,6.3-14.9,9.7-22.2,14.5c-1.2,0.8-2.4,1.6-3.5,2.4
		c-4.8,5-10,9.6-15.9,13.2c-0.3,0.2-0.6,0.3-0.9,0.4c-4.1,3.8-7.9,7.8-11.5,12c0.4,1.2,0.3,2.5-0.6,3.8c-3.3,4.6-6.7,9.1-10.4,13.4
		c-3.3,3.9-7.3,9.3-13,8.4c-1.5-0.2-2.6-1.3-3.1-2.7c-1.9,2.3-4.2,4.1-6.9,4c-4.4-0.1-7.1-3.7-9-7.4c-3.1-0.1-5.4-3.1-4.7-6.3
		c0.2-0.8,0.4-1.6,0.8-2.4c0,0,0-0.1-0.1-0.1c-1.2,0.4-2.5,0.7-3.8,0.9c-4.4,0.8-7.5-3.2-5.6-7.3c0.3-0.7,0.7-1.4,1.2-2.1
		c-0.3-0.1-0.6-0.1-0.9-0.1c-1.3,0-2.3-0.4-3.1-1.1c-0.6,0.4-1.2,0.7-1.8,1.1c-5.6,5.2-12.1,10.5-19.5,11.8
		c-3.7,0.6-7.1-2.2-6.2-6.2c1.3-5.2,4-9.9,7.4-14.1c-1-0.5-1.8-1.3-2.3-2.2c-2.1-0.3-4-2-4.4-4.8c-0.4-3.3-0.3-6.6,0.2-10
		c-0.2-0.4-0.4-0.7-0.5-1.2c-0.1-0.5-0.3-1-0.4-1.4c-2.5,0.1-5.1-1.7-5.3-4.9c-0.1-1.4,0-2.8,0.1-4.2c-2.3,1.3-5.6,0.3-7-2.2
		c-1.2,1.3-3,1.6-4.6,1.2l-19.3,60.5c0.1,0,0.3-0.1,0.4-0.1c2.8-4,9-2.3,9.2,2.7c0.3,5.5-0.6,10.9-1.9,16.2
		c-0.1,0.4-0.1,0.7-0.2,1.1c0.5-0.9,0.9-1.9,1.4-2.9c2.3-5.5,4.6-11.1,7.4-16.3c3.1-5.8,11.1-0.7,8.6,5c-2.8,6.6-5.8,13-8.9,19.5
		c-1.9,4.4-4,8.7-6.4,12.8c-0.3,0.6-0.6,1.2-0.9,1.7c3.5-6,7-12,10.9-17.7c3-4.4,11.2-1.7,9.1,3.9c-2.1,5.6-4.7,11-7.4,16.3
		c2.4,1.1,3.9,3.8,2.3,6.9c-0.3,0.5-0.6,1.1-0.9,1.6c1.4,0.4,2.7,1.4,3.4,2.7c1.1,0.2,2,0.7,2.8,1.5c0.5-0.5,1-1,1.5-1.5
		c4-3.8,11.1,1.2,7.9,6.1c-1.2,1.7-2.4,3.4-3.6,5.1c-0.1,0.4-0.2,0.8-0.4,1.2c-0.6,1.4-1.4,2.8-2.2,4.1c0.1,1.2-0.3,2.5-1.3,3.5
		c-1.3,1.4-2.7,2.7-4.1,4c-6.4,7.4-14.6,13.4-22.8,18.9c-4.5,3.8-8.8,7.8-13.1,11.8c-4.8,4.5-9.4,9.4-14.5,13.5
		c-5.1,5.7-10.2,11.5-17.3,14.4c-0.8,0.3-1.6,0.3-2.3,0.2L112,395.6L236.6,514c27.7,6.6,37.1,5,67.2,5c134.9,0,239-89.6,288.4-189.8
		L358.8,119.9z"/>
</g>
<path class="st2" d="M342,406.4l-240-240c-2-2-2-5.6,0-7.6l56.8-56.8c2-2,5.6-2,7.6,0l240,240c2,2,2,5.6,0,7.6l-56.8,56.8
	C347.2,408.4,344,408.4,342,406.4z"/>
<g>
	
		<rect x="111.3" y="155.6" transform="matrix(0.7071 -0.7071 0.7071 0.7071 -77.772 131.5287)" class="st3" width="17.2" height="8"/>
	
		<rect x="122.8" y="167.3" transform="matrix(0.7071 -0.7071 0.7071 0.7071 -82.6261 143.0796)" class="st3" width="17.2" height="8"/>
	
		<rect x="133.9" y="175.7" transform="matrix(0.7071 -0.7071 0.7071 0.7071 -83.6288 157.4644)" class="st3" width="28.8" height="8"/>
	<rect x="147" y="191.3" transform="matrix(0.7071 -0.7071 0.7071 0.7071 -92.5036 167.192)" class="st3" width="17.2" height="8"/>
	
		<rect x="159.6" y="204.1" transform="matrix(0.7071 -0.7071 0.7071 0.7071 -97.8633 179.8942)" class="st3" width="17.2" height="8"/>
	
		<rect x="169.5" y="211.3" transform="matrix(0.7071 -0.7071 0.7071 0.7071 -98.3633 193.1196)" class="st3" width="28.8" height="8"/>
	
		<rect x="183.8" y="228.1" transform="matrix(0.7071 -0.7071 0.7071 0.7071 -107.7342 204.021)" class="st3" width="17.2" height="8"/>
	
		<rect x="195.3" y="239.7" transform="matrix(0.7071 -0.7071 0.7071 0.7071 -112.5659 215.5462)" class="st3" width="17.2" height="8"/>
	
		<rect x="206.1" y="247.4" transform="matrix(0.7071 -0.7071 0.7071 0.7071 -113.1945 229.554)" class="st3" width="28.8" height="8"/>
	
		<rect x="219.1" y="263.7" transform="matrix(0.7071 -0.7071 0.7071 0.7071 -122.5895 239.3802)" class="st3" width="17.2" height="8"/>
	
		<rect x="231.7" y="276.1" transform="matrix(0.7071 -0.7071 0.7071 0.7071 -127.6599 251.9854)" class="st3" width="17.2" height="8"/>
	
		<rect x="241.6" y="283.7" transform="matrix(0.7071 -0.7071 0.7071 0.7071 -128.4444 265.3192)" class="st3" width="28.8" height="8"/>
	
		<rect x="255.9" y="300.1" transform="matrix(0.7071 -0.7071 0.7071 0.7071 -137.5281 276.1205)" class="st3" width="17.2" height="8"/>
	
		<rect x="267.4" y="311.7" transform="matrix(0.7071 -0.7071 0.7071 0.7071 -142.3645 287.6342)" class="st3" width="17.2" height="8"/>
	
		<rect x="278.5" y="320.1" transform="matrix(0.7071 -0.7071 0.7071 0.7071 -143.3901 302.0423)" class="st3" width="28.8" height="8"/>
	
		<rect x="291.6" y="336" transform="matrix(0.7071 -0.7071 0.7071 0.7071 -152.5251 311.8555)" class="st3" width="17.2" height="8"/>
	
		<rect x="304.1" y="348.7" transform="matrix(0.7071 -0.7071 0.7071 0.7071 -157.8392 324.4328)" class="st3" width="17.2" height="8"/>
	
		<rect x="314.2" y="355.7" transform="matrix(0.7071 -0.7071 0.7071 0.7071 -158.1228 337.7029)" class="st3" width="28.8" height="8"/>
	
		<rect x="328" y="372.4" transform="matrix(0.7071 -0.7071 0.7071 0.7071 -167.5904 348.2856)" class="st3" width="17.2" height="8"/>
	
		<rect x="339.5" y="384.1" transform="matrix(0.7071 -0.7071 0.7071 0.7071 -172.4433 359.8395)" class="st3" width="17.2" height="8"/>
</g>
<rect x="113.2" y="221.9" transform="matrix(0.7071 -0.7071 0.7071 0.7071 -109.0839 252.1111)" class="st4" width="273.2" height="71.6"/>
<polygon class="st3" points="128,329.2 112,396 178.8,380 "/>
<g>
	<polygon class="st5" points="117.2,374.4 112,396 133.6,390.8 	"/>
	<path class="st5" d="M321.2,136l50.4,50.4l20-20c5.2-5.2,5.2-13.2,0-18.4l-32-32c-5.2-5.2-13.2-5.2-18.4,0L321.2,136z"/>
</g>
</svg>
