<?xml version="1.0" encoding="iso-8859-1"?>
<svg display="none"
     xmlns="http://www.w3.org/2000/svg"
     xmlns:xlink="http://www.w3.org/1999/xlink">

    <symbol id="rating" viewBox="0 0 512 512">
        <g>
            <circle cx="388.871" cy="39.607" r="8.118"/>
            <circle cx="427.79" cy="39.607" r="8.118"/>
            <circle cx="466.709" cy="39.607" r="8.118"/>

        </g>
            <g>
            <path d="M270.657,32.107H113.055c-4.142,0-7.5,3.357-7.5,7.5s3.358,7.5,7.5,7.5h157.602c4.142,0,7.5-3.357,7.5-7.5    S274.799,32.107,270.657,32.107z"/>
                <path d="M348.364,212.074c-1.877-5.775-7.013-9.621-13.083-9.798l-23.834-0.692l-8.024-22.455    c-2.044-5.719-7.29-9.414-13.362-9.414c-6.073,0-11.318,3.696-13.362,9.415l-8.024,22.454l-23.833,0.692    c-6.071,0.177-11.207,4.022-13.083,9.797c-1.878,5.775,0.015,11.905,4.824,15.619l18.876,14.571l-6.706,22.88    c-1.271,4.333-0.455,8.882,2.24,12.481c2.678,3.577,6.934,5.712,11.383,5.712c2.853,0,5.618-0.859,7.996-2.483l19.69-13.449    l19.687,13.447c2.378,1.626,5.145,2.485,8,2.485c4.45,0,8.705-2.136,11.382-5.712c2.695-3.599,3.512-8.147,2.241-12.479    l-6.706-22.882l18.879-14.573C348.349,223.978,350.241,217.848,348.364,212.074z M311.443,233.521    c-2.445,1.888-3.483,5.081-2.614,8.046l7.509,25.622l-22.048-15.06c-1.275-0.871-2.752-1.307-4.23-1.307    c-1.477,0-2.955,0.436-4.23,1.307l-22.048,15.059l7.51-25.621c0.869-2.965-0.169-6.158-2.614-8.046l-21.137-16.316l26.689-0.775    c3.088-0.09,5.805-2.064,6.845-4.973l8.985-25.144l8.985,25.143c1.04,2.909,3.756,4.884,6.845,4.974l26.689,0.775L311.443,233.521    z"/>
                <path d="M477.975,212.074c-1.877-5.775-7.013-9.621-13.083-9.798l-23.834-0.692l-8.024-22.455    c-2.044-5.719-7.289-9.414-13.362-9.414c-6.073,0-11.318,3.696-13.362,9.415l-8.024,22.454l-23.833,0.692    c-6.072,0.177-11.208,4.022-13.085,9.799c-1.876,5.776,0.018,11.906,4.825,15.617l18.876,14.571l-6.706,22.88    c-1.271,4.333-0.455,8.882,2.239,12.48c2.678,3.577,6.934,5.713,11.384,5.713c2.853,0,5.619-0.859,7.997-2.483l19.69-13.449    l19.688,13.447c2.378,1.626,5.145,2.485,8,2.485c4.449,0,8.704-2.136,11.382-5.712c2.695-3.599,3.512-8.147,2.241-12.479    l-6.707-22.882l18.876-14.571C477.959,223.981,479.853,217.851,477.975,212.074z M441.054,233.521    c-2.445,1.888-3.483,5.081-2.614,8.046l7.51,25.622l-22.048-15.06c-2.551-1.742-5.909-1.742-8.46,0l-22.048,15.06l7.51-25.622    c0.869-2.965-0.169-6.158-2.614-8.046l-21.136-16.316l26.689-0.775c3.088-0.09,5.805-2.064,6.845-4.973l8.985-25.144l8.985,25.143    c1.04,2.909,3.756,4.884,6.845,4.974l26.688,0.775L441.054,233.521z"/>
                <path d="M488.352,0H91.769C78.741,0,68.141,10.6,68.141,23.628v217.561c0,4.143,3.358,7.5,7.5,7.5s7.5-3.357,7.5-7.5V79.214    h413.838V420.21c0,4.758-3.87,8.628-8.627,8.628H197.905c-4.142,0-7.5,3.357-7.5,7.5s3.358,7.5,7.5,7.5h290.446    c13.028,0,23.627-10.6,23.627-23.628V23.628C511.979,10.6,501.38,0,488.352,0z M83.141,64.214V23.628    c0-4.758,3.871-8.628,8.628-8.628h396.583c4.757,0,8.627,3.87,8.627,8.628v40.586H83.141z"/>
                <path d="M195.002,419.101l35.324-38.304c3.623-3.927,5.499-9.029,5.282-14.367c-0.216-5.338-2.498-10.272-6.425-13.895    l-5.875-5.418c-2.028-1.871-4.37-3.275-6.896-4.167c0.312-1.554,0.439-3.155,0.374-4.778c-0.216-5.338-2.498-10.272-6.424-13.893    l-5.876-5.421c-2.3-2.121-4.969-3.6-7.782-4.443c0.766-6.188-1.356-12.645-6.279-17.186l-5.875-5.418    c-1.257-1.159-2.634-2.14-4.101-2.93l6.168-6.688c1.752,0.752,3.637,1.144,5.562,1.144c4.448,0,8.702-2.135,11.383-5.713    c2.693-3.598,3.51-8.146,2.24-12.479l-0.835-2.85l12.086-13.105c6.552-7.105,7.989-17.135,4.498-25.523    c2.035-3.42,2.544-7.592,1.244-11.594c-1.877-5.775-7.013-9.621-13.083-9.798l-23.834-0.692l-8.024-22.455    c-2.044-5.719-7.289-9.414-13.362-9.414c-6.073,0-11.318,3.696-13.362,9.415l-8.024,22.454l-23.833,0.692    c-6.072,0.177-11.208,4.022-13.084,9.799c-1.876,5.776,0.018,11.906,4.825,15.617l18.876,14.571l-6.706,22.88    c-1.271,4.332-0.455,8.881,2.24,12.481c0.018,0.024,0.036,0.048,0.054,0.071l-30.047,32.58l-3.136-26.54    c-0.817-6.908-4.606-13.081-10.397-16.937c-5.791-3.856-12.949-4.971-19.637-3.058c-10.062,2.875-17.125,12.192-17.177,22.657    l-0.479,96.203c-0.003,0.659,0.081,1.316,0.249,1.954c0.07,0.266,0.001,0.545-0.185,0.746l-8.5,9.217    c-5.889-2.526-13.002-1.254-17.609,3.673L4.235,413.51c-2.865,3.064-4.358,7.062-4.203,11.254    c0.155,4.193,1.939,8.069,5.024,10.915l78.267,72.18c2.91,2.685,6.646,4.142,10.583,4.142c0.215,0,0.431-0.004,0.647-0.013    c4.172-0.169,8.029-1.952,10.859-5.021l14.216-15.415c2.831-3.068,4.297-7.057,4.128-11.229c-0.113-2.802-0.955-5.462-2.426-7.765    l10.398-11.274c0.059-0.064,0.129-0.118,0.206-0.16l30.031-16.299C174.341,438.104,185.457,429.45,195.002,419.101z     M143.109,233.521l-21.136-16.316l26.688-0.775c3.088-0.09,5.805-2.064,6.845-4.973l8.986-25.144l8.985,25.143    c1.04,2.909,3.756,4.884,6.845,4.974l1.617,0.047c-0.055,0.059-0.111,0.118-0.166,0.178l-42.139,45.692l6.09-20.779    C146.592,238.602,145.554,235.408,143.109,233.521z M108.602,481.381L108.602,481.381l-14.217,15.415    c-0.044,0.048-0.178,0.193-0.439,0.203c-0.254,0.027-0.406-0.122-0.454-0.167l-78.267-72.18c-0.048-0.044-0.194-0.179-0.204-0.442    s0.126-0.408,0.17-0.455l14.323-15.317c0.124-0.133,0.292-0.199,0.461-0.199c0.154,0,0.308,0.055,0.429,0.167l1.669,1.539    c0.013,0.012,0.025,0.024,0.038,0.036c0.013,0.012,0.026,0.023,0.039,0.035l73.805,68.066c0.014,0.013,0.027,0.026,0.041,0.039    c0.015,0.013,0.029,0.026,0.044,0.04l2.524,2.328c0.048,0.044,0.193,0.178,0.203,0.44    C108.779,481.188,108.646,481.333,108.602,481.381z M154.809,431.64l-30.032,16.3c-1.528,0.829-2.899,1.897-4.076,3.174    l-10.048,10.895l-62.858-57.97l7.9-8.566c3.418-3.707,4.841-8.73,3.913-13.632l0.475-95.366c0.019-3.838,2.609-7.255,6.299-8.31    c2.491-0.711,5.048-0.313,7.203,1.122s3.509,3.641,3.813,6.211l5.049,42.725c0.344,2.908,2.349,5.351,5.134,6.254    c2.784,0.905,5.843,0.104,7.827-2.049l97.392-105.604c1.629-1.767,3.849-2.793,6.25-2.891c2.394-0.098,4.695,0.746,6.462,2.376    c0.24,0.221,0.464,0.452,0.674,0.692c0.049,0.068,0.098,0.135,0.15,0.201c0.108,0.14,0.221,0.276,0.337,0.406    c2.489,3.398,2.314,8.203-0.646,11.413l-14.883,16.138c-0.049,0.051-0.096,0.103-0.143,0.156l-11.125,12.063    c-0.048,0.05-0.095,0.101-0.141,0.153l-23.403,25.376c-0.015,0.016-0.029,0.031-0.044,0.048l-1.787,1.938l0,0.001    c-2.808,3.045-2.616,7.789,0.429,10.598c3.045,2.808,7.79,2.615,10.598-0.429l1.809-1.962c0.904-0.968,2.128-1.53,3.453-1.584    c1.336-0.039,2.61,0.415,3.592,1.321l5.875,5.418c2.027,1.87,2.155,5.039,0.286,7.066l-4.299,4.661    c-0.006,0.007-0.011,0.013-0.017,0.019l0,0.001c-2.808,3.045-2.616,7.789,0.429,10.598c3.045,2.807,7.79,2.615,10.598-0.429    c1.869-2.026,5.039-2.154,7.065-0.287l5.877,5.421c0.981,0.905,1.552,2.139,1.606,3.473c0.054,1.334-0.415,2.61-1.321,3.592    l-6.96,7.547c-2.808,3.045-2.617,7.789,0.428,10.598c3.044,2.808,7.789,2.618,10.597-0.427l1.531-1.659    c0.905-0.981,2.139-1.552,3.473-1.606c1.333-0.035,2.61,0.415,3.592,1.321l5.876,5.419c0.982,0.905,1.552,2.139,1.606,3.474    c0.054,1.334-0.415,2.609-1.321,3.591l-35.325,38.304C175.548,418.068,165.735,425.709,154.809,431.64z"/>
        </g>
    </symbol>

    <symbol id="checklist-simple" viewBox="0 0 496 496">
        <path d="m352.503906 256c4.753906 0 9.351563 1.390625 13.3125 4.03125l55.871094 37.25c6.601562 4.390625 14.273438 6.71875 22.191406 6.71875h52.121094v-16h-52.113281c-4.75 0-9.359375-1.390625-13.320313-4.03125l-22.566406-15.046875v-268.921875h-304v48h-104v448h304v-48h104v-67.304688c.503906-.121093 1.023438-.160156 1.527344-.28125l37.214844-9.300781c8.257812-2.066406 16.753906-3.113281 25.257812-3.113281h24v-16h-24c-9.808594 0-19.617188 1.207031-29.136719 3.585938l-37.214843 9.300781c-19.128907 4.777343-39.488282 4-58.175782-2.230469l-13.480468-4.496094c-12.273438-4.089844-25.054688-6.160156-37.992188-6.160156h-69.808594c0-13.230469 10.769532-24 24-24h88c13.234375 0 24-10.769531 24-24 0-12.273438-9.296875-22.304688-21.191406-23.71875l6.566406-24.28125zm-10.105468 121.832031c12.273437 4.097657 25.058593 6.167969 37.992187 6.167969 3.882813 0 7.753906-.335938 11.609375-.710938v48.710938h-88v-26.167969c2.808594-3.238281 4.984375-7.070312 6.152344-11.40625l6.550781-24.265625c4.121094.839844 8.207031 1.839844 12.21875 3.183594zm-41.726563-9.648437-5.960937 22.0625c-1.550782 5.746094-6.789063 9.753906-12.734376 9.753906h-2.59375c-7.269531 0-13.183593-5.910156-13.183593-13.183594 0-1.167968.152343-2.320312.457031-3.441406l4.152344-15.375h25.191406c1.558594 0 3.113281.121094 4.671875.183594zm-46.441406-.183594-3.023438 11.191406c-.671875 2.480469-1.007812 5.039063-1.007812 7.625 0 10.816406 5.984375 20.167969 14.746093 25.207032l-2.511718 10.03125 15.519531 3.882812 2.488281-9.9375h1.535156c2.0625 0 4.0625-.289062 6.023438-.703125v64.703125h-272v-416h104v-48h272v242.257812l-17.304688-11.539062c-6.597656-4.390625-14.269531-6.71875-22.191406-6.71875h-.617187l33.296875-123.191406c.671875-2.480469 1.007812-5.039063 1.007812-7.625 0-16.09375-13.09375-29.183594-29.183594-29.183594h-2.59375c-13.15625 0-24.742187 8.871094-28.175781 21.574219l-22.238281 82.289062v-135.863281h-168v16h152v176h-16.550781c-8.707031 0-16.90625 2.886719-23.761719 8h-79.6875v16h62.878906l-16 16h-46.878906v16h30.886719l-13.367188 13.367188c-4.71875 4.710937-7.320312 10.984374-7.320312 17.664062 0 13.769531 11.199219 24.96875 24.976562 24.96875 2.464844 0 4.839844-.472656 7.144531-1.160156-.007812.390625-.121093.761718-.121093 1.160156 0 8.824219 7.175781 16 16 16zm61.625-56h-29.910157l33.78125-124.992188 27.441407 9.144532zm-61.375-48.976562c4.472656-4.464844 10.65625-7.023438 16.96875-7.023438h13.054687l-6.527344 24.144531c-10.121093.367188-19.609374 4.367188-26.808593 11.566407l-41.65625 41.65625c-1.671875 1.671874-3.984375 2.632812-6.34375 2.632812-4.953125 0-8.976563-4.023438-8.976563-8.96875 0-2.398438.9375-4.648438 2.632813-6.34375zm8 40c3.023437-3.023438 6.871093-5.085938 10.976562-6.160157l-4.089843 15.136719h-15.855469zm107.253906-190.390626-9.796875 36.246094-27.441406-9.144531 9.183594-33.980469c1.558593-5.746094 6.792968-9.753906 12.734374-9.753906h2.59375c7.273438 0 13.183594 5.910156 13.183594 13.183594 0 1.167968-.152344 2.320312-.457031 3.449218zm-41.414063 42.574219 27.441407 9.144531-4.417969 16.328126-27.441406-9.144532zm9.871094 140.792969c4.410156 0 8 3.59375 8 8s-3.589844 8-8 8h-5.765625l4.328125-16zm0 0"/>
        <path d="m240 80h-208v80h208zm-16 64h-176v-48h176zm0 0"/>
        <path d="m64 112h16v16h-16zm0 0"/>
        <path d="m96 112h16v16h-16zm0 0"/>
        <path d="m128 112h16v16h-16zm0 0"/>
        <path d="m160 112h16v16h-16zm0 0"/>
        <path d="m192 112h16v16h-16zm0 0"/>
        <path d="m128 256h-16v32h-64v-64h48v-16h-64v96h96zm0 0"/>
        <path d="m154.34375 178.34375-74.34375 74.34375-10.34375-10.34375-11.3125 11.3125 21.65625 21.65625 85.65625-85.65625zm0 0"/>
        <path d="m112 424h-64v-64h48v-16h-64v96h96v-48h-16zm0 0"/>
        <path d="m69.65625 378.34375-11.3125 11.3125 21.65625 21.65625 85.65625-85.65625-11.3125-11.3125-74.34375 74.34375zm0 0"/>
        <path d="m256 440h16v16h-16zm0 0"/>
        <path d="m152 440h88v16h-88zm0 0"/>
        <path d="m168 216h104v16h-104zm0 0"/>
    </symbol>

    <symbol id="time-management" viewBox="0 0 128 128">
        <path d="m44.167 31.92h-8.039a3.031 3.031 0 0 0 -.708-.708v-12.352a1.75 1.75 0 0 0 -3.5 0v12.352a3.018 3.018 0 1 0 4.208 4.208h8.039a1.75 1.75 0 0 0 0-3.5z"/>
        <path d="m122.238 86.749a1.75 1.75 0 0 0 -1.688-1.289h-6.007q-.335-.757-.713-1.475l3.987-3.985a1.749 1.749 0 0 0 .2-2.237 28.974 28.974 0 0 0 -8.923-8.3 1.751 1.751 0 0 0 -2.131.267l-4.2 4.2q-.483-.2-.975-.374v-5.786a1.749 1.749 0 0 0 -1.379-1.71 28.922 28.922 0 0 0 -12.162 0 1.749 1.749 0 0 0 -1.379 1.71v5.786q-.492.174-.974.374l-4.2-4.2a1.747 1.747 0 0 0 -2.131-.267 28.969 28.969 0 0 0 -8.922 8.3 1.748 1.748 0 0 0 .2 2.237l3.987 3.988q-.378.717-.713 1.475h-6.005a1.75 1.75 0 0 0 -1.688 1.289 28.805 28.805 0 0 0 -1.012 7.578 29.569 29.569 0 0 0 .361 4.581 1.751 1.751 0 0 0 1.729 1.479h5.6a22.548 22.548 0 0 0 .828 2.373l-1.57 1.57c-.036.036-.07.074-.1.113l-2.527 2.527a1.75 1.75 0 0 0 -.266 2.132 29.126 29.126 0 0 0 8.292 8.91 1.748 1.748 0 0 0 2.239-.2l3.986-3.985a21.678 21.678 0 0 0 2.887 1.273v5.785a1.749 1.749 0 0 0 1.378 1.71 28.779 28.779 0 0 0 12.164 0 1.749 1.749 0 0 0 1.378-1.71v-5.785a21.678 21.678 0 0 0 2.887-1.273l3.986 3.985a1.748 1.748 0 0 0 2.239.2 29.126 29.126 0 0 0 8.292-8.91 1.749 1.749 0 0 0 -.266-2.132l-2.527-2.526c-.032-.039-.067-.077-.1-.114l-1.569-1.569a22.255 22.255 0 0 0 .827-2.374h5.6a1.751 1.751 0 0 0 1.729-1.479 29.569 29.569 0 0 0 .361-4.581 28.805 28.805 0 0 0 -1.01-7.581zm-2.617 10.141h-5.431a1.751 1.751 0 0 0 -1.711 1.381 18.65 18.65 0 0 1 -1.417 4.123 1.749 1.749 0 0 0 .34 1.994l2.315 2.315c.033.039.068.078.105.114l1.641 1.641a25.715 25.715 0 0 1 -5.393 5.817l-3.863-3.862a1.747 1.747 0 0 0 -2.15-.256 18.2 18.2 0 0 1 -4.5 1.99 1.751 1.751 0 0 0 -1.27 1.683v5.608a25.347 25.347 0 0 1 -7.92 0v-5.608a1.75 1.75 0 0 0 -1.269-1.683 18.17 18.17 0 0 1 -4.5-1.99 1.749 1.749 0 0 0 -2.151.256l-3.863 3.862a25.715 25.715 0 0 1 -5.393-5.817l1.64-1.641c.036-.036.07-.074.1-.113l2.317-2.316a1.751 1.751 0 0 0 .352-1.988 18.594 18.594 0 0 1 -1.417-4.124 1.752 1.752 0 0 0 -1.713-1.386h-5.431c-.086-.858-.129-1.714-.129-2.56a25.4 25.4 0 0 1 .573-5.37h5.807a1.749 1.749 0 0 0 1.635-1.125 19.448 19.448 0 0 1 1.575-3.235 1.749 1.749 0 0 0 -.255-2.151l-3.863-3.864a25.544 25.544 0 0 1 5.827-5.394l4.061 4.062a1.753 1.753 0 0 0 2 .338 17.488 17.488 0 0 1 2.83-1.078 1.751 1.751 0 0 0 1.27-1.683v-5.609a25.529 25.529 0 0 1 7.92 0v5.609a1.752 1.752 0 0 0 1.268 1.683 17.477 17.477 0 0 1 2.83 1.082 1.753 1.753 0 0 0 2-.338l4.061-4.062a25.525 25.525 0 0 1 5.827 5.394l-3.863 3.864a1.749 1.749 0 0 0 -.255 2.151 19.448 19.448 0 0 1 1.577 3.231 1.75 1.75 0 0 0 1.635 1.125h5.807a25.33 25.33 0 0 1 .573 5.37c0 .846-.043 1.702-.129 2.56z"/>
        <path d="m94.33 81.51a12.821 12.821 0 1 0 12.82 12.82 12.834 12.834 0 0 0 -12.82-12.82zm0 22.141a9.321 9.321 0 1 1 9.32-9.321 9.33 9.33 0 0 1 -9.32 9.321z"/>
        <path d="m54.119 13.221a1.7 1.7 0 0 0 -.134-.11 28.861 28.861 0 0 0 -40.63 0 1.533 1.533 0 0 0 -.134.11c-.042.042-.073.089-.11.134a28.861 28.861 0 0 0 0 40.63c.037.045.068.092.11.134s.09.073.134.11a28.859 28.859 0 0 0 40.629 0c.045-.037.093-.068.135-.11s.073-.09.11-.134a28.861 28.861 0 0 0 0-40.629c-.036-.045-.068-.093-.11-.135zm2.638 22.2h2.266a25.308 25.308 0 0 1 -6.2 14.931l-1.594-1.593a1.749 1.749 0 0 0 -2.474 2.474l1.593 1.594a25.308 25.308 0 0 1 -14.931 6.2v-2.27a1.75 1.75 0 1 0 -3.5 0v2.266a25.3 25.3 0 0 1 -14.931-6.2l1.594-1.594a1.75 1.75 0 0 0 -2.475-2.474l-1.594 1.594a25.3 25.3 0 0 1 -6.2-14.932h2.266a1.75 1.75 0 0 0 0-3.5h-2.26a25.3 25.3 0 0 1 6.2-14.932l1.594 1.595a1.75 1.75 0 1 0 2.475-2.475l-1.595-1.594a25.3 25.3 0 0 1 14.932-6.2v2.266a1.75 1.75 0 0 0 3.5 0v-2.26a25.3 25.3 0 0 1 14.932 6.2l-1.594 1.594a1.75 1.75 0 1 0 2.474 2.475l1.594-1.594a25.3 25.3 0 0 1 6.2 14.931h-2.272a1.75 1.75 0 1 0 0 3.5z"/>
        <path d="m58.777 95c.022-.055.035-.112.052-.168s.036-.1.047-.159a1.75 1.75 0 0 0 0-.684c-.011-.055-.032-.106-.047-.159s-.03-.113-.052-.167a1.807 1.807 0 0 0 -.1-.185c-.022-.038-.039-.079-.064-.116a1.7 1.7 0 0 0 -.221-.271l-6.208-6.207a1.749 1.749 0 0 0 -2.474 2.474l3.223 3.223h-17.513v-21.741a1.75 1.75 0 0 0 -3.5 0v23.49a1.749 1.749 0 0 0 1.75 1.75h19.266l-3.223 3.22a1.749 1.749 0 1 0 2.474 2.474l6.213-6.204a1.7 1.7 0 0 0 .221-.271c.025-.037.042-.078.064-.117a1.776 1.776 0 0 0 .092-.182z"/>
        <path d="m69.223 33c-.022.055-.035.113-.052.17a1.585 1.585 0 0 0 -.047.157 1.75 1.75 0 0 0 0 .684c.011.054.031.1.047.157s.03.114.052.17a1.952 1.952 0 0 0 .1.181c.022.04.039.081.065.119a1.7 1.7 0 0 0 .221.271l6.207 6.207a1.75 1.75 0 0 0 2.475-2.474l-3.227-3.222h17.516v21.74a1.75 1.75 0 1 0 3.5 0v-23.49a1.749 1.749 0 0 0 -1.75-1.75h-19.266l3.223-3.22a1.75 1.75 0 0 0 -2.475-2.474l-6.207 6.204a1.7 1.7 0 0 0 -.221.271 1.124 1.124 0 0 0 -.064.118 1.761 1.761 0 0 0 -.097.181z"/>
    </symbol>

    <symbol id="tracking" viewBox="0 0 480 480">
        <path d="m240 0c-4.417969 0-8 3.582031-8 8v32c0 4.417969 3.582031 8 8 8s8-3.582031 8-8v-23.800781c121.574219 4.3125 217.480469 104.867187 216.042969 226.507812s-99.695313 219.898438-221.335938 221.335938-222.195312-94.46875-226.507812-216.042969h23.800781c4.417969 0 8-3.582031 8-8s-3.582031-8-8-8h-32c-4.417969 0-8 3.582031-8 8 0 132.546875 107.453125 240 240 240s240-107.453125 240-240-107.453125-240-240-240zm0 0"/>
        <path d="m347.328125 120.136719c-22.015625-1.839844-41.355469 14.519531-43.191406 36.535156-1.839844 22.015625 14.519531 41.355469 36.535156 43.191406 1.128906.097657 2.238281.136719 3.351563.136719 20.777343-.039062 38.078124-15.960938 39.832031-36.664062 1.816406-22.007813-14.523438-41.332032-36.527344-43.199219zm-5.328125 63.785156c-12.839844-1.050781-22.558594-12.050781-22.023438-24.921875.539063-12.871094 11.140626-23.023438 24.023438-23 .664062 0 1.335938 0 2.015625.078125 13.210937 1.105469 23.023437 12.710937 21.921875 25.921875-1.105469 13.210938-12.710938 23.023438-25.921875 21.921875zm0 0"/>
        <path d="m258.503906 149.726562c-9.496094-9.0625-24.4375-9.0625-33.9375 0l-53.734375 53.746094c-7.75 7.820313-7.722656 20.4375.066407 28.222656 7.785156 7.785157 20.402343 7.808594 28.222656.058594l42.398437-42.402344 31.601563 31.585938c7.6875 7.699219 20.144531 7.761719 27.910156.140625 3.882812-3.679687 6.113281-8.777344 6.183594-14.125.074218-5.351563-2.023438-10.503906-5.808594-14.289063zm31.273438 60c-1.511719 1.417969-3.875 1.371094-5.328125-.101562l-37.25-37.273438c-3.125-3.121093-8.1875-3.121093-11.3125 0l-48.070313 48.089844c-1.5625 1.5625-4.097656 1.566406-5.660156.003906s-1.566406-4.097656-.003906-5.660156l53.734375-53.746094c3.125-3.121093 8.1875-3.121093 11.3125 0l42.921875 42.914063c.738281.734375 1.144531 1.742187 1.117187 2.78125-.046875 1.152344-.578125 2.230469-1.460937 2.96875zm0 0"/>
        <path d="m249.601562 394.792969h.101563c5.304687.015625 10.390625-2.09375 14.128906-5.855469l42.328125-42.328125c9.375-9.375 9.375-24.574219 0-33.945313l-53.726562-53.734374c-7.914063-7.558594-20.371094-7.558594-28.28125 0-7.808594 7.808593-7.808594 20.46875 0 28.277343l42.398437 42.402344-31.015625 31.015625c-7.707031 7.761719-7.777344 20.273438-.152344 28.117188 3.730469 3.855468 8.855469 6.035156 14.21875 6.050781zm-2.730468-22.792969 36.671875-36.671875c3.125-3.125 3.125-8.1875 0-11.3125l-48.070313-48.085937c-1.039062-1.007813-1.457031-2.492188-1.089844-3.890626.363282-1.398437 1.457032-2.492187 2.855469-2.859374 1.398438-.363282 2.886719.050781 3.890625 1.09375l53.726563 53.726562c3.125 3.125 3.125 8.1875 0 11.3125l-42.335938 42.289062c-.742187.75-1.753906 1.171876-2.808593 1.167969-1.09375.066407-2.15625-.382812-2.871094-1.210937-1.488282-1.558594-1.476563-4.015625.03125-5.558594zm0 0"/>
        <path d="m380 296c11.046875 0 20-8.953125 20-20s-8.953125-20-20-20h-44v-24c0-2.949219-1.625-5.664062-4.226562-7.054688-2.601563-1.390624-5.757813-1.238281-8.214844.398438l-24 16c-2.222656 1.484375-3.558594 3.980469-3.558594 6.65625v24c0 13.253906 10.746094 24 24 24zm-68-24v-19.71875l8-5.328125v17.046875c0 4.417969 3.582031 8 8 8h52c2.210938 0 4 1.789062 4 4s-1.789062 4-4 4h-60c-4.417969 0-8-3.582031-8-8zm0 0"/>
        <path d="m233.65625 307.433594c-6.207031-6.21875-13.527344-13.714844-15.367188-15.839844-.34375-.566406-.75-1.085938-1.21875-1.554688-3.121093-3.113281-8.171874-3.113281-11.292968 0l-87.3125 87.328126c-7.8125 7.8125-7.8125 20.476562 0 28.289062s20.476562 7.8125 28.289062 0l86.902344-86.914062c3.121094-3.121094 3.121094-8.1875 0-11.308594zm-98.214844 86.902344c-1.5625 1.5625-4.097656 1.566406-5.660156.003906-1.566406-1.5625-1.566406-4.097656-.003906-5.660156l81.328125-81.320313c1.597656 1.679687 3.453125 3.578125 5.597656 5.71875zm0 0"/>
        <path d="m205.265625 51.039062c.46875 0 .9375-.039062 1.398437-.117187 4.351563-.769531 7.257813-4.921875 6.488282-9.273437l-5.601563-31.511719c-.859375-4.253907-4.957031-7.042969-9.226562-6.289063-4.273438.753906-7.167969 4.773438-6.523438 9.0625l5.597657 31.523438c.675781 3.816406 3.988281 6.601562 7.867187 6.605468zm0 0"/>
        <path d="m164.078125 54.800781c1.152344 3.15625 4.152344 5.261719 7.515625 5.261719.933594.003906 1.859375-.160156 2.734375-.488281 4.15625-1.5 6.304687-6.089844 4.800781-10.246094l-10.960937-30.070313c-1.570313-4.066406-6.105469-6.128906-10.199219-4.636718-4.09375 1.488281-6.242188 5.984375-4.832031 10.105468zm0 0"/>
        <path d="m133.070312 70.792969c1.421876 2.496093 4.066407 4.039062 6.9375 4.046875 2.871094.003906 5.527344-1.527344 6.957032-4.015625 1.429687-2.492188 1.414062-5.554688-.035156-8.03125l-16-27.714844c-2.226563-3.792969-7.09375-5.078125-10.902344-2.878906s-5.128906 7.058593-2.957032 10.878906zm0 0"/>
        <path d="m105.320312 91.9375c2.839844 3.390625 7.886719 3.835938 11.28125 1 3.390626-2.839844 3.835938-7.890625 1-11.28125l-20.601562-24.519531c-2.882812-3.203125-7.789062-3.546875-11.089844-.777344-3.300781 2.773437-3.8125 7.660156-1.15625 11.054687zm0 0"/>
        <path d="m81.648438 117.601562c3.390624 2.726563 8.34375 2.238282 11.140624-1.097656 2.796876-3.332031 2.414063-8.292968-.859374-11.160156l-24.503907-20.566406c-3.394531-2.726563-8.34375-2.242188-11.144531 1.09375-2.796875 3.335937-2.414062 8.292968.863281 11.160156zm0 0"/>
        <path d="m35.089844 130.929688 27.710937 16c2.476563 1.449218 5.539063 1.464843 8.03125.035156 2.488281-1.429688 4.019531-4.085938 4.015625-6.957032-.007812-2.871093-1.550781-5.515624-4.046875-6.9375l-27.710937-16c-3.824219-2.171874-8.683594-.851562-10.882813 2.957032s-.914062 8.675781 2.882813 10.902344zm0 0"/>
        <path d="m19.257812 168.167969 30.070313 10.945312c.875.324219 1.800781.488281 2.734375.488281 3.886719 0 7.210938-2.785156 7.886719-6.613281.675781-3.824219-1.496094-7.582031-5.148438-8.910156l-30.074219-10.941406c-4.121093-1.410157-8.617187.738281-10.105468 4.832031-1.492188 4.09375.570312 8.628906 4.636718 10.199219zm0 0"/>
        <path d="m10.136719 207.59375 31.511719 5.558594c.460937.078125.929687.117187 1.398437.121094 4.152344 0 7.613281-3.171876 7.972656-7.308594.363281-4.132813-2.5-7.855469-6.585937-8.574219l-31.523438-5.597656c-4.351562-.765625-8.5 2.140625-9.265625 6.492187-.765625 4.351563 2.140625 8.5 6.492188 9.265625zm0 0"/>
    </symbol>

    <symbol id="calendar" viewBox="0 0 58 58">
        <path d="M42.899,4.5c-0.465-2.279-2.484-4-4.899-4c-0.553,0-1,0.447-1,1s0.447,1,1,1c1.654,0,3,1.346,3,3s-1.346,3-3,3
            c-0.553,0-1,0.447-1,1s0.447,1,1,1c2.414,0,4.434-1.721,4.899-4H56v9H2v-9h14h3c0.553,0,1-0.447,1-1s-0.447-1-1-1h-1.816
            c0.414-1.162,1.514-2,2.816-2c1.654,0,3,1.346,3,3s-1.346,3-3,3c-0.553,0-1,0.447-1,1s0.447,1,1,1c2.757,0,5-2.243,5-5
            s-2.243-5-5-5c-2.414,0-4.434,1.721-4.899,4H0v13v40h58v-40v-13H42.899z M56,55.5H2v-38h54V55.5z"/>
        <path d="M26,2.5c1.654,0,3,1.346,3,3s-1.346,3-3,3c-0.553,0-1,0.447-1,1s0.447,1,1,1c2.757,0,5-2.243,5-5s-2.243-5-5-5
            c-0.553,0-1,0.447-1,1S25.447,2.5,26,2.5z"/>
        <path d="M32,2.5c1.654,0,3,1.346,3,3s-1.346,3-3,3c-0.553,0-1,0.447-1,1s0.447,1,1,1c2.757,0,5-2.243,5-5s-2.243-5-5-5
            c-0.553,0-1,0.447-1,1S31.447,2.5,32,2.5z"/>
        <circle cx="22" cy="24.5" r="1"/>
        <circle cx="29" cy="24.5" r="1"/>
        <circle cx="36" cy="24.5" r="1"/>
        <circle cx="43" cy="24.5" r="1"/>
        <circle cx="50" cy="24.5" r="1"/>
        <circle cx="8" cy="32.5" r="1"/>
        <circle cx="15" cy="32.5" r="1"/>
        <circle cx="22" cy="32.5" r="1"/>
        <circle cx="29" cy="32.5" r="1"/>
        <circle cx="36" cy="32.5" r="1"/>
        <circle cx="43" cy="32.5" r="1"/>
        <circle cx="50" cy="32.5" r="1"/>
        <circle cx="8" cy="39.5" r="1"/>
        <circle cx="15" cy="39.5" r="1"/>
        <circle cx="22" cy="39.5" r="1"/>
        <circle cx="29" cy="39.5" r="1"/>
        <circle cx="36" cy="39.5" r="1"/>
        <circle cx="43" cy="39.5" r="1"/>
        <circle cx="50" cy="39.5" r="1"/>
        <circle cx="8" cy="47.5" r="1"/>
        <circle cx="15" cy="47.5" r="1"/>
        <circle cx="22" cy="47.5" r="1"/>
        <circle cx="29" cy="47.5" r="1"/>
        <circle cx="36" cy="47.5" r="1"/>
    </symbol>

    <symbol id="paper-planer" viewBox="0 0 60.062 60.062">
        <path d="M60.046,11.196c0.004-0.024,0.011-0.048,0.013-0.072c0.007-0.074-0.001-0.149-0.01-0.224
            c-0.002-0.019,0.001-0.037-0.002-0.056c-0.018-0.099-0.051-0.196-0.1-0.289c-0.008-0.016-0.019-0.031-0.028-0.047
            c-0.002-0.002-0.002-0.005-0.003-0.008c-0.001-0.002-0.004-0.003-0.005-0.006c-0.007-0.011-0.013-0.023-0.02-0.033
            c-0.062-0.091-0.137-0.166-0.221-0.23c-0.019-0.014-0.041-0.022-0.061-0.035c-0.074-0.049-0.152-0.089-0.236-0.116
            c-0.037-0.012-0.074-0.018-0.112-0.025c-0.073-0.015-0.146-0.022-0.222-0.02c-0.04,0.001-0.078,0.003-0.118,0.009
            c-0.026,0.004-0.051,0-0.077,0.006L0.798,22.046c-0.413,0.086-0.729,0.421-0.788,0.839s0.15,0.828,0.523,1.025l16.632,8.773
            l2.917,16.187c-0.002,0.012,0.001,0.025,0,0.037c-0.01,0.08-0.011,0.158-0.001,0.237c0.005,0.04,0.01,0.078,0.02,0.117
            c0.023,0.095,0.06,0.184,0.11,0.268c0.01,0.016,0.01,0.035,0.021,0.051c0.003,0.005,0.008,0.009,0.012,0.013
            c0.013,0.019,0.031,0.034,0.046,0.053c0.047,0.058,0.096,0.111,0.152,0.156c0.009,0.007,0.015,0.018,0.025,0.025
            c0.015,0.011,0.032,0.014,0.047,0.024c0.061,0.04,0.124,0.073,0.191,0.099c0.027,0.01,0.052,0.022,0.08,0.03
            c0.09,0.026,0.183,0.044,0.277,0.044c0.001,0,0.002,0,0.003,0h0c0,0,0,0,0,0c0.004,0,0.008-0.002,0.012-0.002
            c0.017,0.001,0.034,0.002,0.051,0.002c0.277,0,0.527-0.124,0.712-0.315l11.079-7.386l11.6,7.54c0.164,0.106,0.354,0.161,0.545,0.161
            c0.105,0,0.212-0.017,0.315-0.051c0.288-0.096,0.518-0.318,0.623-0.604l13.996-37.989c0.013-0.034,0.024-0.069,0.033-0.105
            c0.004-0.015,0.005-0.03,0.008-0.044C60.042,11.22,60.044,11.208,60.046,11.196z M48.464,17.579L24.471,35.22
            c-0.039,0.029-0.07,0.065-0.104,0.099c-0.013,0.012-0.026,0.022-0.037,0.035c-0.021,0.023-0.04,0.046-0.059,0.071
            c-0.018,0.024-0.032,0.049-0.048,0.074c-0.037,0.06-0.068,0.122-0.092,0.188c-0.005,0.013-0.013,0.023-0.017,0.036
            c-0.001,0.004-0.005,0.006-0.006,0.01l-2.75,8.937l-2.179-12.091L48.464,17.579z M22.908,46.594l2.726-9.004l4.244,2.759
            l1.214,0.789l-4.124,2.749L22.908,46.594z M52.044,13.498L18.071,30.899l-14.14-7.458L52.044,13.498z M44.559,47.504L29.154,37.492
            l-2.333-1.517l30.154-22.172L44.559,47.504z"/>
    </symbol>

    <symbol id="letter-opened" viewBox="0 0 368 368">
        <path d="M364.296,113.248l-176-112c-2.624-1.664-5.968-1.664-8.592,0l-176,112c-0.256,0.16-0.4,0.416-0.632,0.6
            c-0.408,0.328-0.768,0.656-1.104,1.056c-0.344,0.408-0.616,0.832-0.872,1.288c-0.232,0.416-0.432,0.832-0.584,1.288
            c-0.184,0.544-0.272,1.088-0.336,1.656C0.136,119.44,0,119.696,0,120v224v8c0,7.72,5.496,14.184,12.776,15.672
            C13.816,367.888,14.896,368,16,368h336c4.2,0,8-1.664,10.856-4.32c0.144-0.136,0.312-0.232,0.456-0.376
            c0.144-0.144,0.24-0.312,0.376-0.456C366.336,360,368,356.2,368,352v-8V128v-8C368,117.264,366.6,114.72,364.296,113.248z
             M184,17.488l167.664,106.688L184,246.112L16.336,124.176L184,17.488z M16,143.712l126.888,92.28L16,328.288V143.712z M352,352H16
            v-3.92l140.488-102.184l22.816,16.584c2.808,2.04,6.6,2.04,9.408,0l22.816-16.584L352,348.072V352z M352,328.288l-126.888-92.296
            L352,143.712V328.288z"/>
    </symbol>

    <symbol id="letter-closed" viewBox="0 0 512 512">
        <path d="M469.333,64H42.667C19.135,64,0,83.135,0,106.667v298.667C0,428.865,19.135,448,42.667,448h426.667
            C492.865,448,512,428.865,512,405.333V106.667C512,83.135,492.865,64,469.333,64z M42.667,85.333h426.667
            c1.572,0,2.957,0.573,4.432,0.897c-36.939,33.807-159.423,145.859-202.286,184.478c-3.354,3.021-8.76,6.625-15.479,6.625
            s-12.125-3.604-15.49-6.635C197.652,232.085,75.161,120.027,38.228,86.232C39.706,85.908,41.094,85.333,42.667,85.333z
             M21.333,405.333V106.667c0-2.09,0.63-3.986,1.194-5.896c28.272,25.876,113.736,104.06,169.152,154.453
            C136.443,302.671,50.957,383.719,22.46,410.893C21.957,409.079,21.333,407.305,21.333,405.333z M469.333,426.667H42.667
            c-1.704,0-3.219-0.594-4.81-0.974c29.447-28.072,115.477-109.586,169.742-156.009c7.074,6.417,13.536,12.268,18.63,16.858
            c8.792,7.938,19.083,12.125,29.771,12.125s20.979-4.188,29.76-12.115c5.096-4.592,11.563-10.448,18.641-16.868
            c54.268,46.418,140.286,127.926,169.742,156.009C472.552,426.073,471.039,426.667,469.333,426.667z M490.667,405.333
            c0,1.971-0.624,3.746-1.126,5.56c-28.508-27.188-113.984-108.227-169.219-155.668c55.418-50.393,140.869-128.57,169.151-154.456
            c0.564,1.91,1.194,3.807,1.194,5.897V405.333z"/>
    </symbol>

    <symbol id="search" viewBox="0 0 481.831 481.831">
        <g>
            <polygon points="288.177,103.764 288.177,103.764 288.177,103.764"/>
            <path d="M293.833,90.108c-45.33-44.936-114.729-54.911-170.88-24.56c-3.879,2.116-5.308,6.977-3.192,10.856
                c2.116,3.879,6.977,5.308,10.856,3.192c49.912-26.994,111.611-18.129,151.904,21.824c1.496,1.506,3.533,2.35,5.656,2.344
                c2.121,0,4.154-0.843,5.654-2.342C296.956,98.298,296.956,93.233,293.833,90.108z"/>
        </g>
        <g>
            <path d="M109.817,83.252c-2.872-3.358-7.922-3.752-11.28-0.88c-2.864,2.448-5.651,5.024-8.36,7.728
                c-1.508,1.504-2.354,3.548-2.35,5.678c0.008,4.418,3.596,7.994,8.014,7.986c2.124,0.004,4.161-0.843,5.656-2.352
                c2.416-2.411,4.896-4.704,7.44-6.88C112.294,91.66,112.688,86.61,109.817,83.252z"/>
        </g>
        <g>
            <path d="M479.489,422.924l0.024-0.024L352.929,296.34c57.641-88.935,32.272-207.759-56.664-265.4
                C207.33-26.702,88.506-1.333,30.865,87.603C10.726,118.676,0.007,154.912,0.001,191.94
                c-0.262,105.848,85.333,191.868,191.181,192.13c37.379,0.092,73.97-10.748,105.267-31.186l126.528,126.552
                c3.124,3.123,8.188,3.123,11.312,0l45.2-45.2C482.612,431.112,482.612,426.048,479.489,422.924z M292.929,336.116
                c-69.909,49.149-165.056,40.806-225.344-19.76C-1.153,247.629-1.161,136.192,67.566,67.454s180.164-68.745,248.902-0.018
                c60.405,60.396,68.722,155.446,19.725,225.416C324.387,309.671,309.748,324.31,292.929,336.116z M428.657,462.468L309.753,343.564
                c1.288-1,2.504-2.088,3.768-3.12c1.08-0.888,2.16-1.768,3.2-2.68c3.792-3.248,7.504-6.584,11.008-10.088
                c3.504-3.504,6.84-7.2,10.088-11.008c0.912-1.064,1.792-2.144,2.68-3.2c1.032-1.264,2.12-2.48,3.12-3.768l118.928,118.88
                L428.657,462.468z"/>
        </g>
    </symbol>
    <symbol id="current-executor" viewBox="0 0 50 60">
        <path d="M48.3,37.2c-0.7,0-1.3,0.7-1.3,1.5v13.6c0,2.5-1.7,4.6-3.8,4.6H7.4c-2.1,0-3.8-2.1-3.8-4.6V12.5c0-2.5,1.7-4.6,3.8-4.6h11.3
	c0.7,0,1.3-0.7,1.3-1.5c0-0.8-0.6-1.5-1.3-1.5H7.4C3.9,4.8,1,8.3,1,12.5v39.8c0,4.2,2.9,7.6,6.4,7.6h35.8c3.5,0,6.4-3.4,6.4-7.6
	V38.7C49.6,37.8,49,37.2,48.3,37.2z"/>
        <path d="M45.3,1.6c-2.9-2.3-7.1-1.8-9.4,1.1L12.7,32.3c-0.2,0.2-0.3,0.4-0.3,0.7l-1.9,12.9c-0.1,0.5,0.1,1.1,0.6,1.4
	c0.4,0.3,1,0.4,1.5,0.2l12.1-5c0.2-0.1,0.4-0.3,0.6-0.5l23.2-29.6c2.3-2.9,1.8-7.1-1.1-9.4L45.3,1.6z"/>
        <path fill="#FFFFFF" d="M14.8,33.7L35.3,7.4l8.5,6.6L23.2,40.3L14.8,33.7z M14.3,36l7.1,5.6l-8.5,3.5L14.3,36z M46.7,10.6l-1.5,1.9
	l-8.7-6.8l1.5-1.9c1.4-1.8,4-2.1,5.8-0.7L46,4.8C47.8,6.2,48.1,8.8,46.7,10.6z"/>
    </symbol>
    <symbol id="isEnd" viewBox="0 0 50 60">
        <path d="M42.7,17c-0.7,0-1.2,0.7-1.2,1.5v39.3H2.8V8.6h30.1c0.7,0,1.2-0.7,1.2-1.5s-0.6-1.5-1.2-1.5H1.5c-0.7,0-1.2,0.7-1.2,1.5
	v51.4c0,0.9,0.6,1.5,1.2,1.5h41.1c0.7,0,1.2-0.7,1.2-1.5V18.6C43.9,17.7,43.4,17,42.7,17z"/>
        <path class="st09999" d="M49.7,0.4c-0.4-0.6-1.1-0.6-1.6,0L18.8,37.9l-7.3-9.3c-0.4-0.6-1.1-0.6-1.6,0c-0.4,0.6-0.4,1.4,0,2l8,10.3
	c0.2,0.3,0.5,0.4,0.8,0.4s0.6-0.1,0.8-0.4L49.7,2.4C50.1,1.9,50.1,1,49.7,0.4z"/>
    </symbol>
    <symbol id="pencil-rule" viewBox="0 0 512 512">
        <path d="M399.32,399.36c-13.653,12.8-13.653,34.133,0,47.787c6.827,6.827,15.36,10.24,23.893,10.24s17.067-3.413,23.893-10.24
				c13.653-12.8,13.653-34.133,0-47.787C434.307,385.707,412.973,385.707,399.32,399.36z M435.16,436.053
				c-6.827,6.827-17.067,6.827-23.893,0s-6.827-17.067,0-23.893c3.413-3.413,7.68-5.12,11.947-5.12s8.533,1.707,11.947,5.12
				C441.987,418.987,441.987,429.227,435.16,436.053z"/>
        <path d="M505.133,409.6L351.533,256l60.587-60.587c0,0,0.001-0.001,0.001-0.001l35.839-35.839c0,0,0.001-0.001,0.001-0.001
				l52.052-52.052c14.507-14.507,14.507-38.4,0-52.907l-43.52-43.52C449.667,4.267,440.28,0,430.04,0s-19.627,4.267-26.453,11.093
				l-52.053,52.053l-35.84,35.84l-60.587,60.587L103.213,7.68c-9.387-9.387-26.453-9.387-35.84,0L6.787,68.267
				c-10.24,9.387-10.24,25.6,0,35.84l17.92,17.92l0,0c0,0,0,0,0,0l48.64,48.64c0,0,0,0,0,0s0,0,0,0l47.786,47.786c0,0,0,0,0,0
				c0,0,0,0,0.001,0.001L158.68,256L21.694,392.986c-2.554,1.127-3.931,3.43-4.667,6.374l-17.92,102.4
				c0,3.413,0.853,5.973,2.56,7.68C3.373,511.147,5.08,512,7.64,512c0.853,0,0.853,0,1.707,0l98.445-18.2
				c0.681,0.18,1.416,0.28,2.248,0.28c2.56,0,5.12-0.853,5.973-2.56l139.093-139.093l11.093,11.093c0,0,0,0,0.001,0.001
				c0,0,0.001,0.001,0.001,0.001l23.892,23.892c0,0,0,0,0.001,0.001c0,0,0.001,0.001,0.001,0.001l118.612,118.612
				c4.267,4.267,9.387,5.973,14.507,5.973s10.24-1.707,13.653-5.973l68.267-68.267C512.813,430.08,512.813,417.28,505.133,409.6z
				 M110.04,472.747l-29.858-29.858l283.716-282.898l29.449,29.449L110.04,472.747z M415.533,23.04c7.68-7.68,21.333-7.68,29.013,0
				l43.52,43.52c7.68,7.68,7.68,21.333,0,29.013l-46.08,46.08L369.453,69.12L415.533,23.04z M357.507,81.067l36.267,36.267
				L430.04,153.6l-23.893,23.893l-72.533-72.533L357.507,81.067z M163.373,236.8l18.347-18.347c3.413-3.413,3.413-8.533,0-11.947
				s-8.533-3.413-11.947,0l-18.347,18.347l-12.373-12.373l29.867-29.867c3.413-3.413,3.413-8.533,0-11.947s-8.533-3.413-11.947,0
				l-29.867,29.867l-11.947-11.947l17.92-17.92c3.413-3.413,3.413-8.533,0-11.947s-8.533-3.413-11.947,0l-17.92,17.92
				l-11.947-11.947l29.867-29.867c3.413-3.413,3.413-8.533,0-11.947s-8.533-3.413-11.947,0L79.32,152.747l-12.8-12.8l17.92-17.92
				c3.413-3.413,3.413-8.533,0-11.947s-8.533-3.413-11.947,0L54.573,128l-11.947-11.947l29.867-29.867
				c3.413-3.413,3.413-8.533,0-11.947s-8.533-3.413-11.947,0L30.68,104.107L18.733,92.16c-3.413-3.413-3.413-8.533,0-11.947
				L79.32,19.627c1.707-1.707,3.413-2.56,5.973-2.56c1.707,0,4.267,0.853,5.973,2.56L243.16,171.52l-72.533,72.533L163.373,236.8z
				 M321.667,117.76l29.858,29.858L67.809,430.516L38.36,401.067L321.667,117.76z M31.533,418.133l27.996,27.996
				c0.426,0.975,1.047,1.9,1.871,2.724l30.846,30.845l-73.512,12.674L31.533,418.133z M493.187,425.813L424.92,494.08
				c-0.853,0.853-3.413,0.853-4.267,0l-88.32-88.32l30.293-30.293c3.413-3.413,3.413-8.533,0-11.947
				c-3.413-3.413-8.533-3.413-11.947,0l-30.293,30.293l-12.373-12.373l17.92-17.92c3.413-3.413,3.413-8.533,0-11.947
				c-3.413-3.413-8.533-3.413-11.947,0l-17.92,17.92l-11.947-11.947l29.867-29.867c3.413-3.413,3.413-8.533,0-11.947
				c-3.413-3.413-8.533-3.413-11.947,0L272.173,345.6l-5.12-5.12l72.533-72.533l153.6,153.6
				C494.04,422.4,494.04,424.96,493.187,425.813z"/>
    </symbol>
    <symbol id="star" viewBox="0 0 512 491.5">
        <path class="st0" d="M268.1,9.4l65.1,154.1L500,177.9c11.6,1,16.3,15.4,7.5,23L381,310.5l37.9,163c2.6,11.3-9.6,20.2-19.6,14.2
			L256,401.3l-143.3,86.4c-10,6-22.2-2.9-19.6-14.2l37.9-163L4.5,200.9c-8.8-7.6-4.1-22,7.5-23l166.7-14.3L243.9,9.4
			C248.4-1.3,263.6-1.3,268.1,9.4L268.1,9.4z"/>
    </symbol>
    <symbol id="hourglass" viewBox="0 0 50 60">
        <path d="M49,58h-3v-4h-5V43.8c0-2.7-1.3-5.2-3.6-6.7L26.8,30l10.6-7.1c2.2-1.5,3.6-4,3.6-6.7V6h5V2h3c0.6,0,1-0.4,1-1s-0.4-1-1-1
		h-3h-1H5H4H1C0.4,0,0,0.4,0,1s0.4,1,1,1h3v4h5v10.2c0,2.7,1.3,5.2,3.6,6.7L23.2,30l-10.6,7.1c-2.2,1.5-3.6,4-3.6,6.7V54H4v4H1
		c-0.6,0-1,0.4-1,1s0.4,1,1,1h3h1h40h1h3c0.6,0,1-0.4,1-1S49.6,58,49,58z M6,4V2h38v2h-3H9H6z M13.7,21.3c-1.7-1.1-2.7-3-2.7-5V6h28
		v10.2c0,2-1,3.9-2.7,5L25,28.8L13.7,21.3z M11,43.8c0-2,1-3.9,2.7-5L25,31.2l11.3,7.5c1.7,1.1,2.7,3,2.7,5V54H11V43.8z M6,56h3h32
		h3v2H6V56z"/>
        <path d="M15.9,17.9c-0.6-0.4-0.9-1-0.9-1.7V14c0-0.6-0.4-1-1-1s-1,0.4-1,1v2.2c0,1.4,0.7,2.6,1.8,3.4l4.6,3.1
		c0.2,0.1,0.4,0.2,0.6,0.2c0.3,0,0.6-0.2,0.8-0.4c0.3-0.5,0.2-1.1-0.3-1.4L15.9,17.9z"/>
        <path d="M35.2,41.3l-4.6-3.1c-0.5-0.3-1.1-0.2-1.4,0.3c-0.3,0.5-0.2,1.1,0.3,1.4l4.6,3.1c0.6,0.4,0.9,1,0.9,1.7v2.2
		c0,0.6,0.4,1,1,1s1-0.4,1-1v-2.2C37,43.3,36.3,42,35.2,41.3z"/>
    </symbol>
    <symbol id="verified" viewBox="0 0 512 512">
        <path d="M437.019,74.98C388.667,26.629,324.38,0,256,0C187.619,0,123.331,26.629,74.98,74.98C26.628,123.332,0,187.62,0,256
        s26.628,132.667,74.98,181.019C123.332,485.371,187.619,512,256,512c68.38,0,132.667-26.629,181.019-74.981
        C485.371,388.667,512,324.38,512,256S485.371,123.333,437.019,74.98z M256,482C131.383,482,30,380.617,30,256S131.383,30,256,30
        s226,101.383,226,226S380.617,482,256,482z"/>
        <path d="M378.305,173.859c-5.857-5.856-15.355-5.856-21.212,0.001L224.634,306.319l-69.727-69.727
        c-5.857-5.857-15.355-5.857-21.213,0c-5.858,5.857-5.858,15.355,0,21.213l80.333,80.333c2.929,2.929,6.768,4.393,10.606,4.393
        c3.838,0,7.678-1.465,10.606-4.393l143.066-143.066C384.163,189.215,384.163,179.717,378.305,173.859z"/>
    </symbol>
    <symbol id="plus" viewBox="0 0 52 52">
        <path d="M26,0C11.664,0,0,11.663,0,26s11.664,26,26,26s26-11.663,26-26S40.336,0,26,0z M38.5,28H28v11c0,1.104-0.896,2-2,2
	s-2-0.896-2-2V28H13.5c-1.104,0-2-0.896-2-2s0.896-2,2-2H24V14c0-1.104,0.896-2,2-2s2,0.896,2,2v10h10.5c1.104,0,2,0.896,2,2
	S39.604,28,38.5,28z"/>
    </symbol>
    <symbol id="bars_menu" viewBox="0 0 300 232.5">
        <path d="M276.5,47h-253C10.6,47,0,36.4,0,23.5v0C0,10.6,10.6,0,23.5,0h253C289.4,0,300,10.6,300,23.5v0C300,36.4,289.4,47,276.5,47z
	"/>
        <path d="M201.5,139h-178C10.6,139,0,128.4,0,115.5v0C0,102.6,10.6,92,23.5,92h178c12.9,0,23.5,10.6,23.5,23.5v0
	C225,128.4,214.4,139,201.5,139z"/>
        <path d="M137.5,231h-114C10.6,231,0,220.4,0,207.5v0C0,194.6,10.6,184,23.5,184h114c12.9,0,23.5,10.6,23.5,23.5v0
	C161,220.4,150.4,231,137.5,231z"/>
    </symbol>

    <symbol id="loading" viewBox="0 0 120 30" fill="#6b2b9a">
        <circle cx="15" cy="15" r="15">
            <animate attributeName="r" from="15" to="15"
                     begin="0s" dur="0.8s"
                     values="15;9;15" calcMode="linear"
                     repeatCount="indefinite"/>
            <animate attributeName="fill-opacity" from="1" to="1"
                     begin="0s" dur="0.8s"
                     values="1;.5;1" calcMode="linear"
                     repeatCount="indefinite"/>
        </circle>
        <circle cx="60" cy="15" r="9" fill-opacity="0.3">
            <animate attributeName="r" from="9" to="9"
                     begin="0s" dur="0.8s"
                     values="9;15;9" calcMode="linear"
                     repeatCount="indefinite"/>
            <animate attributeName="fill-opacity" from="0.5" to="0.5"
                     begin="0s" dur="0.8s"
                     values=".5;1;.5" calcMode="linear"
                     repeatCount="indefinite"/>
        </circle>
        <circle cx="105" cy="15" r="15">
            <animate attributeName="r" from="15" to="15"
                     begin="0s" dur="0.8s"
                     values="15;9;15" calcMode="linear"
                     repeatCount="indefinite"/>
            <animate attributeName="fill-opacity" from="1" to="1"
                     begin="0s" dur="0.8s"
                     values="1;.5;1" calcMode="linear"
                     repeatCount="indefinite"/>
        </circle>
    </symbol>

    <symbol id="add" viewBox="0 0 448 448">
        <path d="m408 184h-136c-4.417969 0-8-3.582031-8-8v-136c0-22.089844-17.910156-40-40-40s-40 17.910156-40 40v136c0 4.417969-3.582031 8-8 8h-136c-22.089844 0-40 17.910156-40 40s17.910156 40 40 40h136c4.417969 0 8 3.582031 8 8v136c0 22.089844 17.910156 40 40 40s40-17.910156 40-40v-136c0-4.417969 3.582031-8 8-8h136c22.089844 0 40-17.910156 40-40s-17.910156-40-40-40zm0 0"/>
    </symbol>
    <symbol id="add-to-basket" viewBox="0 0 60 60">
        <path id="Shape"
              d="m45 32h-3c-.5522847 0-1 .4477153-1 1s.4477153 1 1 1h3c.5522847 0 1-.4477153 1-1s-.4477153-1-1-1z"/>
        <path id="Shape"
              d="m57 24h-14.59l2-2c1.1449301.5473673 2.5104186.3151142 3.41-.58l11.3-11.3c1.1698135-1.17127019 1.1698135-3.06872981 0-4.24-1.1884135-1.12762879-3.0515865-1.12762879-4.24 0l-11.32 11.31c-.8883212.9042164-1.112478 2.2691714-.56 3.41l-3.41 3.4h-19.18l-3.41-3.4c.5499184-1.1428787.3217146-2.5080981-.57-3.41l-11.31-11.31c-1.18841352-1.12762879-3.05158648-1.12762879-4.24 0-1.16981351 1.17127019-1.16981351 3.06872981 0 4.24l11.31 11.31c.9019019.8917146 2.2671213 1.1199184 3.41.57l2 2h-14.6c-1.65685425 0-3 1.3431458-3 3v4c0 1.6568542 1.34314575 3 3 3h.23l6 22.3c.58894675 2.1873029 2.5748018 3.7054152 4.84 3.7h31.86c2.2651982.0054152 4.2510532-1.5126971 4.84-3.7l6-22.3h.23c1.6568542 0 3-1.3431458 3-3v-4c0-1.6568542-1.3431458-3-3-3zm-12-5.39 11.29-11.32c.1887188-.18718651.444197-.29153676.71-.29.4062651-.00236262.77358.24130378.929371.61651849.1557909.37521472.0690889.80739105-.219371 1.09348151l-11.32 11.29c-.3971516.2717551-.9315392.2220981-1.2718186-.1181814-.3402795-.3402794-.3899365-.874667-.1181814-1.2718186zm-31.39 1.39-11.32-11.29c-.25365858-.25365857-.35272353-.62337399-.25987805-.96987804.09284548-.34650406.36349595-.61715453.71000001-.71000001.34650405-.09284548.71621947.00621947.96987804.25987805l11.29 11.32c.1847442.1862606.2888954.4376601.29.7-.0165343.3898121-.2582746.7344118-.6191828.8826419-.3609081.1482301-.7750707.0730192-1.0608172-.1926419zm44.39 11c0 .5522847-.4477153 1-1 1h-6c-.5522847 0-1 .4477153-1 1s.4477153 1 1 1h3.7l-5.87 21.78c-.352984 1.3109431-1.542367 2.2214362-2.9 2.22h-31.86c-1.357633.0014362-2.547016-.9090569-2.9-2.22l-5.87-21.78h31.7c.5522847 0 1-.4477153 1-1s-.4477153-1-1-1h-34c-.55228475 0-1-.4477153-1-1v-4c0-.5522847.44771525-1 1-1h54c.5522847 0 1 .4477153 1 1z"/>
        <path id="Shape"
              d="m18 37c-2.209139 0-4 1.790861-4 4v10c0 2.209139 1.790861 4 4 4s4-1.790861 4-4v-10c0-2.209139-1.790861-4-4-4zm2 14c0 1.1045695-.8954305 2-2 2s-2-.8954305-2-2v-10c0-1.1045695.8954305-2 2-2s2 .8954305 2 2z"/>
        <path id="Shape"
              d="m30 37c-2.209139 0-4 1.790861-4 4v10c0 2.209139 1.790861 4 4 4s4-1.790861 4-4v-10c0-2.209139-1.790861-4-4-4zm2 14c0 1.1045695-.8954305 2-2 2s-2-.8954305-2-2v-10c0-1.1045695.8954305-2 2-2s2 .8954305 2 2z"/>
        <path id="Shape"
              d="m42 37c-2.209139 0-4 1.790861-4 4v10c0 2.209139 1.790861 4 4 4s4-1.790861 4-4v-10c0-2.209139-1.790861-4-4-4zm2 14c0 1.1045695-.8954305 2-2 2s-2-.8954305-2-2v-10c0-1.1045695.8954305-2 2-2s2 .8954305 2 2z"/>
        <path id="Shape"
              d="m35 0h-10c-1.1045695 0-2 .8954305-2 2v6h-2.59c-.8063114.00338536-1.5317303.49062584-1.8398346 1.23575754s-.138627 1.60240256.4298346 2.17424246l9.59 9.59c.7800749.7754472 2.0399251.7754472 2.82 0l9.59-9.59c.5684616-.5718399.7379389-1.42911076.4298346-2.17424246s-1.0335232-1.23237218-1.8398346-1.23575754h-2.59v-6c0-1.1045695-.8954305-2-2-2zm4.59 10-9.59 9.59-9.59-9.59h2.59c1.1045695 0 2-.8954305 2-2v-6h10v6c0 1.1045695.8954305 2 2 2z"/>
    </symbol>
    <symbol id="box" viewBox="0 0 494.4 461.4">
        <path d="M464.1,198.4h-24.9c-2.9-10.6-12.5-17.9-23.4-18h-26.6v-65c0.1-2.5-1.2-4.8-3.3-6.1L198.3,0.9c-2.2-1.3-4.8-1.3-7,0
	L3.7,109.3c-2.2,1.3-3.5,3.6-3.5,6.1V332c0,2.5,1.3,4.8,3.5,6.1l187.7,108.3c1.1,0.6,2.3,0.9,3.5,0.9c1.3,0,2.5-0.3,3.6-0.9l98.7-57
	v41.2c0,16.4,13.2,29.7,29.6,29.7c0.1,0,0.2,0,0.3,0h137c16.5,0.2,29.9-13.1,30.1-29.5c0-0.1,0-0.1,0-0.2V228.5
	C494.2,211.9,480.7,198.4,464.1,198.4z M416,194.4c5.6,0,10.2,4.5,10.2,10.2l0,0v0.7c0,5.6-4.5,10.2-10.2,10.2c0,0,0,0,0,0h-40.7
	c-5.6,0-10.2-4.5-10.2-10.2l0,0v-0.7c0-5.6,4.5-10.2,10.2-10.2c0,0,0,0,0,0H416z M194.8,15.1l78,45L99.2,160.4l-78-45L194.8,15.1z
	 M188.2,428.2L14.2,328V127.5l174,100.3V428.2z M194.8,215.6l-81.7-47.2L286.8,68.2l81.7,47.2L194.8,215.6z M297.2,228.5v144.8
	l-95,54.9V227.7l173-100.3v52.9h0.2c-10.9,0.1-20.5,7.4-23.4,18h-24.9C310.5,198.4,297.1,212,297.2,228.5z M480.2,430.6
	c0,8.7-7.1,15.8-15.9,15.7c-0.1,0-0.1,0-0.2,0h-137c-8.6,0.1-15.7-6.7-15.9-15.4c0-0.1,0-0.2,0-0.4V228.5c-0.1-8.8,7-16.1,15.9-16.2
	c0,0,0,0,0,0h25.2c3.1,10.2,12.5,17.1,23.1,17h40.4c10.6,0.1,20.1-6.8,23.1-17h25.2c8.9,0.1,16.1,7.3,16.1,16.2V430.6z"/>
        <path d="M335.1,299.4h7.3c3.9,0,7-3.1,7-7s-3.1-7-7-7h-0.3v-19h19.3c0.9,2.9,3.6,4.8,6.7,4.7c3.9,0,7-3.1,7-7v-4.7
	c0-3.9-3.2-7-7.1-7h-33c-3.9,0-7,3.2-6.9,7c0,0,0,0,0,0v33C328.2,296.2,331.3,299.3,335.1,299.4
	C335.1,299.4,335.1,299.4,335.1,299.4z"/>
        <path d="M335.2,363.4h33c3.9,0,7-3.1,7-7v-33c0-3.9-3.1-7-7-7h-33c-3.9,0-7,3.1-7,7v33C328.2,360.2,331.3,363.4,335.2,363.4z
	 M342.2,330.4h19v19h-19V330.4z"/>
        <path d="M342.5,413.4h-0.3v-19h18.9c0.1,3.9,3.3,7,7.2,6.9c3.8-0.1,6.8-3.1,6.9-6.9v-6.7c0-3.9-3.1-7.1-7.1-7.3h-33
	c-3.9,0.1-7,3.4-6.9,7.3v33c0,3.7,3,6.8,6.7,6.8c0.1,0,0.1,0,0.2,0h7.3c3.9,0,7-3.1,7-7S346.3,413.4,342.5,413.4L342.5,413.4z"/>
        <path d="M384.2,261l-20.5,20.5l-6.2-6.2c-2.7-2.7-7.2-2.7-9.9,0s-2.7,7.2,0,9.9l11.2,11.2c2.7,2.7,7.2,2.7,9.9,0c0,0,0,0,0,0
	l25.5-25.5c2.7-2.7,2.7-7.2,0-9.9S387,258.2,384.2,261L384.2,261z"/>
        <path d="M384.2,390.2l-20.5,20.5l-6.2-6.2c-2.7-2.7-7.2-2.7-9.9,0s-2.7,7.2,0,9.9l11.2,11.2c2.7,2.7,7.2,2.7,9.9,0c0,0,0,0,0,0
	l25.5-25.5c2.7-2.7,2.7-7.2,0-9.9S387,387.5,384.2,390.2L384.2,390.2z"/>
        <path d="M456,269.4h-44c-3.9,0-7,3.1-7,7s3.1,7,7,7h44c3.9,0,7-3.1,7-7S459.9,269.4,456,269.4z"/>
        <path d="M456,333.4h-44c-3.9,0-7,3.1-7,7s3.1,7,7,7h44c3.9,0,7-3.1,7-7S459.9,333.4,456,333.4z"/>
        <path d="M456,397.4h-44c-3.9,0-7,3.1-7,7s3.1,7,7,7h44c3.9,0,7-3.1,7-7S459.9,397.4,456,397.4z"/>

    </symbol>

    <symbol id="edit" viewBox="0 0 55.25 55.25">
        <path d="M52.618,2.631c-3.51-3.508-9.219-3.508-12.729,0L3.827,38.693C3.81,38.71,3.8,38.731,3.785,38.749
	c-0.021,0.024-0.039,0.05-0.058,0.076c-0.053,0.074-0.094,0.153-0.125,0.239c-0.009,0.026-0.022,0.049-0.029,0.075
	c-0.003,0.01-0.009,0.02-0.012,0.03l-3.535,14.85c-0.016,0.067-0.02,0.135-0.022,0.202C0.004,54.234,0,54.246,0,54.259
	c0.001,0.114,0.026,0.225,0.065,0.332c0.009,0.025,0.019,0.047,0.03,0.071c0.049,0.107,0.11,0.21,0.196,0.296
	c0.095,0.095,0.207,0.168,0.328,0.218c0.121,0.05,0.25,0.075,0.379,0.075c0.077,0,0.155-0.009,0.231-0.027l14.85-3.535
	c0.027-0.006,0.051-0.021,0.077-0.03c0.034-0.011,0.066-0.024,0.099-0.039c0.072-0.033,0.139-0.074,0.201-0.123
	c0.024-0.019,0.049-0.033,0.072-0.054c0.008-0.008,0.018-0.012,0.026-0.02l36.063-36.063C56.127,11.85,56.127,6.14,52.618,2.631z
	 M51.204,4.045c2.488,2.489,2.7,6.397,0.65,9.137l-9.787-9.787C44.808,1.345,48.716,1.557,51.204,4.045z M46.254,18.895l-9.9-9.9
	l1.414-1.414l9.9,9.9L46.254,18.895z M4.961,50.288c-0.391-0.391-1.023-0.391-1.414,0L2.79,51.045l2.554-10.728l4.422-0.491
	l-0.569,5.122c-0.004,0.038,0.01,0.073,0.01,0.11c0,0.038-0.014,0.072-0.01,0.11c0.004,0.033,0.021,0.06,0.028,0.092
	c0.012,0.058,0.029,0.111,0.05,0.165c0.026,0.065,0.057,0.124,0.095,0.181c0.031,0.046,0.062,0.087,0.1,0.127
	c0.048,0.051,0.1,0.094,0.157,0.134c0.045,0.031,0.088,0.06,0.138,0.084C9.831,45.982,9.9,46,9.972,46.017
	c0.038,0.009,0.069,0.03,0.108,0.035c0.036,0.004,0.072,0.006,0.109,0.006c0,0,0.001,0,0.001,0c0,0,0.001,0,0.001,0h0.001
	c0,0,0.001,0,0.001,0c0.036,0,0.073-0.002,0.109-0.006l5.122-0.569l-0.491,4.422L4.204,52.459l0.757-0.757
	C5.351,51.312,5.351,50.679,4.961,50.288z M17.511,44.809L39.889,22.43c0.391-0.391,0.391-1.023,0-1.414s-1.023-0.391-1.414,0
	L16.097,43.395l-4.773,0.53l0.53-4.773l22.38-22.378c0.391-0.391,0.391-1.023,0-1.414s-1.023-0.391-1.414,0L10.44,37.738
	l-3.183,0.354L34.94,10.409l9.9,9.9L17.157,47.992L17.511,44.809z M49.082,16.067l-9.9-9.9l1.415-1.415l9.9,9.9L49.082,16.067z"/>
    </symbol>
    <symbol id="mail" viewBox="0 0 611.8 496.6">
        <path d="M410,142.8h0.1l97.1-1.5c4.8-0.1,8.7-4,8.6-8.9c-0.1-4.8-4-8.7-8.9-8.6l-97.1,1.5c-4.8,0-8.7,4-8.7,8.8
	C401.3,138.9,405.2,142.8,410,142.8z"/>
        <path d="M457.1,183H457l-46.2,0.7c-4.8,0-8.7,4-8.7,8.8c0,4.8,4,8.7,8.8,8.7h0.1l46.2-0.7c4.8,0,8.7-4,8.7-8.8
	C465.8,186.8,461.9,182.9,457.1,183z"/>
        <path d="M16.6,477c0.4,0.4,0.8,0.7,1.3,1c11,11.5,26.2,18,42.2,18h349c15.9,0,31.1-6.5,42.1-17.9c1.2-0.8,2.2-1.9,2.9-3.2
	c8.8-10.5,13.6-23.7,13.5-37.4V304.5c15-0.9,29.8-4,43.9-9.2l81.1,12.9c3.2,0.5,6.3-0.8,8.3-3.3c2-2.5,2.4-5.9,1.1-8.9l-22.6-50.9
	c39.8-51.9,41.9-123.5,5.3-177.7C548.1,13.3,480.9-11.3,417.9,6.3S310.2,79.9,307,145.2h-247c-29.4,0-54.3,21.9-58.1,51.1
	c-0.5,1.3-0.6,2.8-0.4,4.1c-0.1,1.1-0.1,2.2-0.1,3.3v233.6c0,13.7,4.8,26.9,13.5,37.4C15.4,475.6,16,476.4,16.6,477z M60.1,478.6
	c-8.9,0-17.6-2.9-24.7-8.2l105.3-107.7c2.2-2.2,3.1-5.5,2.2-8.5c-0.8-3-3.2-5.4-6.3-6.1c-3-0.8-6.3,0.2-8.4,2.4L23.9,457.1
	c-3.3-6-5-12.8-5-19.6V218l181,153.3c20,17,49.3,17,69.3,0l106.1-90c0.2-0.2,0.5-0.4,0.7-0.7l0.2-0.2c22.1,14.4,47.6,22.7,73.9,24.1
	v132.9c0,6.9-1.7,13.7-5,19.7L340.3,350.4c-2.2-2.3-5.4-3.2-8.4-2.4c-3,0.8-5.4,3.1-6.3,6.2c-0.8,3,0,6.3,2.3,8.5l105.8,107.7
	c-7.1,5.3-15.7,8.2-24.6,8.2L60.1,478.6z M362.3,59C412.5,6.9,495,3.9,548.9,52.1c53.9,48.3,60,130.5,13.8,186.2
	c-2.1,2.6-2.6,6.1-1.2,9.1l18.2,41.1L512,277.7c-1.5-0.2-3.1-0.1-4.5,0.5c-42.3,16.5-90,10.5-126.9-16c-0.2-0.2-0.4-0.3-0.6-0.5
	c-5.2-3.8-10.2-8-14.8-12.4C311.8,197.5,310.5,112.3,362.3,59z M60.1,162.7h247.1c2.4,37.6,18.7,73,45.8,99.1c2.9,2.8,5.9,5.5,8.9,8
	L258,358c-13.5,11.5-33.3,11.5-46.7,0L19.7,195.8C23.6,176.6,40.4,162.7,60.1,162.7z"/>
    </symbol>
    <symbol id="envelope" viewBox="0 0 483.3 483.3">
        <path d="M424.3,57.75H59.1c-32.6,0-59.1,26.5-59.1,59.1v249.6c0,32.6,26.5,59.1,59.1,59.1h365.1c32.6,0,59.1-26.5,59.1-59.1
			v-249.5C483.4,84.35,456.9,57.75,424.3,57.75z M456.4,366.45c0,17.7-14.4,32.1-32.1,32.1H59.1c-17.7,0-32.1-14.4-32.1-32.1v-249.5
			c0-17.7,14.4-32.1,32.1-32.1h365.1c17.7,0,32.1,14.4,32.1,32.1v249.5H456.4z"/>
        <path d="M304.8,238.55l118.2-106c5.5-5,6-13.5,1-19.1c-5-5.5-13.5-6-19.1-1l-163,146.3l-31.8-28.4c-0.1-0.1-0.2-0.2-0.2-0.3
			c-0.7-0.7-1.4-1.3-2.2-1.9L78.3,112.35c-5.6-5-14.1-4.5-19.1,1.1c-5,5.6-4.5,14.1,1.1,19.1l119.6,106.9L60.8,350.95
			c-5.4,5.1-5.7,13.6-0.6,19.1c2.7,2.8,6.3,4.3,9.9,4.3c3.3,0,6.6-1.2,9.2-3.6l120.9-113.1l32.8,29.3c2.6,2.3,5.8,3.4,9,3.4
			c3.2,0,6.5-1.2,9-3.5l33.7-30.2l120.2,114.2c2.6,2.5,6,3.7,9.3,3.7c3.6,0,7.1-1.4,9.8-4.2c5.1-5.4,4.9-14-0.5-19.1L304.8,238.55z"/>
    </symbol>
    <symbol id="list" viewBox="0 0 60.1 43.9">
        <path d="M57.1,43.7H16.9c-1.7,0-3-1.3-3-3s1.3-3,3-3h40.2c1.7,0,3,1.3,3,3S58.8,43.7,57.1,43.7z"/>
        <path d="M57.1,24.9H16.9c-1.7,0-3-1.3-3-3s1.3-3,3-3h40.2c1.7,0,3,1.3,3,3C60.1,23.6,58.8,24.9,57.1,24.9z"/>
        <path d="M57.1,6.1H16.9c-1.7,0-3-1.3-3-3s1.3-3,3-3h40.2c1.7,0,3,1.3,3,3S58.8,6.1,57.1,6.1z"/>
        <circle cx="4" cy="3.3" r="4"/>
        <circle cx="4" cy="21.9" r="4"/>
        <circle cx="4" cy="40.5" r="4"/>
    </symbol>
    <symbol id="menu-dots" viewBox="0 0 53.5 210">
        <path d="M36.5,0h-20c-8.3,0-15,6.7-15,15v20c0,8.3,6.7,15,15,15h20c8.3,0,15-6.7,15-15V15C51.5,6.7,44.8,0,36.5,0z"/>
        <path d="M36.5,80h-20c-8.3,0-15,6.7-15,15v20c0,8.3,6.7,15,15,15h20c8.3,0,15-6.7,15-15V95C51.5,86.7,44.8,80,36.5,80z"/>
        <path d="M36.5,160h-20c-8.3,0-15,6.7-15,15v20c0,8.3,6.7,15,15,15h20c8.3,0,15-6.7,15-15v-20C51.5,166.7,44.8,160,36.5,160z"/>
    </symbol>
    <symbol id="browser" viewBox="0 0 512 512">
        <circle id="Oval" cx="42.7" cy="145.1" r="8.5"/>
        <circle id="Oval_1_" cx="76.8" cy="145.1" r="8.5"/>
        <circle id="Oval_2_" cx="110.9" cy="145.1" r="8.5"/>
        <path id="Shape" d="M52.7,374.2h20c5.5,0,10-4.5,10-10c0-5.5-4.5-10-10-10h-20c-5.5,0-10,4.5-10,10
	C42.7,369.7,47.2,374.2,52.7,374.2z"/>
        <path id="Shape_1_" d="M263,354.2H112.8c-5.5,0-10,4.5-10,10c0,5.5,4.5,10,10,10H263c5.5,0,10-4.5,10-10
	C273.1,358.6,268.6,354.2,263,354.2z"/>
        <path id="Shape_2_" d="M72.7,449.3h-20c-5.5,0-10,4.5-10,10c0,5.5,4.5,10,10,10h20c5.5,0,10-4.5,10-10
	C82.7,453.8,78.3,449.3,72.7,449.3z"/>
        <path id="Shape_3_" d="M263,449.3H112.8c-5.5,0-10,4.5-10,10c0,5.5,4.5,10,10,10H263c5.5,0,10-4.5,10-10
	C273.1,453.8,268.6,449.3,263,449.3z"/>
        <path id="Shape_4_"
              d="M263,400.2h-20c-5.5,0-10,4.5-10,10s4.5,10,10,10h20c5.5,0,10-4.5,10-10S268.6,400.2,263,400.2z"/>
        <path id="Shape_5_"
              d="M52.7,420.3h150.3c5.5,0,10-4.5,10-10s-4.5-10-10-10H52.7c-5.5,0-10,4.5-10,10S47.2,420.3,52.7,420.3z"/>
        <path id="Shape_6_" d="M315.7,153.6c4.7,0,8.5-3.8,8.5-8.5c0-33,26.8-59.7,59.7-59.7c4.7,0,8.5-3.8,8.5-8.5c0-4.7-3.8-8.5-8.5-8.5
	c-42.4,0-76.8,34.4-76.8,76.8c0,2.3,0.9,4.4,2.5,6C311.3,152.7,313.5,153.6,315.7,153.6z"/>
        <path id="Shape_7_" d="M494.9,249v-104c0-44.8-27-85.1-68.3-102.4C426.7,19.1,407.6,0,384,0c-23.6,0-42.7,19.1-42.7,42.7
	c-27,11.3-48.4,32.8-59.7,59.7H42.7C19.1,102.4,0,121.5,0,145.1v324.3C0,492.9,19.1,512,42.7,512h392.5c23.6,0,42.6-19.1,42.7-42.7
	V307.2h17.1c9.4,0,17.1-7.6,17.1-17.1v-17.1C512,262.3,505.1,252.6,494.9,249z M384,17.1c12,0,22.3,8.3,24.9,20
	c-16.4-3.9-33.5-3.9-49.9,0C361.7,25.4,372,17.1,384,17.1z M384,51.2c51.8,0.1,93.8,42.1,93.9,93.9v102.4H290.1V145.1
	C290.2,93.3,332.2,51.3,384,51.2z M42.7,119.5h233.5c-2,8.4-3.1,17-3.1,25.6v25.6h-256v-25.6C17.1,130.9,28.5,119.5,42.7,119.5
	L42.7,119.5z M460.8,469.3c0,14.1-11.5,25.6-25.6,25.6H42.7c-14.1,0-25.6-11.5-25.6-25.6V187.7h256V249c-10.2,3.6-17,13.2-17.1,24
	v17.1c0,9.4,7.6,17.1,17.1,17.1h60.5c4.1,24.6,25.5,42.7,50.4,42.7c25,0,46.3-18,50.4-42.7h26.4V469.3z M351.1,307.2h65.8
	c-3.8,15.1-17.4,25.6-32.9,25.6C368.5,332.8,354.9,322.3,351.1,307.2L351.1,307.2z M273.1,290.1v-17.1c0-4.7,3.8-8.5,8.5-8.5h204.8
	c4.7,0,8.5,3.8,8.5,8.5v17.1H273.1z"/>
        <path id="Shape_8_" d="M315.7,213.3c4.7,0,8.5-3.8,8.5-8.5v-25.6c0-4.7-3.8-8.5-8.5-8.5c-4.7,0-8.5,3.8-8.5,8.5v25.6
	C307.2,209.5,311,213.3,315.7,213.3z"/>
    </symbol>
    <symbol id="arrow-right" viewBox="0 0 612 612">
        <path d="M306,612c169,0,306-137,306-306S475,0,306,0C137,0,0,137,0,306S137,612,306,612z M306,38.3
				c147.9,0,267.8,119.9,267.8,267.8S453.9,573.8,306,573.8S38.3,453.9,38.3,306S158.1,38.3,306,38.3z M219.2,469.3
				c7.5,7.5,19.6,7.5,27,0l146.4-146.4c4.6-4.6,6-10.9,5-16.8c1.1-5.9-0.4-12.2-5-16.8L246.3,142.7c-7.5-7.5-19.6-7.5-27,0
				c-7.5,7.5-7.5,19.6,0,27L355.5,306L219.3,442.2C211.8,449.7,211.8,461.8,219.2,469.3z"/>
    </symbol>
    <symbol id="undo" viewBox="0 0 512 359">
        <path d="M384.8,104.7c-0.7,0-348.7,0-348.7,0l73.3-82.2c4.8-5.3,4.3-13.5-1-18.3c-5.3-4.8-13.5-4.3-18.3,1L7.5,97.9
			c-10.1,11.3-10.1,28.3,0,39.6L90.1,230c2.6,2.9,6.1,4.3,9.7,4.3c3.1,0,6.1-1.1,8.6-3.3c5.3-4.8,5.8-12.9,1-18.3l-73.3-82.2
			c0,0,348,0,348.7,0c55.9,0,101.3,45.4,101.3,101.3s-45.4,101.3-101.3,101.3h-61.6c-7.1,0-12.9,5.8-12.9,12.9
			c0,7.1,5.8,12.9,12.9,12.9h61.6c70.1,0,127.2-57,127.2-127.2C512,161.8,455,104.7,384.8,104.7z"/>
    </symbol>
    <symbol id="user" viewBox="0 0 512 512">
        <path d="M437.02,330.98c-27.883-27.882-61.071-48.523-97.281-61.018C378.521,243.251,404,198.548,404,148
			C404,66.393,337.607,0,256,0S108,66.393,108,148c0,50.548,25.479,95.251,64.262,121.962
			c-36.21,12.495-69.398,33.136-97.281,61.018C26.629,379.333,0,443.62,0,512h40c0-119.103,96.897-216,216-216s216,96.897,216,216
			h40C512,443.62,485.371,379.333,437.02,330.98z M256,256c-59.551,0-108-48.448-108-108S196.449,40,256,40
			c59.551,0,108,48.448,108,108S315.551,256,256,256z"/>
    </symbol>
    <symbol id="line-nao" viewBox="0 0 1200 60">
        <path d="M0,56.5c0,0,298.666,0,399.333,0C448.336,56.5,513.994,46,597,46c77.327,0,135,10.5,200.999,10.5c95.996,0,402.001,0,402.001,0"/>
    </symbol>
    <symbol id="close" viewBox="0 0 47.971 47.971">
        <path d="M28.228,23.986L47.092,5.122c1.172-1.171,1.172-3.071,0-4.242c-1.172-1.172-3.07-1.172-4.242,0L23.986,19.744L5.121,0.88
		c-1.172-1.172-3.07-1.172-4.242,0c-1.172,1.171-1.172,3.071,0,4.242l18.865,18.864L0.879,42.85c-1.172,1.171-1.172,3.071,0,4.242
		C1.465,47.677,2.233,47.97,3,47.97s1.535-0.293,2.121-0.879l18.865-18.864L42.85,47.091c0.586,0.586,1.354,0.879,2.121,0.879
		s1.535-0.293,2.121-0.879c1.172-1.171,1.172-3.071,0-4.242L28.228,23.986z"/>
    </symbol>
    <symbol id="more" viewBox="0 0 60 60">
        <path d="M8,22c-4.411,0-8,3.589-8,8s3.589,8,8,8s8-3.589,8-8S12.411,22,8,22z"/>
        <path d="M52,22c-4.411,0-8,3.589-8,8s3.589,8,8,8s8-3.589,8-8S56.411,22,52,22z"/>
        <path d="M30,22c-4.411,0-8,3.589-8,8s3.589,8,8,8s8-3.589,8-8S34.411,22,30,22z"/>
    </symbol>
    <symbol id="arrow-right" viewBox="0 0 31.49 31.49">
        <path style="fill:#1E201D;" d="M21.205,5.007c-0.429-0.444-1.143-0.444-1.587,0c-0.429,0.429-0.429,1.143,0,1.571l8.047,8.047H1.111
        C0.492,14.626,0,15.118,0,15.737c0,0.619,0.492,1.127,1.111,1.127h26.554l-8.047,8.032c-0.429,0.444-0.429,1.159,0,1.587
        c0.444,0.444,1.159,0.444,1.587,0l9.952-9.952c0.444-0.429,0.444-1.143,0-1.571L21.205,5.007z"/>
    </symbol>
</svg>
