<?xml version="1.0" encoding="utf-8"?>
<!-- Generator: Adobe Illustrator 22.0.1, SVG Export Plug-In . SVG Version: 6.00 Build 0)  -->
<svg version="1.1" id="Слой_1" xmlns="http://www.w3.org/2000/svg" xmlns:xlink="http://www.w3.org/1999/xlink" x="0px" y="0px"
	 viewBox="0 0 500 500" style="enable-background:new 0 0 500 500;" xml:space="preserve">
<style type="text/css">
	.st0{fill:#734A91;}
	.st1{clip-path:url(#SVGID_2_);fill:#54316E;}
	.st2{fill:#F4EDF4;}
	.st3{fill:#C3ADC9;}
	.st4{fill:#B8BDC1;}
	.st5{fill:#4C434F;}
</style>
<g>
	<circle class="st0" cx="250" cy="250" r="250"/>
</g>
<g>
	<defs>
		<circle id="SVGID_1_" cx="250" cy="250" r="250"/>
	</defs>
	<clipPath id="SVGID_2_">
		<use xlink:href="#SVGID_1_"  style="overflow:visible;"/>
	</clipPath>
	<path class="st1" d="M389.5,147.9c-0.4,1-1.3,1.9-2.1,2.4c-1,0.6-2.1,0.8-3.3,0.6c-0.5,0.3-1.1,0.6-1.7,0.8
		c-0.6,0.2-1.3,0.3-1.9,0.4c-1.7,1.1-3.5,1.7-5.3,1.8c-0.8,0-1.5-0.2-2.1-0.5c-0.1,0.2-0.1,0.3-0.2,0.5c-1.9,4.1-8,2.6-9.1-1.2
		c-0.6-2-0.8-3.9-0.8-6c0-2.6,1.5-4.1,3.4-4.6c0.1-0.2,0.3-0.4,0.4-0.6c0.6-3.3,0.4-6.5-1.4-9.2c-2-2.9-5.9-5-9.9-6.3
		c-0.6,0.3-1.3,0.6-2,0.6c-15.4,1.3-30.2,6.1-45.8,3.8c-1.6-0.2-2.6-1.3-3.1-2.7c-23.3,1-46.6,3.7-70,4.4
		c-11.9,0.3-24.4,0.5-36.8-0.7c-3.9,0.1-7.8,0.2-11.8,0.3c-14.6,0.2-29.1-0.8-43.6,0c-8.5,0.5-17.9,1-26.2-1.5
		c1.3,56-2,112.1-2,168.2c0,2-0.9,3.4-2.2,4.1c0.7,3.2,1.2,6.5,1,9.9c-0.3,4.3-1,8.5-1.7,12.8c1.8,0.4,3.4,1.6,3.8,3.5
		c1.2,6.1,1.7,12.6,0,18.6c4.6,2.7,9.6,5.2,15.1,7.5c1,0.6,1.7,1.3,2.2,2c1.9-0.1,3.9,0.7,5.1,2.3c1.2,1.7,1.5,3.5,1.6,5.5
		c0.1,1.9-0.7,3.2-1.8,4c-0.3,4.9,0,9.9-0.1,14.8c-0.1,3.9,0.2,8.7-0.4,13c3.3-0.3,6.6-0.9,9.8-1.9c6.1-1.9,8.7,7.8,2.6,9.7
		c-6.4,2-13,2.6-19.7,2.7c-0.1,0.2-0.1,0.4-0.2,0.5L270.7,528c145.8-19.4,260-120,276.3-245.8L389.5,147.9z"/>
</g>
<polygon class="st2" points="108,386.2 368.3,386.2 368.3,125.8 108,125.8 "/>
<polygon class="st3" points="368.3,147.5 368.3,386.2 129.7,386.2 129.7,407.8 390,407.8 390,147.5 "/>
<path class="st4" d="M227.3,180.1c-12,0-21.7-9.7-21.7-21.7v-32.5c0-12,9.7-21.7,21.7-21.7c12,0,21.7,9.7,21.7,21.7
	c0,3-2.4,5.4-5.4,5.4s-5.4-2.4-5.4-5.4c0-6-4.9-10.8-10.8-10.8c-6,0-10.8,4.9-10.8,10.8v32.5c0,6,4.9,10.8,10.8,10.8
	s10.8-4.9,10.8-10.8c0-3,2.4-5.4,5.4-5.4s5.4,2.4,5.4,5.4C249,170.3,239.3,180.1,227.3,180.1"/>
<g>
	<path class="st5" d="M314.1,218h-21.7c-3,0-5.4-2.4-5.4-5.4c0-3,2.4-5.4,5.4-5.4h21.7c3,0,5.4,2.4,5.4,5.4
		C319.5,215.6,317.1,218,314.1,218"/>
	<path class="st5" d="M270.7,218h-38c-3,0-5.4-2.4-5.4-5.4c0-3,2.4-5.4,5.4-5.4h38c3,0,5.4,2.4,5.4,5.4
		C276.1,215.6,273.7,218,270.7,218"/>
	<path class="st5" d="M211,218h-48.8c-3,0-5.4-2.4-5.4-5.4c0-3,2.4-5.4,5.4-5.4H211c3,0,5.4,2.4,5.4,5.4
		C216.5,215.6,214,218,211,218"/>
	<path class="st5" d="M314.1,250.6h-43.4c-3,0-5.4-2.4-5.4-5.4s2.4-5.4,5.4-5.4h43.4c3,0,5.4,2.4,5.4,5.4S317.1,250.6,314.1,250.6"
		/>
	<path class="st5" d="M238.2,250.6h-38c-3,0-5.4-2.4-5.4-5.4s2.4-5.4,5.4-5.4h38c3,0,5.4,2.4,5.4,5.4S241.2,250.6,238.2,250.6"/>
	<path class="st5" d="M178.5,250.6h-16.3c-3,0-5.4-2.4-5.4-5.4s2.4-5.4,5.4-5.4h16.3c3,0,5.4,2.4,5.4,5.4S181.5,250.6,178.5,250.6"
		/>
	<path class="st5" d="M314.1,283.1h-16.3c-3,0-5.4-2.4-5.4-5.4s2.4-5.4,5.4-5.4h16.3c3,0,5.4,2.4,5.4,5.4S317.1,283.1,314.1,283.1"
		/>
	<path class="st5" d="M276.1,283.1h-54.2c-3,0-5.4-2.4-5.4-5.4s2.4-5.4,5.4-5.4h54.2c3,0,5.4,2.4,5.4,5.4S279.1,283.1,276.1,283.1"
		/>
	<path class="st5" d="M189.3,283.1h-27.1c-3,0-5.4-2.4-5.4-5.4s2.4-5.4,5.4-5.4h27.1c3,0,5.4,2.4,5.4,5.4S192.3,283.1,189.3,283.1"
		/>
	<path class="st5" d="M314.1,315.7h-59.7c-3,0-5.4-2.4-5.4-5.4s2.4-5.4,5.4-5.4h59.7c3,0,5.4,2.4,5.4,5.4S317.1,315.7,314.1,315.7"
		/>
	<path class="st5" d="M221.9,315.7h-21.7c-3,0-5.4-2.4-5.4-5.4s2.4-5.4,5.4-5.4h21.7c3,0,5.4,2.4,5.4,5.4S224.9,315.7,221.9,315.7"
		/>
	<path class="st5" d="M178.5,315.7h-16.3c-3,0-5.4-2.4-5.4-5.4s2.4-5.4,5.4-5.4h16.3c3,0,5.4,2.4,5.4,5.4S181.5,315.7,178.5,315.7"
		/>
</g>
</svg>
