<?xml version="1.0" encoding="utf-8"?>
<!-- Generator: Adobe Illustrator 22.0.1, SVG Export Plug-In . SVG Version: 6.00 Build 0)  -->
<svg version="1.1" id="Capa_1" xmlns="http://www.w3.org/2000/svg" xmlns:xlink="http://www.w3.org/1999/xlink" x="0px" y="0px"
	 viewBox="0 0 109.3 109.3" style="enable-background:new 0 0 109.3 109.3;" xml:space="preserve">
<style type="text/css">
	.st0{fill:#F7F7F7;}
	.st1{fill:#B8B1BC;}
</style>
<path class="st0" d="M38.4,85.8l-16.3,8.9c-1,0.5-1.9,1.2-2.6,1.9c9.5,8,21.8,12.8,35.1,12.8s25.5-4.8,34.9-12.7
	c-0.9-0.8-1.9-1.4-2.8-2l-17.4-8.8c-2.3-1.1-3.7-3.4-3.7-5.9v-6.7c0.4-0.5,1.1-1.3,1.6-2.1c2.4-3.4,4.2-7,5.5-10.9
	c2.2-0.7,3.9-2.7,3.9-5.3v-7.3c0-1.6-0.8-3.1-1.9-4V33c0,0,2.2-16.4-20.1-16.4S34.5,33,34.5,33v10.6c-1.1,1-1.9,2.4-1.9,4V55
	c0,2,1,3.6,2.5,4.6c1.9,8,6.6,13.7,6.6,13.7V80C41.8,82.4,40.5,84.6,38.4,85.8z"/>
<g>
	<path class="st1" d="M55.6,0.2C25.4-0.3,0.5,23.6,0,53.8c-0.3,17.1,7.3,32.5,19.5,42.7c0.8-0.7,1.6-1.3,2.6-1.9l16.2-8.9
		c2.2-1.2,3.5-3.4,3.5-5.8v-6.7c0,0-4.8-5.7-6.6-13.7c-1.5-1-2.5-2.6-2.5-4.6v-7.3c0-1.6,0.8-3.1,1.9-4V33c0,0-2.2-16.4,20.1-16.4
		S74.8,33,74.8,33v10.6c1.1,1,1.9,2.4,1.9,4V55c0,2.4-1.6,4.5-3.9,5.3c-1.2,3.8-3.1,7.5-5.5,10.9c-0.5,0.9-1.2,1.5-1.6,2.1v6.9
		c0,2.5,1.4,4.8,3.7,5.9l17.4,8.8c1.1,0.5,2,1.2,2.8,2c11.8-9.8,19.4-24.5,19.7-41C109.7,25.5,85.7,0.6,55.6,0.2z"/>
</g>
</svg>
