<?xml version="1.0" encoding="utf-8"?>
<!-- Generator: Adobe Illustrator 22.0.1, SVG Export Plug-In . SVG Version: 6.00 Build 0)  -->
<svg version="1.1" id="Capa_1" xmlns="http://www.w3.org/2000/svg" xmlns:xlink="http://www.w3.org/1999/xlink" x="0px" y="0px"
	 viewBox="0 0 109.3 109.3" style="enable-background:new 0 0 109.3 109.3;" xml:space="preserve">
<style type="text/css">
	.st0{fill:#F7F7F7;}
	.st1{fill:#734A91;}
	.st2{fill:#E2DCE2;}
	.st3{fill:#B798D8;}
	.st4{fill:#54316E;}
	.st5{fill:#D3C7D3;}
	.st6{fill:#9D74C1;}
	.st7{fill:#382549;}
	.st8{fill:#5E5E5E;}
</style>
<path class="st0" d="M35.1,78.4l-14.9,8.1c-0.9,0.5-1.7,1.1-2.4,1.7c8.7,7.3,19.9,11.7,32.1,11.7c12.2,0,23.3-4.4,31.9-11.6
	c-0.8-0.7-1.7-1.3-2.6-1.8l-15.9-8c-2.1-1-3.4-3.1-3.4-5.4V67c0.4-0.5,1-1.2,1.5-1.9c2.2-3.1,3.8-6.4,5-10c2-0.6,3.6-2.5,3.6-4.8
	v-6.7c0-1.5-0.7-2.8-1.7-3.7v-9.7c0,0,2-15-18.4-15s-18.4,15-18.4,15v9.7c-1,0.9-1.7,2.2-1.7,3.7v6.7c0,1.8,0.9,3.3,2.3,4.2
	c1.7,7.3,6,12.5,6,12.5v6.1C38.2,75.3,37,77.3,35.1,78.4z"/>
<g>
	<path class="st1" d="M50.8,0.2C23.2-0.3,0.5,21.6,0,49.2c-0.3,15.6,6.7,29.7,17.8,39c0.7-0.6,1.5-1.2,2.4-1.7L35,78.4
		c2-1.1,3.2-3.1,3.2-5.3V67c0,0-4.4-5.2-6-12.5c-1.4-0.9-2.3-2.4-2.3-4.2v-6.7c0-1.5,0.7-2.8,1.7-3.7v-9.7c0,0-2-15,18.4-15
		s18.4,15,18.4,15v9.7c1,0.9,1.7,2.2,1.7,3.7v6.7c0,2.2-1.5,4.1-3.6,4.8c-1.1,3.5-2.8,6.9-5,10c-0.5,0.8-1.1,1.4-1.5,1.9v6.3
		c0,2.3,1.3,4.4,3.4,5.4l15.9,8c1,0.5,1.8,1.1,2.6,1.8c10.8-9,17.7-22.4,18-37.5C100.3,23.3,78.3,0.6,50.8,0.2z"/>
</g>
<polygon class="st2" points="69.4,91.5 69.4,91.5 65.6,105.2 74.4,96.4 "/>
<path class="st3" d="M105.6,65.2l-2.3-2.3c-1.5-1.5-3.8-1.5-5.3,0l-6.7,6.7l5,5L105.6,65.2z"/>
<rect x="67.3" y="79.5" transform="matrix(0.7071 -0.7071 0.7071 0.7071 -34.4493 82.8629)" class="st4" width="30.9" height="7.1"/>
<polygon class="st5" points="80,102.1 80,102.1 74.4,96.4 65.6,105.2 65.4,106.1 "/>
<path class="st6" d="M101.9,80.2l6.7-6.7c1.5-1.5,1.5-3.8,0-5.3l-3-3l-9.4,9.4L101.9,80.2z"/>
<rect x="72.7" y="84.3" transform="matrix(0.7071 -0.7071 0.7071 0.7071 -36.6574 88.1891)" class="st7" width="30.9" height="8"/>
<path class="st8" d="M64,109.3c-0.5,0-1-0.2-1.3-0.6c-0.7-0.7-0.7-1.9,0-2.7l4.2-4.2c0.7-0.7,1.9-0.7,2.7,0c0.7,0.7,0.7,1.9,0,2.7
	l-4.2,4.2C65,109.1,64.5,109.3,64,109.3z"/>
</svg>
