<?xml version="1.0" encoding="utf-8"?>
<!-- Generator: Adobe Illustrator 22.0.1, SVG Export Plug-In . SVG Version: 6.00 Build 0)  -->
<svg version="1.1" id="Слой_1" xmlns="http://www.w3.org/2000/svg" xmlns:xlink="http://www.w3.org/1999/xlink" x="0px" y="0px"
	 viewBox="0 0 300 232.5" style="enable-background:new 0 0 300 232.5;" xml:space="preserve">
<path d="M276.5,47h-253C10.6,47,0,36.4,0,23.5v0C0,10.6,10.6,0,23.5,0h253C289.4,0,300,10.6,300,23.5v0C300,36.4,289.4,47,276.5,47z
	"/>
<path d="M201.5,139h-178C10.6,139,0,128.4,0,115.5v0C0,102.6,10.6,92,23.5,92h178c12.9,0,23.5,10.6,23.5,23.5v0
	C225,128.4,214.4,139,201.5,139z"/>
<path d="M137.5,231h-114C10.6,231,0,220.4,0,207.5v0C0,194.6,10.6,184,23.5,184h114c12.9,0,23.5,10.6,23.5,23.5v0
	C161,220.4,150.4,231,137.5,231z"/>
</svg>
