<svg height="512" viewBox="0 0 60 60" width="512" xmlns="http://www.w3.org/2000/svg">
    <g id="084---Add-To-Basket">
        <path id="Shape"
              d="m45 32h-3c-.5522847 0-1 .4477153-1 1s.4477153 1 1 1h3c.5522847 0 1-.4477153 1-1s-.4477153-1-1-1z"/>
        <path id="Shape"
              d="m57 24h-14.59l2-2c1.1449301.5473673 2.5104186.3151142 3.41-.58l11.3-11.3c1.1698135-1.17127019 1.1698135-3.06872981 0-4.24-1.1884135-1.12762879-3.0515865-1.12762879-4.24 0l-11.32 11.31c-.8883212.9042164-1.112478 2.2691714-.56 3.41l-3.41 3.4h-19.18l-3.41-3.4c.5499184-1.1428787.3217146-2.5080981-.57-3.41l-11.31-11.31c-1.18841352-1.12762879-3.05158648-1.12762879-4.24 0-1.16981351 1.17127019-1.16981351 3.06872981 0 4.24l11.31 11.31c.9019019.8917146 2.2671213 1.1199184 3.41.57l2 2h-14.6c-1.65685425 0-3 1.3431458-3 3v4c0 1.6568542 1.34314575 3 3 3h.23l6 22.3c.58894675 2.1873029 2.5748018 3.7054152 4.84 3.7h31.86c2.2651982.0054152 4.2510532-1.5126971 4.84-3.7l6-22.3h.23c1.6568542 0 3-1.3431458 3-3v-4c0-1.6568542-1.3431458-3-3-3zm-12-5.39 11.29-11.32c.1887188-.18718651.444197-.29153676.71-.29.4062651-.00236262.77358.24130378.929371.61651849.1557909.37521472.0690889.80739105-.219371 1.09348151l-11.32 11.29c-.3971516.2717551-.9315392.2220981-1.2718186-.1181814-.3402795-.3402794-.3899365-.874667-.1181814-1.2718186zm-31.39 1.39-11.32-11.29c-.25365858-.25365857-.35272353-.62337399-.25987805-.96987804.09284548-.34650406.36349595-.61715453.71000001-.71000001.34650405-.09284548.71621947.00621947.96987804.25987805l11.29 11.32c.1847442.1862606.2888954.4376601.29.7-.0165343.3898121-.2582746.7344118-.6191828.8826419-.3609081.1482301-.7750707.0730192-1.0608172-.1926419zm44.39 11c0 .5522847-.4477153 1-1 1h-6c-.5522847 0-1 .4477153-1 1s.4477153 1 1 1h3.7l-5.87 21.78c-.352984 1.3109431-1.542367 2.2214362-2.9 2.22h-31.86c-1.357633.0014362-2.547016-.9090569-2.9-2.22l-5.87-21.78h31.7c.5522847 0 1-.4477153 1-1s-.4477153-1-1-1h-34c-.55228475 0-1-.4477153-1-1v-4c0-.5522847.44771525-1 1-1h54c.5522847 0 1 .4477153 1 1z"/>
        <path id="Shape"
              d="m18 37c-2.209139 0-4 1.790861-4 4v10c0 2.209139 1.790861 4 4 4s4-1.790861 4-4v-10c0-2.209139-1.790861-4-4-4zm2 14c0 1.1045695-.8954305 2-2 2s-2-.8954305-2-2v-10c0-1.1045695.8954305-2 2-2s2 .8954305 2 2z"/>
        <path id="Shape"
              d="m30 37c-2.209139 0-4 1.790861-4 4v10c0 2.209139 1.790861 4 4 4s4-1.790861 4-4v-10c0-2.209139-1.790861-4-4-4zm2 14c0 1.1045695-.8954305 2-2 2s-2-.8954305-2-2v-10c0-1.1045695.8954305-2 2-2s2 .8954305 2 2z"/>
        <path id="Shape"
              d="m42 37c-2.209139 0-4 1.790861-4 4v10c0 2.209139 1.790861 4 4 4s4-1.790861 4-4v-10c0-2.209139-1.790861-4-4-4zm2 14c0 1.1045695-.8954305 2-2 2s-2-.8954305-2-2v-10c0-1.1045695.8954305-2 2-2s2 .8954305 2 2z"/>
        <path id="Shape"
              d="m35 0h-10c-1.1045695 0-2 .8954305-2 2v6h-2.59c-.8063114.00338536-1.5317303.49062584-1.8398346 1.23575754s-.138627 1.60240256.4298346 2.17424246l9.59 9.59c.7800749.7754472 2.0399251.7754472 2.82 0l9.59-9.59c.5684616-.5718399.7379389-1.42911076.4298346-2.17424246s-1.0335232-1.23237218-1.8398346-1.23575754h-2.59v-6c0-1.1045695-.8954305-2-2-2zm4.59 10-9.59 9.59-9.59-9.59h2.59c1.1045695 0 2-.8954305 2-2v-6h10v6c0 1.1045695.8954305 2 2 2z"/>
    </g>
</svg>
