<?xml version="1.0" encoding="utf-8"?>
<!-- Generator: Adobe Illustrator 22.0.1, SVG Export Plug-In . SVG Version: 6.00 Build 0)  -->
<svg version="1.1" id="Layer_1" xmlns="http://www.w3.org/2000/svg" xmlns:xlink="http://www.w3.org/1999/xlink" x="0px" y="0px"
	 viewBox="0 0 494.4 461.4" style="enable-background:new 0 0 494.4 461.4;" xml:space="preserve">
<title>Commercial delivery</title>
<path d="M464.1,198.4h-24.9c-2.9-10.6-12.5-17.9-23.4-18h-26.6v-65c0.1-2.5-1.2-4.8-3.3-6.1L198.3,0.9c-2.2-1.3-4.8-1.3-7,0
	L3.7,109.3c-2.2,1.3-3.5,3.6-3.5,6.1V332c0,2.5,1.3,4.8,3.5,6.1l187.7,108.3c1.1,0.6,2.3,0.9,3.5,0.9c1.3,0,2.5-0.3,3.6-0.9l98.7-57
	v41.2c0,16.4,13.2,29.7,29.6,29.7c0.1,0,0.2,0,0.3,0h137c16.5,0.2,29.9-13.1,30.1-29.5c0-0.1,0-0.1,0-0.2V228.5
	C494.2,211.9,480.7,198.4,464.1,198.4z M416,194.4c5.6,0,10.2,4.5,10.2,10.2l0,0v0.7c0,5.6-4.5,10.2-10.2,10.2c0,0,0,0,0,0h-40.7
	c-5.6,0-10.2-4.5-10.2-10.2l0,0v-0.7c0-5.6,4.5-10.2,10.2-10.2c0,0,0,0,0,0H416z M194.8,15.1l78,45L99.2,160.4l-78-45L194.8,15.1z
	 M188.2,428.2L14.2,328V127.5l174,100.3V428.2z M194.8,215.6l-81.7-47.2L286.8,68.2l81.7,47.2L194.8,215.6z M297.2,228.5v144.8
	l-95,54.9V227.7l173-100.3v52.9h0.2c-10.9,0.1-20.5,7.4-23.4,18h-24.9C310.5,198.4,297.1,212,297.2,228.5z M480.2,430.6
	c0,8.7-7.1,15.8-15.9,15.7c-0.1,0-0.1,0-0.2,0h-137c-8.6,0.1-15.7-6.7-15.9-15.4c0-0.1,0-0.2,0-0.4V228.5c-0.1-8.8,7-16.1,15.9-16.2
	c0,0,0,0,0,0h25.2c3.1,10.2,12.5,17.1,23.1,17h40.4c10.6,0.1,20.1-6.8,23.1-17h25.2c8.9,0.1,16.1,7.3,16.1,16.2V430.6z"/>
<path d="M335.1,299.4h7.3c3.9,0,7-3.1,7-7s-3.1-7-7-7h-0.3v-19h19.3c0.9,2.9,3.6,4.8,6.7,4.7c3.9,0,7-3.1,7-7v-4.7
	c0-3.9-3.2-7-7.1-7h-33c-3.9,0-7,3.2-6.9,7c0,0,0,0,0,0v33C328.2,296.2,331.3,299.3,335.1,299.4
	C335.1,299.4,335.1,299.4,335.1,299.4z"/>
<path d="M335.2,363.4h33c3.9,0,7-3.1,7-7v-33c0-3.9-3.1-7-7-7h-33c-3.9,0-7,3.1-7,7v33C328.2,360.2,331.3,363.4,335.2,363.4z
	 M342.2,330.4h19v19h-19V330.4z"/>
<path d="M342.5,413.4h-0.3v-19h18.9c0.1,3.9,3.3,7,7.2,6.9c3.8-0.1,6.8-3.1,6.9-6.9v-6.7c0-3.9-3.1-7.1-7.1-7.3h-33
	c-3.9,0.1-7,3.4-6.9,7.3v33c0,3.7,3,6.8,6.7,6.8c0.1,0,0.1,0,0.2,0h7.3c3.9,0,7-3.1,7-7S346.3,413.4,342.5,413.4L342.5,413.4z"/>
<path d="M384.2,261l-20.5,20.5l-6.2-6.2c-2.7-2.7-7.2-2.7-9.9,0s-2.7,7.2,0,9.9l11.2,11.2c2.7,2.7,7.2,2.7,9.9,0c0,0,0,0,0,0
	l25.5-25.5c2.7-2.7,2.7-7.2,0-9.9S387,258.2,384.2,261L384.2,261z"/>
<path d="M384.2,390.2l-20.5,20.5l-6.2-6.2c-2.7-2.7-7.2-2.7-9.9,0s-2.7,7.2,0,9.9l11.2,11.2c2.7,2.7,7.2,2.7,9.9,0c0,0,0,0,0,0
	l25.5-25.5c2.7-2.7,2.7-7.2,0-9.9S387,387.5,384.2,390.2L384.2,390.2z"/>
<path d="M456,269.4h-44c-3.9,0-7,3.1-7,7s3.1,7,7,7h44c3.9,0,7-3.1,7-7S459.9,269.4,456,269.4z"/>
<path d="M456,333.4h-44c-3.9,0-7,3.1-7,7s3.1,7,7,7h44c3.9,0,7-3.1,7-7S459.9,333.4,456,333.4z"/>
<path d="M456,397.4h-44c-3.9,0-7,3.1-7,7s3.1,7,7,7h44c3.9,0,7-3.1,7-7S459.9,397.4,456,397.4z"/>
</svg>
