<?xml version="1.0" encoding="utf-8"?>
<!-- Generator: Adobe Illustrator 22.0.1, SVG Export Plug-In . SVG Version: 6.00 Build 0)  -->
<svg version="1.1" id="Слой_1" xmlns="http://www.w3.org/2000/svg" xmlns:xlink="http://www.w3.org/1999/xlink" x="0px" y="0px"
	 viewBox="0 0 611.8 496.6" style="enable-background:new 0 0 611.8 496.6;" xml:space="preserve">
<path d="M410,142.8h0.1l97.1-1.5c4.8-0.1,8.7-4,8.6-8.9c-0.1-4.8-4-8.7-8.9-8.6l-97.1,1.5c-4.8,0-8.7,4-8.7,8.8
	C401.3,138.9,405.2,142.8,410,142.8z"/>
<path d="M457.1,183H457l-46.2,0.7c-4.8,0-8.7,4-8.7,8.8c0,4.8,4,8.7,8.8,8.7h0.1l46.2-0.7c4.8,0,8.7-4,8.7-8.8
	C465.8,186.8,461.9,182.9,457.1,183z"/>
<path d="M16.6,477c0.4,0.4,0.8,0.7,1.3,1c11,11.5,26.2,18,42.2,18h349c15.9,0,31.1-6.5,42.1-17.9c1.2-0.8,2.2-1.9,2.9-3.2
	c8.8-10.5,13.6-23.7,13.5-37.4V304.5c15-0.9,29.8-4,43.9-9.2l81.1,12.9c3.2,0.5,6.3-0.8,8.3-3.3c2-2.5,2.4-5.9,1.1-8.9l-22.6-50.9
	c39.8-51.9,41.9-123.5,5.3-177.7C548.1,13.3,480.9-11.3,417.9,6.3S310.2,79.9,307,145.2h-247c-29.4,0-54.3,21.9-58.1,51.1
	c-0.5,1.3-0.6,2.8-0.4,4.1c-0.1,1.1-0.1,2.2-0.1,3.3v233.6c0,13.7,4.8,26.9,13.5,37.4C15.4,475.6,16,476.4,16.6,477z M60.1,478.6
	c-8.9,0-17.6-2.9-24.7-8.2l105.3-107.7c2.2-2.2,3.1-5.5,2.2-8.5c-0.8-3-3.2-5.4-6.3-6.1c-3-0.8-6.3,0.2-8.4,2.4L23.9,457.1
	c-3.3-6-5-12.8-5-19.6V218l181,153.3c20,17,49.3,17,69.3,0l106.1-90c0.2-0.2,0.5-0.4,0.7-0.7l0.2-0.2c22.1,14.4,47.6,22.7,73.9,24.1
	v132.9c0,6.9-1.7,13.7-5,19.7L340.3,350.4c-2.2-2.3-5.4-3.2-8.4-2.4c-3,0.8-5.4,3.1-6.3,6.2c-0.8,3,0,6.3,2.3,8.5l105.8,107.7
	c-7.1,5.3-15.7,8.2-24.6,8.2L60.1,478.6z M362.3,59C412.5,6.9,495,3.9,548.9,52.1c53.9,48.3,60,130.5,13.8,186.2
	c-2.1,2.6-2.6,6.1-1.2,9.1l18.2,41.1L512,277.7c-1.5-0.2-3.1-0.1-4.5,0.5c-42.3,16.5-90,10.5-126.9-16c-0.2-0.2-0.4-0.3-0.6-0.5
	c-5.2-3.8-10.2-8-14.8-12.4C311.8,197.5,310.5,112.3,362.3,59z M60.1,162.7h247.1c2.4,37.6,18.7,73,45.8,99.1c2.9,2.8,5.9,5.5,8.9,8
	L258,358c-13.5,11.5-33.3,11.5-46.7,0L19.7,195.8C23.6,176.6,40.4,162.7,60.1,162.7z"/>
</svg>
