<?xml version="1.0" encoding="utf-8"?>
<!-- Generator: Adobe Illustrator 22.0.1, SVG Export Plug-In . SVG Version: 6.00 Build 0)  -->
<svg version="1.1" id="Capa_1" xmlns="http://www.w3.org/2000/svg" xmlns:xlink="http://www.w3.org/1999/xlink" x="0px" y="0px"
	 viewBox="0 0 60.1 43.9" style="enable-background:new 0 0 60.1 43.9;" xml:space="preserve">
<g>
	<path d="M57.1,43.7H16.9c-1.7,0-3-1.3-3-3s1.3-3,3-3h40.2c1.7,0,3,1.3,3,3S58.8,43.7,57.1,43.7z"/>
	<path d="M57.1,24.9H16.9c-1.7,0-3-1.3-3-3s1.3-3,3-3h40.2c1.7,0,3,1.3,3,3C60.1,23.6,58.8,24.9,57.1,24.9z"/>
	<path d="M57.1,6.1H16.9c-1.7,0-3-1.3-3-3s1.3-3,3-3h40.2c1.7,0,3,1.3,3,3S58.8,6.1,57.1,6.1z"/>
	<circle cx="4" cy="3.3" r="4"/>
	<circle cx="4" cy="21.9" r="4"/>
	<circle cx="4" cy="40.5" r="4"/>
</g>
</svg>
