<?xml version="1.0" encoding="utf-8"?>
<!-- Generator: Adobe Illustrator 23.0.0, SVG Export Plug-In . SVG Version: 6.00 Build 0)  -->
<svg version="1.1" id="Capa_1" xmlns="http://www.w3.org/2000/svg" xmlns:xlink="http://www.w3.org/1999/xlink" x="0px" y="0px"
	 viewBox="0 0 612 612" style="enable-background:new 0 0 612 612;" xml:space="preserve">
<g>
	<g id="_x31_0_25_">
		<g>
			<path d="M306,612c169,0,306-137,306-306S475,0,306,0C137,0,0,137,0,306S137,612,306,612z M306,38.3
				c147.9,0,267.8,119.9,267.8,267.8S453.9,573.8,306,573.8S38.3,453.9,38.3,306S158.1,38.3,306,38.3z M219.2,469.3
				c7.5,7.5,19.6,7.5,27,0l146.4-146.4c4.6-4.6,6-10.9,5-16.8c1.1-5.9-0.4-12.2-5-16.8L246.3,142.7c-7.5-7.5-19.6-7.5-27,0
				c-7.5,7.5-7.5,19.6,0,27L355.5,306L219.3,442.2C211.8,449.7,211.8,461.8,219.2,469.3z"/>
		</g>
	</g>
</g>
</svg>
