<?xml version="1.0" encoding="iso-8859-1"?>
<svg display="none"
     xmlns="http://www.w3.org/2000/svg"
     xmlns:xlink="http://www.w3.org/1999/xlink">

    <symbol id="bars_menu" viewBox="0 0 512 512">
        <path d="M443.5,159.6H72.5c-17.4,0-31.5-14.1-31.5-31.5v0c0-17.4,14.1-31.5,31.5-31.5h370.9c17.4,0,31.5,14.1,31.5,31.5v0
			C475,145.5,460.9,159.6,443.5,159.6z"/>
        <path d="M321.5,287.5H72.5C55.1,287.5,41,273.4,41,256v0c0-17.4,14.1-31.5,31.5-31.5h248.9c17.4,0,31.5,14.1,31.5,31.5v0
		C353,273.4,338.9,287.5,321.5,287.5z"/>
        <path d="M228.8,415.5H72.5c-17.4,0-31.5-14.1-31.5-31.5v0c0-17.4,14.1-31.5,31.5-31.5h156.2c17.4,0,31.5,14.1,31.5,31.5v0
		C260.3,401.4,246.2,415.5,228.8,415.5z"/>
    </symbol>

    <symbol id="loading" viewBox="0 0 120 30" fill="#6b2b9a">
        <circle cx="15" cy="15" r="15">
            <animate attributeName="r" from="15" to="15"
                     begin="0s" dur="0.8s"
                     values="15;9;15" calcMode="linear"
                     repeatCount="indefinite"/>
            <animate attributeName="fill-opacity" from="1" to="1"
                     begin="0s" dur="0.8s"
                     values="1;.5;1" calcMode="linear"
                     repeatCount="indefinite"/>
        </circle>
        <circle cx="60" cy="15" r="9" fill-opacity="0.3">
            <animate attributeName="r" from="9" to="9"
                     begin="0s" dur="0.8s"
                     values="9;15;9" calcMode="linear"
                     repeatCount="indefinite"/>
            <animate attributeName="fill-opacity" from="0.5" to="0.5"
                     begin="0s" dur="0.8s"
                     values=".5;1;.5" calcMode="linear"
                     repeatCount="indefinite"/>
        </circle>
        <circle cx="105" cy="15" r="15">
            <animate attributeName="r" from="15" to="15"
                     begin="0s" dur="0.8s"
                     values="15;9;15" calcMode="linear"
                     repeatCount="indefinite"/>
            <animate attributeName="fill-opacity" from="1" to="1"
                     begin="0s" dur="0.8s"
                     values="1;.5;1" calcMode="linear"
                     repeatCount="indefinite"/>
        </circle>
    </symbol>

    <symbol id="add" viewBox="0 0 448 448">
        <path d="m408 184h-136c-4.417969 0-8-3.582031-8-8v-136c0-22.089844-17.910156-40-40-40s-40 17.910156-40 40v136c0 4.417969-3.582031 8-8 8h-136c-22.089844 0-40 17.910156-40 40s17.910156 40 40 40h136c4.417969 0 8 3.582031 8 8v136c0 22.089844 17.910156 40 40 40s40-17.910156 40-40v-136c0-4.417969 3.582031-8 8-8h136c22.089844 0 40-17.910156 40-40s-17.910156-40-40-40zm0 0"/>
    </symbol>
    <symbol id="add-to-basket" viewBox="0 0 60 60">
        <path id="Shape"
              d="m45 32h-3c-.5522847 0-1 .4477153-1 1s.4477153 1 1 1h3c.5522847 0 1-.4477153 1-1s-.4477153-1-1-1z"/>
        <path id="Shape"
              d="m57 24h-14.59l2-2c1.1449301.5473673 2.5104186.3151142 3.41-.58l11.3-11.3c1.1698135-1.17127019 1.1698135-3.06872981 0-4.24-1.1884135-1.12762879-3.0515865-1.12762879-4.24 0l-11.32 11.31c-.8883212.9042164-1.112478 2.2691714-.56 3.41l-3.41 3.4h-19.18l-3.41-3.4c.5499184-1.1428787.3217146-2.5080981-.57-3.41l-11.31-11.31c-1.18841352-1.12762879-3.05158648-1.12762879-4.24 0-1.16981351 1.17127019-1.16981351 3.06872981 0 4.24l11.31 11.31c.9019019.8917146 2.2671213 1.1199184 3.41.57l2 2h-14.6c-1.65685425 0-3 1.3431458-3 3v4c0 1.6568542 1.34314575 3 3 3h.23l6 22.3c.58894675 2.1873029 2.5748018 3.7054152 4.84 3.7h31.86c2.2651982.0054152 4.2510532-1.5126971 4.84-3.7l6-22.3h.23c1.6568542 0 3-1.3431458 3-3v-4c0-1.6568542-1.3431458-3-3-3zm-12-5.39 11.29-11.32c.1887188-.18718651.444197-.29153676.71-.29.4062651-.00236262.77358.24130378.929371.61651849.1557909.37521472.0690889.80739105-.219371 1.09348151l-11.32 11.29c-.3971516.2717551-.9315392.2220981-1.2718186-.1181814-.3402795-.3402794-.3899365-.874667-.1181814-1.2718186zm-31.39 1.39-11.32-11.29c-.25365858-.25365857-.35272353-.62337399-.25987805-.96987804.09284548-.34650406.36349595-.61715453.71000001-.71000001.34650405-.09284548.71621947.00621947.96987804.25987805l11.29 11.32c.1847442.1862606.2888954.4376601.29.7-.0165343.3898121-.2582746.7344118-.6191828.8826419-.3609081.1482301-.7750707.0730192-1.0608172-.1926419zm44.39 11c0 .5522847-.4477153 1-1 1h-6c-.5522847 0-1 .4477153-1 1s.4477153 1 1 1h3.7l-5.87 21.78c-.352984 1.3109431-1.542367 2.2214362-2.9 2.22h-31.86c-1.357633.0014362-2.547016-.9090569-2.9-2.22l-5.87-21.78h31.7c.5522847 0 1-.4477153 1-1s-.4477153-1-1-1h-34c-.55228475 0-1-.4477153-1-1v-4c0-.5522847.44771525-1 1-1h54c.5522847 0 1 .4477153 1 1z"/>
        <path id="Shape"
              d="m18 37c-2.209139 0-4 1.790861-4 4v10c0 2.209139 1.790861 4 4 4s4-1.790861 4-4v-10c0-2.209139-1.790861-4-4-4zm2 14c0 1.1045695-.8954305 2-2 2s-2-.8954305-2-2v-10c0-1.1045695.8954305-2 2-2s2 .8954305 2 2z"/>
        <path id="Shape"
              d="m30 37c-2.209139 0-4 1.790861-4 4v10c0 2.209139 1.790861 4 4 4s4-1.790861 4-4v-10c0-2.209139-1.790861-4-4-4zm2 14c0 1.1045695-.8954305 2-2 2s-2-.8954305-2-2v-10c0-1.1045695.8954305-2 2-2s2 .8954305 2 2z"/>
        <path id="Shape"
              d="m42 37c-2.209139 0-4 1.790861-4 4v10c0 2.209139 1.790861 4 4 4s4-1.790861 4-4v-10c0-2.209139-1.790861-4-4-4zm2 14c0 1.1045695-.8954305 2-2 2s-2-.8954305-2-2v-10c0-1.1045695.8954305-2 2-2s2 .8954305 2 2z"/>
        <path id="Shape"
              d="m35 0h-10c-1.1045695 0-2 .8954305-2 2v6h-2.59c-.8063114.00338536-1.5317303.49062584-1.8398346 1.23575754s-.138627 1.60240256.4298346 2.17424246l9.59 9.59c.7800749.7754472 2.0399251.7754472 2.82 0l9.59-9.59c.5684616-.5718399.7379389-1.42911076.4298346-2.17424246s-1.0335232-1.23237218-1.8398346-1.23575754h-2.59v-6c0-1.1045695-.8954305-2-2-2zm4.59 10-9.59 9.59-9.59-9.59h2.59c1.1045695 0 2-.8954305 2-2v-6h10v6c0 1.1045695.8954305 2 2 2z"/>
    </symbol>
    <symbol id="box" viewBox="0 0 494.4 461.4">
        <path d="M464.1,198.4h-24.9c-2.9-10.6-12.5-17.9-23.4-18h-26.6v-65c0.1-2.5-1.2-4.8-3.3-6.1L198.3,0.9c-2.2-1.3-4.8-1.3-7,0
	L3.7,109.3c-2.2,1.3-3.5,3.6-3.5,6.1V332c0,2.5,1.3,4.8,3.5,6.1l187.7,108.3c1.1,0.6,2.3,0.9,3.5,0.9c1.3,0,2.5-0.3,3.6-0.9l98.7-57
	v41.2c0,16.4,13.2,29.7,29.6,29.7c0.1,0,0.2,0,0.3,0h137c16.5,0.2,29.9-13.1,30.1-29.5c0-0.1,0-0.1,0-0.2V228.5
	C494.2,211.9,480.7,198.4,464.1,198.4z M416,194.4c5.6,0,10.2,4.5,10.2,10.2l0,0v0.7c0,5.6-4.5,10.2-10.2,10.2c0,0,0,0,0,0h-40.7
	c-5.6,0-10.2-4.5-10.2-10.2l0,0v-0.7c0-5.6,4.5-10.2,10.2-10.2c0,0,0,0,0,0H416z M194.8,15.1l78,45L99.2,160.4l-78-45L194.8,15.1z
	 M188.2,428.2L14.2,328V127.5l174,100.3V428.2z M194.8,215.6l-81.7-47.2L286.8,68.2l81.7,47.2L194.8,215.6z M297.2,228.5v144.8
	l-95,54.9V227.7l173-100.3v52.9h0.2c-10.9,0.1-20.5,7.4-23.4,18h-24.9C310.5,198.4,297.1,212,297.2,228.5z M480.2,430.6
	c0,8.7-7.1,15.8-15.9,15.7c-0.1,0-0.1,0-0.2,0h-137c-8.6,0.1-15.7-6.7-15.9-15.4c0-0.1,0-0.2,0-0.4V228.5c-0.1-8.8,7-16.1,15.9-16.2
	c0,0,0,0,0,0h25.2c3.1,10.2,12.5,17.1,23.1,17h40.4c10.6,0.1,20.1-6.8,23.1-17h25.2c8.9,0.1,16.1,7.3,16.1,16.2V430.6z"/>
        <path d="M335.1,299.4h7.3c3.9,0,7-3.1,7-7s-3.1-7-7-7h-0.3v-19h19.3c0.9,2.9,3.6,4.8,6.7,4.7c3.9,0,7-3.1,7-7v-4.7
	c0-3.9-3.2-7-7.1-7h-33c-3.9,0-7,3.2-6.9,7c0,0,0,0,0,0v33C328.2,296.2,331.3,299.3,335.1,299.4
	C335.1,299.4,335.1,299.4,335.1,299.4z"/>
        <path d="M335.2,363.4h33c3.9,0,7-3.1,7-7v-33c0-3.9-3.1-7-7-7h-33c-3.9,0-7,3.1-7,7v33C328.2,360.2,331.3,363.4,335.2,363.4z
	 M342.2,330.4h19v19h-19V330.4z"/>
        <path d="M342.5,413.4h-0.3v-19h18.9c0.1,3.9,3.3,7,7.2,6.9c3.8-0.1,6.8-3.1,6.9-6.9v-6.7c0-3.9-3.1-7.1-7.1-7.3h-33
	c-3.9,0.1-7,3.4-6.9,7.3v33c0,3.7,3,6.8,6.7,6.8c0.1,0,0.1,0,0.2,0h7.3c3.9,0,7-3.1,7-7S346.3,413.4,342.5,413.4L342.5,413.4z"/>
        <path d="M384.2,261l-20.5,20.5l-6.2-6.2c-2.7-2.7-7.2-2.7-9.9,0s-2.7,7.2,0,9.9l11.2,11.2c2.7,2.7,7.2,2.7,9.9,0c0,0,0,0,0,0
	l25.5-25.5c2.7-2.7,2.7-7.2,0-9.9S387,258.2,384.2,261L384.2,261z"/>
        <path d="M384.2,390.2l-20.5,20.5l-6.2-6.2c-2.7-2.7-7.2-2.7-9.9,0s-2.7,7.2,0,9.9l11.2,11.2c2.7,2.7,7.2,2.7,9.9,0c0,0,0,0,0,0
	l25.5-25.5c2.7-2.7,2.7-7.2,0-9.9S387,387.5,384.2,390.2L384.2,390.2z"/>
        <path d="M456,269.4h-44c-3.9,0-7,3.1-7,7s3.1,7,7,7h44c3.9,0,7-3.1,7-7S459.9,269.4,456,269.4z"/>
        <path d="M456,333.4h-44c-3.9,0-7,3.1-7,7s3.1,7,7,7h44c3.9,0,7-3.1,7-7S459.9,333.4,456,333.4z"/>
        <path d="M456,397.4h-44c-3.9,0-7,3.1-7,7s3.1,7,7,7h44c3.9,0,7-3.1,7-7S459.9,397.4,456,397.4z"/>

    </symbol>

    <symbol id="edit" viewBox="0 0 55.25 55.25">
        <path d="M52.618,2.631c-3.51-3.508-9.219-3.508-12.729,0L3.827,38.693C3.81,38.71,3.8,38.731,3.785,38.749
	c-0.021,0.024-0.039,0.05-0.058,0.076c-0.053,0.074-0.094,0.153-0.125,0.239c-0.009,0.026-0.022,0.049-0.029,0.075
	c-0.003,0.01-0.009,0.02-0.012,0.03l-3.535,14.85c-0.016,0.067-0.02,0.135-0.022,0.202C0.004,54.234,0,54.246,0,54.259
	c0.001,0.114,0.026,0.225,0.065,0.332c0.009,0.025,0.019,0.047,0.03,0.071c0.049,0.107,0.11,0.21,0.196,0.296
	c0.095,0.095,0.207,0.168,0.328,0.218c0.121,0.05,0.25,0.075,0.379,0.075c0.077,0,0.155-0.009,0.231-0.027l14.85-3.535
	c0.027-0.006,0.051-0.021,0.077-0.03c0.034-0.011,0.066-0.024,0.099-0.039c0.072-0.033,0.139-0.074,0.201-0.123
	c0.024-0.019,0.049-0.033,0.072-0.054c0.008-0.008,0.018-0.012,0.026-0.02l36.063-36.063C56.127,11.85,56.127,6.14,52.618,2.631z
	 M51.204,4.045c2.488,2.489,2.7,6.397,0.65,9.137l-9.787-9.787C44.808,1.345,48.716,1.557,51.204,4.045z M46.254,18.895l-9.9-9.9
	l1.414-1.414l9.9,9.9L46.254,18.895z M4.961,50.288c-0.391-0.391-1.023-0.391-1.414,0L2.79,51.045l2.554-10.728l4.422-0.491
	l-0.569,5.122c-0.004,0.038,0.01,0.073,0.01,0.11c0,0.038-0.014,0.072-0.01,0.11c0.004,0.033,0.021,0.06,0.028,0.092
	c0.012,0.058,0.029,0.111,0.05,0.165c0.026,0.065,0.057,0.124,0.095,0.181c0.031,0.046,0.062,0.087,0.1,0.127
	c0.048,0.051,0.1,0.094,0.157,0.134c0.045,0.031,0.088,0.06,0.138,0.084C9.831,45.982,9.9,46,9.972,46.017
	c0.038,0.009,0.069,0.03,0.108,0.035c0.036,0.004,0.072,0.006,0.109,0.006c0,0,0.001,0,0.001,0c0,0,0.001,0,0.001,0h0.001
	c0,0,0.001,0,0.001,0c0.036,0,0.073-0.002,0.109-0.006l5.122-0.569l-0.491,4.422L4.204,52.459l0.757-0.757
	C5.351,51.312,5.351,50.679,4.961,50.288z M17.511,44.809L39.889,22.43c0.391-0.391,0.391-1.023,0-1.414s-1.023-0.391-1.414,0
	L16.097,43.395l-4.773,0.53l0.53-4.773l22.38-22.378c0.391-0.391,0.391-1.023,0-1.414s-1.023-0.391-1.414,0L10.44,37.738
	l-3.183,0.354L34.94,10.409l9.9,9.9L17.157,47.992L17.511,44.809z M49.082,16.067l-9.9-9.9l1.415-1.415l9.9,9.9L49.082,16.067z"/>
    </symbol>
    <symbol id="mail" viewBox="0 0 611.8 496.6">
        <path d="M410,142.8h0.1l97.1-1.5c4.8-0.1,8.7-4,8.6-8.9c-0.1-4.8-4-8.7-8.9-8.6l-97.1,1.5c-4.8,0-8.7,4-8.7,8.8
	C401.3,138.9,405.2,142.8,410,142.8z"/>
        <path d="M457.1,183H457l-46.2,0.7c-4.8,0-8.7,4-8.7,8.8c0,4.8,4,8.7,8.8,8.7h0.1l46.2-0.7c4.8,0,8.7-4,8.7-8.8
	C465.8,186.8,461.9,182.9,457.1,183z"/>
        <path d="M16.6,477c0.4,0.4,0.8,0.7,1.3,1c11,11.5,26.2,18,42.2,18h349c15.9,0,31.1-6.5,42.1-17.9c1.2-0.8,2.2-1.9,2.9-3.2
	c8.8-10.5,13.6-23.7,13.5-37.4V304.5c15-0.9,29.8-4,43.9-9.2l81.1,12.9c3.2,0.5,6.3-0.8,8.3-3.3c2-2.5,2.4-5.9,1.1-8.9l-22.6-50.9
	c39.8-51.9,41.9-123.5,5.3-177.7C548.1,13.3,480.9-11.3,417.9,6.3S310.2,79.9,307,145.2h-247c-29.4,0-54.3,21.9-58.1,51.1
	c-0.5,1.3-0.6,2.8-0.4,4.1c-0.1,1.1-0.1,2.2-0.1,3.3v233.6c0,13.7,4.8,26.9,13.5,37.4C15.4,475.6,16,476.4,16.6,477z M60.1,478.6
	c-8.9,0-17.6-2.9-24.7-8.2l105.3-107.7c2.2-2.2,3.1-5.5,2.2-8.5c-0.8-3-3.2-5.4-6.3-6.1c-3-0.8-6.3,0.2-8.4,2.4L23.9,457.1
	c-3.3-6-5-12.8-5-19.6V218l181,153.3c20,17,49.3,17,69.3,0l106.1-90c0.2-0.2,0.5-0.4,0.7-0.7l0.2-0.2c22.1,14.4,47.6,22.7,73.9,24.1
	v132.9c0,6.9-1.7,13.7-5,19.7L340.3,350.4c-2.2-2.3-5.4-3.2-8.4-2.4c-3,0.8-5.4,3.1-6.3,6.2c-0.8,3,0,6.3,2.3,8.5l105.8,107.7
	c-7.1,5.3-15.7,8.2-24.6,8.2L60.1,478.6z M362.3,59C412.5,6.9,495,3.9,548.9,52.1c53.9,48.3,60,130.5,13.8,186.2
	c-2.1,2.6-2.6,6.1-1.2,9.1l18.2,41.1L512,277.7c-1.5-0.2-3.1-0.1-4.5,0.5c-42.3,16.5-90,10.5-126.9-16c-0.2-0.2-0.4-0.3-0.6-0.5
	c-5.2-3.8-10.2-8-14.8-12.4C311.8,197.5,310.5,112.3,362.3,59z M60.1,162.7h247.1c2.4,37.6,18.7,73,45.8,99.1c2.9,2.8,5.9,5.5,8.9,8
	L258,358c-13.5,11.5-33.3,11.5-46.7,0L19.7,195.8C23.6,176.6,40.4,162.7,60.1,162.7z"/>
    </symbol>
    <symbol id="envelope" viewBox="0 0 483.3 483.3">
        <path d="M424.3,57.75H59.1c-32.6,0-59.1,26.5-59.1,59.1v249.6c0,32.6,26.5,59.1,59.1,59.1h365.1c32.6,0,59.1-26.5,59.1-59.1
			v-249.5C483.4,84.35,456.9,57.75,424.3,57.75z M456.4,366.45c0,17.7-14.4,32.1-32.1,32.1H59.1c-17.7,0-32.1-14.4-32.1-32.1v-249.5
			c0-17.7,14.4-32.1,32.1-32.1h365.1c17.7,0,32.1,14.4,32.1,32.1v249.5H456.4z"/>
        <path d="M304.8,238.55l118.2-106c5.5-5,6-13.5,1-19.1c-5-5.5-13.5-6-19.1-1l-163,146.3l-31.8-28.4c-0.1-0.1-0.2-0.2-0.2-0.3
			c-0.7-0.7-1.4-1.3-2.2-1.9L78.3,112.35c-5.6-5-14.1-4.5-19.1,1.1c-5,5.6-4.5,14.1,1.1,19.1l119.6,106.9L60.8,350.95
			c-5.4,5.1-5.7,13.6-0.6,19.1c2.7,2.8,6.3,4.3,9.9,4.3c3.3,0,6.6-1.2,9.2-3.6l120.9-113.1l32.8,29.3c2.6,2.3,5.8,3.4,9,3.4
			c3.2,0,6.5-1.2,9-3.5l33.7-30.2l120.2,114.2c2.6,2.5,6,3.7,9.3,3.7c3.6,0,7.1-1.4,9.8-4.2c5.1-5.4,4.9-14-0.5-19.1L304.8,238.55z"/>
    </symbol>
    <symbol id="list" viewBox="0 0 60.1 43.9">
        <path d="M57.1,43.7H16.9c-1.7,0-3-1.3-3-3s1.3-3,3-3h40.2c1.7,0,3,1.3,3,3S58.8,43.7,57.1,43.7z"/>
        <path d="M57.1,24.9H16.9c-1.7,0-3-1.3-3-3s1.3-3,3-3h40.2c1.7,0,3,1.3,3,3C60.1,23.6,58.8,24.9,57.1,24.9z"/>
        <path d="M57.1,6.1H16.9c-1.7,0-3-1.3-3-3s1.3-3,3-3h40.2c1.7,0,3,1.3,3,3S58.8,6.1,57.1,6.1z"/>
        <circle cx="4" cy="3.3" r="4"/>
        <circle cx="4" cy="21.9" r="4"/>
        <circle cx="4" cy="40.5" r="4"/>
    </symbol>
    <symbol id="menu-dots" viewBox="0 0 512 512">
        <circle cx="256" cy="256" r="64"/>
        <circle cx="256" cy="448" r="64"/>
        <circle cx="256" cy="64" r="64"/>
    </symbol>
    <symbol id="text" viewBox="0 0 512 512">
        <path d="M196.267,460.8c-4.713,0-8.533,3.82-8.533,8.533s3.82,8.533,8.533,8.533h17.067c4.713,0,8.533-3.82,8.533-8.533
				s-3.82-8.533-8.533-8.533H196.267z"/>
        <path d="M435.2,153.6h-76.8V128c0-4.713-3.821-8.533-8.533-8.533s-8.533,3.82-8.533,8.533v25.6h-128
				c-14.138,0-25.6,11.461-25.6,25.6v153.6c0,14.138,11.461,25.6,25.6,25.6h128v59.733h-25.6c-4.713,0-8.533,3.82-8.533,8.533
				s3.82,8.533,8.533,8.533h25.6v51.2c0,4.713-3.82,8.533-8.533,8.533h-256c-4.713,0-8.533-3.82-8.533-8.533v-51.2h196.267
				c4.713,0,8.533-3.82,8.533-8.533s-3.82-8.533-8.533-8.533H68.267v-332.8h25.6c4.713,0,8.533-3.82,8.533-8.533
				s-3.82-8.533-8.533-8.533h-25.6V25.6c0-4.713,3.82-8.533,8.533-8.533h256c4.713,0,8.533,3.82,8.533,8.533v42.667H145.067
				c-4.713,0-8.533,3.82-8.533,8.533s3.82,8.533,8.533,8.533h204.8c4.713,0,8.533-3.82,8.533-8.533V25.6
				c0-14.138-11.462-25.6-25.6-25.6h-256C62.662,0,51.2,11.461,51.2,25.6v460.8c0,14.138,11.461,25.6,25.6,25.6h256
				c14.138,0,25.6-11.461,25.6-25.6v-128h76.8c14.138,0,25.6-11.462,25.6-25.6V179.2C460.8,165.062,449.339,153.6,435.2,153.6z
				 M443.733,332.8c0,4.713-3.82,8.533-8.533,8.533H213.333c-4.713,0-8.533-3.821-8.533-8.533V179.2c0-4.713,3.82-8.533,8.533-8.533
				H435.2c4.713,0,8.533,3.82,8.533,8.533V332.8z"/>
        <path d="M419.455,196.357c-2.242-0.354-4.533,0.2-6.365,1.539l-88.823,64.623l-88.849-64.623
				c-2.466-1.793-5.702-2.133-8.487-0.894c-2.786,1.24-4.698,3.871-5.018,6.903s1.003,6.005,3.47,7.797l93.867,68.267
				c0.276,0.155,0.561,0.295,0.853,0.418c0.275,0.16,0.56,0.302,0.853,0.427c1.039,0.484,2.165,0.751,3.311,0.785
				c1.157-0.03,2.296-0.297,3.345-0.785c0.293-0.124,0.578-0.267,0.853-0.427c0.292-0.123,0.577-0.263,0.853-0.418l93.867-68.267
				c3.802-2.781,4.631-8.117,1.852-11.921C423.706,197.944,421.697,196.711,419.455,196.357z"/>
        <path d="M262.767,271.3l-38.4,38.4c-2.218,2.143-3.108,5.315-2.327,8.299c0.781,2.983,3.111,5.313,6.094,6.094
				s6.156-0.109,8.299-2.327l38.4-38.4c3.234-3.348,3.188-8.671-0.104-11.962C271.438,268.113,266.115,268.066,262.767,271.3z"/>
        <path d="M385.766,271.3c-3.348-3.234-8.671-3.188-11.962,0.104c-3.292,3.292-3.338,8.614-0.104,11.962l38.4,38.4
				c3.348,3.234,8.671,3.188,11.962-0.104c3.292-3.292,3.338-8.614,0.104-11.962L385.766,271.3z"/>
    </symbol>
    <symbol id="arrow-right" viewBox="0 0 612 612">
        <path d="M306,612c169,0,306-137,306-306S475,0,306,0C137,0,0,137,0,306S137,612,306,612z M306,38.3
				c147.9,0,267.8,119.9,267.8,267.8S453.9,573.8,306,573.8S38.3,453.9,38.3,306S158.1,38.3,306,38.3z M219.2,469.3
				c7.5,7.5,19.6,7.5,27,0l146.4-146.4c4.6-4.6,6-10.9,5-16.8c1.1-5.9-0.4-12.2-5-16.8L246.3,142.7c-7.5-7.5-19.6-7.5-27,0
				c-7.5,7.5-7.5,19.6,0,27L355.5,306L219.3,442.2C211.8,449.7,211.8,461.8,219.2,469.3z"/>
    </symbol>
    <symbol id="undo" viewBox="0 0 512 512">
        <path d="M384.834,180.699c-0.698,0-348.733,0-348.733,0l73.326-82.187c4.755-5.33,4.289-13.505-1.041-18.26
			c-5.328-4.754-13.505-4.29-18.26,1.041l-82.582,92.56c-10.059,11.278-10.058,28.282,0.001,39.557l82.582,92.561
			c2.556,2.865,6.097,4.323,9.654,4.323c3.064,0,6.139-1.083,8.606-3.282c5.33-4.755,5.795-12.93,1.041-18.26l-73.326-82.188
			c0,0,348.034,0,348.733,0c55.858,0,101.3,45.444,101.3,101.3s-45.443,101.3-101.3,101.3h-61.58
			c-7.143,0-12.933,5.791-12.933,12.933c0,7.142,5.79,12.933,12.933,12.933h61.58c70.12,0,127.166-57.046,127.166-127.166
			C512,237.745,454.954,180.699,384.834,180.699z"/>
    </symbol>
    <symbol id="user" viewBox="0 0 512 512">
        <path d="M437.02,330.98c-27.883-27.882-61.071-48.523-97.281-61.018C378.521,243.251,404,198.548,404,148
			C404,66.393,337.607,0,256,0S108,66.393,108,148c0,50.548,25.479,95.251,64.262,121.962
			c-36.21,12.495-69.398,33.136-97.281,61.018C26.629,379.333,0,443.62,0,512h40c0-119.103,96.897-216,216-216s216,96.897,216,216
			h40C512,443.62,485.371,379.333,437.02,330.98z M256,256c-59.551,0-108-48.448-108-108S196.449,40,256,40
			c59.551,0,108,48.448,108,108S315.551,256,256,256z"/>
    </symbol>
    <symbol id="line-nao" viewBox="0 0 1200 60">
        <path d="M0,56.5c0,0,298.666,0,399.333,0C448.336,56.5,513.994,46,597,46c77.327,0,135,10.5,200.999,10.5c95.996,0,402.001,0,402.001,0"/>
    </symbol>
</svg>
